<svg width="21" height="18" viewBox="0 0 21 18" fill="none" xmlns="http://www.w3.org/2000/svg">
<path d="M0.451782 0.5H20.4518V17.5H0.451782V0.5Z" fill="white"/>
<path d="M6.17759 0.992013C6.22338 0.990745 6.40755 0.99383 6.48726 0.993295C6.3969 1.00671 6.01244 0.996619 6.17759 0.992013ZM14.3555 0.0179163C14.2893 0.0212327 14.2232 0.024549 14.157 0.0278654C14.345 0.0300203 14.5977 0.0275861 14.7721 0.0307342C14.8007 0.0312628 14.7267 0.0408649 14.7942 0.0412937C14.8617 0.0417197 14.8487 0.0285976 14.9469 0.027194C15.057 0.0256595 15.5615 0.0348013 15.7362 0.0345795C16.3895 0.0336937 17.0485 0.0261999 17.7031 0.0316497C17.0273 0.0413578 17.7083 0.0512384 17.8976 0.0470312C17.9396 0.046057 17.9329 0.0216619 18.611 0.0278044C19.0419 0.0317023 18.6439 0.0665784 19.363 0.0491064C18.81 0.0247081 19.3538 0.0264181 19.7873 0.025607C19.8413 0.0255031 20.172 0.0273922 20.4518 0.0280366L20.9173 0.021746L20.9237 0.5C20.9235 0.607006 20.9234 0.706557 20.9237 0.780315C20.9241 0.871527 20.9369 1.0105 20.9372 1.13148C20.9374 1.21475 20.9305 1.27772 20.9308 1.40135C20.9324 1.97771 20.9329 2.54453 20.9306 3.1219C20.8977 2.78449 20.9166 3.38673 20.915 3.41378C20.9061 3.55133 20.9036 2.92921 20.898 3.17525C20.899 3.51908 20.9 3.8629 20.901 4.20673C20.9051 3.92454 20.9287 4.58031 20.9179 4.70102C20.947 4.64787 20.8927 6.26808 20.9024 6.51472C20.9044 6.56608 20.9188 6.22984 20.9122 7.00985C20.9115 7.09433 20.9027 7.06237 20.9035 7.10668C20.904 7.13321 20.9318 7.2938 20.9165 7.4649C20.9109 7.5274 20.8926 7.12766 20.8999 8.00548C20.9282 7.65589 20.9153 9.22268 20.9082 9.51093C20.912 9.45334 20.9158 9.39575 20.9196 9.33817C20.9093 9.62313 20.9189 9.67454 20.9184 9.73874C20.9163 9.99743 20.9066 10.3531 20.9075 10.5941C20.9085 10.8761 20.9261 10.877 20.9193 11.2058C20.9232 11.1278 20.927 11.0498 20.9309 10.9718C20.93 11.1988 20.9291 11.4259 20.9281 11.6529C20.9048 11.1271 20.927 11.7664 20.9275 11.8085C20.9284 11.8756 20.9188 11.7791 20.92 11.8915C20.9202 11.9031 20.9292 11.8863 20.9302 12.0594C20.9323 12.4212 20.921 12.364 20.9211 12.5159C20.9212 12.5298 20.9293 12.4811 20.9312 12.7434C20.9373 13.5772 20.925 12.7393 20.9239 12.7073C20.9224 12.6653 20.8885 12.9511 20.9005 12.2429C20.8967 12.4807 20.8817 12.5046 20.8814 12.5314C20.8811 12.5551 20.8832 12.9671 20.8837 12.9899C20.8888 13.1924 20.899 13.0142 20.9008 13.0536C20.9023 13.0859 20.889 13.5823 20.9198 13.6987C20.8914 13.9362 20.894 13.562 20.8896 13.1637C20.8838 13.1056 20.8781 13.543 20.8781 13.566C20.8782 14.1302 20.9015 13.8178 20.9165 13.9412C20.9243 14.0059 20.9083 14.2358 20.9293 14.0236C20.9315 14.5357 20.9194 14.2251 20.9176 14.2582C20.9149 14.3081 20.9209 14.4873 20.9201 14.5097C20.9189 14.5426 20.9117 14.4282 20.9091 14.558C20.9088 14.5795 20.9212 14.7887 20.9272 14.519C20.9254 14.8793 20.9361 14.8496 20.9146 14.9718C20.9552 15.2199 20.8907 15.1519 20.8884 15.2496C20.8824 15.5094 20.9142 15.434 20.9158 15.4477C20.9257 15.5423 20.9148 16.2616 20.9194 16.4397C20.8965 16.3694 20.9191 15.8695 20.9147 15.7577C20.8999 15.385 20.9032 16.283 20.8744 16.0123C20.8823 16.1258 20.8902 16.2393 20.8982 16.3528C20.8796 16.5608 20.8716 16.2656 20.8783 16.8256C20.8943 16.9172 20.8758 16.4297 20.8884 16.5275C20.8958 16.5851 20.8974 16.9098 20.9013 16.9162C20.906 16.9226 20.9004 16.6292 20.9076 16.6754C20.9232 16.7764 20.9084 17.8467 20.8999 17.0319C20.9001 17.2296 20.8767 17.3439 20.8769 17.5L20.8826 17.9193L20.4518 17.9252C20.4284 17.9252 20.4041 17.9258 20.3784 17.927C20.3308 17.9294 20.4012 17.9368 20.4518 17.9448L20.9025 17.9387L20.8966 17.5C20.9034 17.4567 20.9107 17.4279 20.9155 17.5L20.9217 17.9574L20.4518 17.9637C20.3828 17.9683 20.2215 17.9706 19.8923 17.9682C19.8694 17.9536 20.3224 17.9639 20.3341 17.9628C20.3506 17.9612 20.2687 17.9282 20.2545 17.9265C20.2043 17.9212 19.1059 17.9389 18.8738 17.9223C18.9657 17.9413 18.0438 17.9257 17.9434 17.9315C17.9167 17.9331 18.0166 17.9448 17.988 17.946C17.8097 17.9534 17.3276 17.9325 17.1039 17.932C16.8535 17.9314 16.8853 17.9415 16.8713 17.9414C16.7611 17.9409 16.8491 17.934 16.7818 17.934C16.6801 17.9341 15.981 17.9327 15.9459 17.9341C15.9357 17.9346 16.0498 17.9461 15.8974 17.9483C15.871 17.9486 15.8877 17.935 15.4364 17.9409C14.8929 17.948 15.8138 17.9579 15.588 17.9722C15.2389 17.9518 15.2502 17.972 15.1555 17.9704C15.1227 17.9698 14.8788 17.9527 14.6138 17.9538C14.804 17.951 14.9941 17.9482 15.1843 17.9454C14.9974 17.9424 14.6343 17.9461 14.4803 17.9427C14.4052 17.9411 14.4671 17.927 14.3039 17.9273C14.2692 17.9275 14.1318 17.9619 14.5593 17.9464C14.5935 17.9587 14.3901 17.9507 14.2957 17.9542C14.2814 17.9547 14.2251 17.9752 14.1046 17.9625C14.0756 17.9594 14.3907 17.8996 13.5781 17.9428C13.5519 17.9442 13.6429 17.9517 13.6173 17.9533C13.5998 17.9543 13.3924 17.9513 13.3695 17.9524C13.346 17.9535 13.4462 17.9617 13.4183 17.9633C13.2752 17.9716 13.0874 17.9391 13.3825 17.9416C13.2839 17.9376 13.1852 17.9336 13.0866 17.9296C13.1922 17.954 12.9317 17.9365 12.7953 17.9372C11.9208 17.942 12.5064 17.9579 12.3561 17.9662C12.1142 17.9794 12.2989 17.9375 11.94 17.9501C11.9068 17.9513 12.3407 17.969 11.4934 17.959C11.6184 17.9583 11.7435 17.9576 11.8686 17.9569C11.7964 17.9333 11.417 17.9586 11.3878 17.9589C11.0551 17.9621 11.28 17.9536 10.786 17.9658C10.7418 17.9669 10.6457 17.961 10.5514 17.964C10.1603 17.9759 11.0675 17.9712 11.0923 17.9808C11.104 17.9855 10.1284 17.9843 10.0949 17.9821C9.95272 17.9722 10.5372 17.9777 10.4258 17.9655C10.3851 17.9611 8.99464 17.9701 8.71568 17.9653C8.39376 17.9597 8.24885 17.9277 8.2468 17.9637C8.15594 17.9284 8.07571 17.9525 8.03451 17.9522C7.53671 17.949 7.53578 17.9486 7.10889 17.952C7.01463 17.9527 6.93503 17.942 6.90169 17.9438C6.88229 17.9449 6.91856 17.9564 6.8235 17.9599C6.69145 17.9648 5.89786 17.953 5.83888 17.9466C5.7799 17.9403 6.17401 17.9439 6.10338 17.9334C5.8181 17.9324 5.54453 17.935 5.25736 17.9339C5.13808 17.9334 5.19937 17.9261 5.14783 17.9259C5.1259 17.9258 4.71401 17.9323 4.73146 17.935C4.77235 17.9412 6.04423 17.937 5.70931 17.9498C5.6447 17.9523 5.4164 17.9354 5.4527 17.9559C4.3164 17.9513 3.1801 17.9466 2.04379 17.942C2.69667 17.9267 3.4314 17.9404 4.11522 17.9389C4.20895 17.9388 4.5258 17.9407 4.48728 17.9304C3.90577 17.9277 3.18284 17.9331 2.62446 17.9264C2.60658 17.9261 2.67219 17.9168 2.60526 17.9154C2.48014 17.9126 2.07277 17.9276 2.00427 17.9237C1.99256 17.9228 2.22439 17.9106 2.15388 17.9028C1.97291 17.8828 1.92699 17.9271 1.77138 17.9265C1.65106 17.9261 0.842481 17.9047 0.641102 17.9182C0.426964 17.9326 1.237 17.9266 1.17717 17.9384C0.93545 17.9436 0.692401 17.9441 0.451782 17.9431L0.0147795 17.949L0.00871232 17.5C0.00996822 17.195 0.0135542 16.894 0.0127299 16.6045C0.0126924 16.5954 0.00346196 16.6746 0.00217044 16.559C-7.70688e-05 16.358 0.0130158 16.3052 0.0151104 16.2073C0.0173401 16.1018 0.0154638 15.7285 0.0202375 15.6786C0.0208635 15.6722 0.03385 15.7478 0.0342151 15.7593C0.0395675 15.9219 0.0227123 15.9797 0.0224959 15.9945C0.0218568 16.05 0.0283128 16.1047 0.0279283 16.1554C0.0272871 16.2389 0.0213142 16.2848 0.0207869 16.395C0.0204009 16.4711 0.0318709 16.3977 0.0313464 16.471C0.0311074 16.4979 0.00491661 16.788 0.0316516 16.8151C0.040081 16.8235 0.0509059 14.4507 0.0441642 14.2135C0.0409496 14.4169 0.037735 14.6204 0.0345203 14.8238C0.0423454 14.4107 0.0209839 13.9144 0.0525874 13.8793C0.0551713 12.3473 0.0577553 10.8153 0.0603392 9.28334C0.0630317 9.00979 0.0833403 9.15979 0.0774297 8.70973C0.0709597 8.82603 0.0644897 8.94233 0.0580198 9.05864C0.0625586 8.82797 0.0714257 7.80584 0.0672364 7.64042C0.0666873 7.619 0.0483069 7.58926 0.0467278 7.33385C0.0453334 7.10723 0.0591049 7.07082 0.061743 6.94966C0.0639196 6.84794 0.0603113 6.7337 0.0610716 6.7035C0.0616803 6.68033 0.0701016 6.67116 0.0715701 6.61543C0.0761103 6.43945 0.0523992 6.58208 0.079627 6.40738C0.0806647 6.44992 0.0817023 6.49245 0.0827399 6.53498C0.0866808 6.3226 0.0990419 6.03243 0.105141 6.34528C0.106194 6.39906 0.0980463 6.35287 0.0980603 6.39299C0.0995743 7.96386 0.115412 6.70947 0.10276 6.15897C0.114832 6.01759 0.107462 5.22524 0.109841 5.19891C0.113286 5.16229 0.122934 5.29788 0.131265 5.12015C0.133028 5.08276 0.126269 4.02335 0.142312 4.40483C0.145622 4.48355 0.142145 4.99147 0.142618 5.11394C0.168204 4.82584 0.131546 4.15049 0.132485 4.07455C0.136473 3.76821 0.15466 4.66307 0.157633 3.97293C0.159914 3.44226 0.14283 3.94047 0.135537 3.73637C0.131445 3.62168 0.150266 3.02112 0.125893 3.03742C0.123291 2.83129 0.136196 2.95193 0.137124 2.92649C0.13794 2.9016 0.130644 2.4963 0.135781 2.36473C0.13642 2.34877 0.149089 2.39901 0.150125 2.38252C0.1519 2.35042 0.149368 1.95955 0.148294 1.94384C0.147548 1.93385 0.136457 2.02703 0.133767 1.98872C0.130666 1.94409 0.133276 1.56796 0.130105 1.54722C0.125311 1.51793 0.128469 1.98227 0.116066 1.90488C0.119189 1.69085 0.110914 1.34214 0.100929 1.20086C0.103784 1.23548 0.104194 1.44301 0.103187 1.51504C0.0850224 1.48114 0.0852698 1.03553 0.0996473 1.18787C0.0919259 1.09105 0.0878296 1.15715 0.0805426 1.10262C0.0786967 1.08832 0.0783165 0.950735 0.0751713 0.924215C0.0745446 0.920764 0.0676909 1.06273 0.0640014 1.03431C0.0573343 0.982838 0.0588342 0.565691 0.0605833 0.531551C0.0655401 0.435481 0.0715377 0.77559 0.0791998 0.80396C0.0803764 0.807987 0.0953913 0.518712 0.0967175 0.514332C0.110945 0.497415 0.100692 0.819313 0.113503 0.782507C0.116209 0.702896 0.118915 0.623297 0.121621 0.54369C0.134594 0.85075 0.127923 1.41882 0.142679 1.56529C0.138288 1.11004 0.138807 0.633591 0.172038 0.634587C0.186033 0.634908 0.194237 0.831317 0.197796 0.823721C0.210528 0.794757 0.196696 0.522103 0.197368 0.512073C0.198144 0.503786 0.1989 0.500001 0.199635 0.5C0.199635 0.5 0.199636 0.5 0.199636 0.5C0.207091 0.500016 0.212459 0.888673 0.215863 0.908124C0.221909 0.940826 0.246797 0.76784 0.252302 0.768111C0.253408 0.774129 0.259298 1.05092 0.268904 0.957525C0.278607 0.863029 0.278822 0.620777 0.27983 0.612285C0.285635 0.566021 0.290929 0.989772 0.294357 1.00241C0.29609 1.00907 0.306738 0.781504 0.309799 0.774885C0.312871 0.769209 0.319574 0.942161 0.32927 1.01031C0.336474 1.06112 0.341997 0.913165 0.343126 0.939176C0.343874 0.957773 0.343752 1.35816 0.345018 1.37785C0.346891 1.40717 0.3555 1.31339 0.357653 1.32704C0.360749 1.3464 0.357641 1.47569 0.360827 1.45887C0.363201 1.44622 0.392879 0.944968 0.400806 0.94821C0.414327 0.953936 0.383217 1.48477 0.436574 0.990835C0.436925 0.987378 0.433133 0.867155 0.433461 0.863806C0.443278 0.789612 0.45838 1.17504 0.45574 0.703747C0.472791 1.58045 0.476066 0.812847 0.498832 0.942564C0.507583 0.992655 0.511192 1.33252 0.512505 1.3341C0.523606 1.30107 0.514996 1.19279 0.52044 1.15597C0.523481 1.13572 0.535219 1.43979 0.54284 1.37136C0.546768 1.33598 0.54537 1.01319 0.546136 0.999869C0.553363 0.872133 0.561146 1.02877 0.566279 1.00071C0.56972 0.982069 0.569993 0.787297 0.570612 0.782225C0.571901 0.77402 0.585806 1.03849 0.590694 1.09359C0.594454 1.13547 0.600346 0.978265 0.601986 1.00749C0.61179 1.18356 0.586786 1.55817 0.621823 1.19719C0.623971 1.17515 0.623104 1.03861 0.623532 1.03459C0.633464 0.950205 0.634323 1.20161 0.642454 1.24659C0.656465 1.3238 0.648653 0.96246 0.658506 1.26296C0.667669 1.03753 0.667286 0.911922 0.664732 0.648136C0.671857 1.37853 0.708128 1.63631 0.707214 0.825415C0.706649 1.08336 0.727119 1.05475 0.727479 1.1317C0.727679 1.17955 0.707326 1.55356 0.752992 1.38209C0.758697 1.36056 0.751449 1.13337 0.763125 1.20453C0.760145 1.74981 0.770554 1.21609 0.772097 1.21554C0.798997 1.2226 0.776965 2.555 0.780032 2.78393C0.78359 3.04959 0.804786 3.28568 0.804813 3.34343C0.804823 3.53342 0.79406 3.37575 0.790103 3.41823C0.786182 3.4613 0.8068 4.00156 0.805668 4.02854C0.801119 4.13319 0.788367 4.02697 0.787723 4.03786C0.779908 4.16743 0.789894 4.89301 0.786929 5.09615C0.795202 5.08987 0.795859 4.68203 0.809147 4.93666C0.824639 5.23317 0.788168 5.25015 0.786563 5.25791C0.786909 6.61646 0.787255 7.97503 0.787601 9.33358C0.807004 9.31666 0.792371 8.42844 0.794925 8.40824C0.81005 8.28959 0.809772 9.79003 0.802921 9.9741C0.807112 9.83427 0.811304 9.69444 0.815495 9.55462C0.837802 9.79337 0.80882 10.3218 0.818669 10.6671C0.821861 10.7787 0.830471 10.5644 0.831059 10.5689C0.839723 10.6943 0.833048 10.8955 0.821415 10.745C0.832561 11.0511 0.820264 11.0064 0.81934 11.2413C0.819301 11.2534 0.828304 11.1525 0.832036 11.3384C0.833777 11.4255 0.833806 11.8899 0.84168 11.9521C0.844995 11.9777 0.879904 11.7421 0.849859 11.713C0.864505 11.2078 0.836167 11.5516 0.836858 11.3553C0.837015 11.3252 0.853786 11.3945 0.845891 10.9003C0.876134 10.9944 0.85352 11.5635 0.857183 11.6611C0.864713 11.8622 0.880331 11.0332 0.856756 10.8811C0.880356 10.9522 0.859937 10.8223 0.860907 10.6375C0.861959 10.4352 0.868986 10.5234 0.869025 10.4139C0.8692 10.1146 0.852541 10.2387 0.86756 9.99188C0.821066 10.2325 0.861425 9.56942 0.873602 9.37621C0.875963 9.69058 0.878323 10.005 0.880683 10.3193C0.883124 10.3014 0.885566 10.2834 0.888007 10.2654C0.887661 10.3482 0.887316 10.431 0.88697 10.5138C0.88463 10.5006 0.88229 10.4873 0.87995 10.474C0.895163 10.901 0.878065 11.0052 0.877875 11.04C0.875892 11.4882 0.876039 12.0059 0.875983 12.4591C0.875975 12.5271 0.891192 12.4804 0.879279 12.976C0.875485 13.134 0.863647 12.9848 0.865423 13.164C0.897592 13.3881 0.871934 13.3838 0.871893 13.4505C0.871897 13.6417 0.879866 13.7586 0.87995 13.7762C0.881194 14.0125 0.879863 14.3585 0.881049 14.618C0.88117 14.6229 0.891054 14.4879 0.888129 14.6564C0.887085 14.7156 0.844896 15.2466 0.858648 15.7108C0.861497 15.59 0.864345 15.4693 0.867194 15.3486C0.863213 15.4906 0.873845 16.4853 0.885139 16.242C0.892041 16.0929 0.864847 15.7289 0.890998 15.689C0.885499 15.9216 0.889642 16.8933 0.890485 17.5L0.451782 17.0613C0.708569 17.0609 0.899978 17.0612 0.942302 17.063C0.961989 17.0638 0.840866 17.0723 0.868061 17.0734C0.889113 17.0742 1.30787 17.0722 1.36348 17.0755C1.39656 17.0774 1.21153 17.0826 1.22657 17.0857C1.23974 17.0879 1.7627 17.0915 1.79256 17.0809C1.66412 17.0851 1.30318 17.0814 1.49248 17.0724C1.51682 17.0713 1.64301 17.0782 1.67258 17.0768C1.94706 17.0637 1.12683 17.0669 0.99989 17.0668C1.51512 17.0532 2.31202 17.0692 2.90901 17.0604C3.15024 17.0692 2.55137 17.0739 2.82432 17.0812C3.39053 17.0964 2.97497 17.069 2.99256 17.0679C3.1332 17.0589 3.61222 17.1068 3.61247 17.0704C3.81774 17.0759 3.7513 17.0804 4.04098 17.0757C4.00287 17.0732 3.96476 17.0706 3.92665 17.0681C4.24827 17.047 4.92898 17.1002 4.87797 17.1043C4.74078 17.1152 4.38629 17.0982 4.35602 17.0986C4.31118 17.0992 4.18732 17.1362 3.69687 17.1031C3.49605 17.1279 4.4742 17.1199 4.02913 17.1368C4.32971 17.134 5.5663 17.1513 5.74431 17.1404C5.76554 17.139 5.66661 17.1143 5.97212 17.1268C6.11715 17.1328 5.76743 17.1331 5.83379 17.1387C6.038 17.156 8.81534 17.145 9.34292 17.144C9.37716 17.144 9.36459 17.1517 9.39825 17.1516C9.50161 17.1514 9.87832 17.14 10.0633 17.1435C9.68002 17.1293 10.4244 17.1282 10.6138 17.1298C10.9012 17.1321 10.8834 17.1456 11.0076 17.1485C11.4861 17.1596 12.2276 17.1275 12.5994 17.1575C12.5791 17.1277 13.2424 17.172 13.5442 17.1723C13.7806 17.1725 14.1236 17.1528 13.8045 17.1409C14.2125 17.1422 14.6421 17.1367 15.0248 17.1349C15.0881 17.1346 15.001 17.1434 15.1089 17.1426C15.1187 17.1424 15.1323 17.1338 15.225 17.1329C15.9902 17.1254 15.6178 17.1437 15.761 17.1491C15.8411 17.1521 15.9003 17.1536 15.9437 17.1541C15.4976 17.1558 14.9831 17.1592 14.8456 17.1594C14.9629 17.1784 15.8342 17.1558 16.0893 17.1609C16.0982 17.1611 16.0674 17.1716 16.0763 17.1716C16.0765 17.1716 16.0767 17.1716 16.0769 17.1716C16.1725 17.1724 16.7815 17.1686 16.6562 17.1561C16.6225 17.1527 16.3422 17.1527 16.0097 17.1539C16.0997 17.1515 16.0325 17.1398 16.0484 17.1393C16.241 17.1335 16.7127 17.1449 16.88 17.1465C16.9183 17.1468 16.9155 17.1393 16.9218 17.1393C17.074 17.141 17.0116 17.1625 17.1677 17.1403C17.4433 17.1671 16.6512 17.1443 16.707 17.1617C16.7499 17.1751 18.5093 17.1679 18.504 17.1468C18.5101 17.149 18.5343 17.1518 18.5839 17.155C18.694 17.1621 19.1837 17.1599 19.2682 17.156C19.2824 17.1552 19.2767 17.1348 19.2944 17.1346C19.3387 17.1341 19.9372 17.1502 20.1608 17.1381C20.04 17.1352 19.9193 17.1323 19.7986 17.1295C20.5277 17.1293 20.415 17.1232 20.1721 17.1171C20.1599 17.117 20.1481 17.1162 20.1365 17.1161C19.9482 17.1116 19.7069 17.1073 19.7032 17.1056C19.6948 17.1019 20.1481 17.0992 20.4518 17.1019L20.0536 17.5C20.0554 17.3038 20.0594 17.17 20.0668 17.2634C20.068 17.2779 20.067 17.3958 20.0667 17.5L20.4518 17.1149C20.3181 17.1145 20.207 17.1151 20.3663 17.1227C20.3786 17.1233 20.4105 17.1235 20.4518 17.1235L20.0753 17.5C20.0753 17.3749 20.0734 17.1636 20.0745 17.1491C20.0802 17.0751 20.087 17.3069 20.0944 17.5L20.4518 17.1426C20.3079 17.1481 20.1855 17.1539 20.2274 17.16C20.2965 17.1552 20.3725 17.153 20.4518 17.152L20.1038 17.5C20.102 17.3557 20.1042 17.2004 20.1019 17.0562C20.1004 16.9545 20.0901 16.9296 20.0899 16.917C20.0872 16.7296 20.098 16.8348 20.0977 16.7722C20.0975 16.7387 20.0746 16.3693 20.1062 16.4391C20.083 15.2222 20.083 16.1025 20.0848 16.849C20.0733 16.6131 20.0788 16.1507 20.0762 15.9432C20.0752 15.8687 20.0647 15.9128 20.0626 15.787C20.0582 15.5282 20.0703 14.2922 20.0732 13.9702C20.0769 14.168 20.0884 14.1102 20.0876 13.9575C20.0868 13.8049 20.0715 13.9331 20.0698 13.9033C20.0681 13.8714 20.0753 13.1553 20.0734 13.0361C20.0789 13.5753 20.0904 13.4537 20.0915 12.9961C20.0948 13.0622 20.0981 13.1284 20.1014 13.1945C20.0968 12.9263 20.1143 12.3624 20.1091 12.2073C20.1082 12.183 20.0986 12.2704 20.0981 12.2567C20.0941 12.1208 20.1039 11.6581 20.1006 11.6366C20.0978 11.6183 20.0898 11.8157 20.0858 11.7424C20.085 11.7271 20.098 11.5369 20.0948 11.3495C20.0936 11.2799 20.0845 11.3218 20.084 11.3043C20.0796 11.1583 20.0949 11.2445 20.0925 10.9777C20.0906 10.7822 20.0757 10.6367 20.0806 10.3665C20.0615 11.2534 20.0695 10.5079 20.0637 10.137C20.0628 10.0776 20.0463 10.1286 20.0543 9.77346C20.0842 10.5292 20.0701 9.558 20.0704 9.35934C20.0705 9.34844 20.0814 9.34471 20.0816 9.24727C20.0816 9.23903 20.0742 9.25088 20.0737 9.16033C20.0683 8.30151 20.0767 8.85065 20.0839 8.68749C20.087 8.61802 20.0766 8.20039 20.0764 8.08791C20.0763 8.06204 20.084 8.07394 20.0837 7.97387C20.0831 7.79683 20.075 7.63821 20.0743 7.52136C20.0743 7.50772 20.0864 7.50716 20.0825 7.28565C20.0814 7.22337 20.0771 7.15344 20.0736 7.24189C20.0622 7.53525 20.0819 8.0917 20.0706 8.42327C20.0602 8.72562 20.0592 7.77222 20.0591 7.72263C20.0591 7.70443 20.0651 7.89063 20.0663 7.70146C20.0673 7.53992 20.0464 7.24468 20.051 7.00393C20.0513 6.98557 20.069 6.79322 20.07 6.80209C20.0708 6.81014 20.0746 7.10555 20.0797 7.06264C20.0803 7.05752 20.0802 6.86979 20.084 6.84528C20.0886 6.81527 20.1341 6.73435 20.1353 6.69426C20.1381 6.59138 20.1277 6.65833 20.1284 6.59178C20.1299 6.44908 20.1434 5.95411 20.1276 5.938C20.1267 6.01977 20.1257 6.10154 20.1248 6.18331C20.1232 5.72836 20.1165 5.92229 20.1135 5.85784C20.1103 5.78843 20.1242 5.80795 20.1255 5.65459C20.1258 5.62122 20.1229 4.97954 20.1171 4.99121C20.1263 5.34607 20.1092 5.2145 20.1089 5.23087C20.1078 5.29305 20.1174 5.37245 20.1172 5.45586C20.1157 6.04255 20.1005 5.45088 20.0966 5.58938C20.0953 5.63705 20.1035 5.73203 20.1031 5.75226C20.1017 5.81799 20.091 5.81907 20.0919 5.86292C20.0939 5.96524 20.1091 5.84578 20.1099 5.85388C20.1194 5.94531 20.1075 6.30361 20.091 6.08056C20.085 6.21445 20.1051 6.23015 20.0971 6.33631C20.0812 6.5474 20.0853 6.23117 20.0826 6.14549C20.0731 5.83813 20.0808 5.74696 20.0782 5.31189C20.0772 5.15521 20.0675 4.96962 20.0669 4.89693C20.0666 4.85113 20.1006 4.41875 20.0474 4.40603C20.0526 4.23794 20.0876 3.97424 20.086 3.80108C20.0845 3.64562 20.0657 3.69506 20.065 3.68055C20.0639 3.65831 20.0653 3.47032 20.0627 3.40673C20.0595 3.33222 20.0524 3.36941 20.0494 3.25118C20.0422 2.95698 20.0614 2.9647 20.0626 2.93446C20.077 2.58341 20.0497 2.73712 20.0475 2.65923C20.0455 2.58679 20.056 1.57064 20.0491 1.35675C20.053 1.44379 20.0568 1.53083 20.0607 1.61786C20.0726 1.46211 20.0531 1.29699 20.0746 1.29408C20.0399 1.26247 20.0631 0.940968 20.0622 0.844394C20.0618 0.806336 20.0559 0.809329 20.0557 0.761684C20.0553 0.695638 20.0556 0.600182 20.0561 0.5L20.4518 0.895658C20.2697 0.894791 20.072 0.89352 20.0069 0.895452C19.7122 0.90416 20.1253 0.916768 20.4518 0.924439L20.0273 0.5C20.0237 0.657076 20.0211 0.794111 20.0207 0.822658C20.0208 0.769322 20.0202 0.640654 20.0188 0.5L20.4518 0.933018C20.1286 0.936243 19.7421 0.943534 20.0608 0.955147C20.1315 0.957718 20.2568 0.942204 20.2965 0.941596C20.5653 0.937602 20.3539 0.951505 20.375 0.952827C20.3874 0.953567 20.4168 0.952436 20.4518 0.95071L20.0011 0.5C20.0043 0.566019 20.0097 0.652138 20.0087 0.682643C20.0081 0.698222 19.9956 0.597928 19.9953 0.854274C19.9905 0.804282 19.9891 0.66083 19.989 0.5L20.4518 0.96274C20.207 0.962823 19.922 0.959887 19.8649 0.961617C19.8312 0.96264 20.0423 0.988719 19.4257 0.963387C19.4328 0.965808 19.44 0.968229 19.4471 0.97065C19.1038 0.971647 18.7604 0.972644 18.417 0.973641C18.4544 0.968063 18.6472 0.956859 18.4043 0.959236C18.2646 0.960612 18.368 0.973036 18.3552 0.973397C18.2298 0.976817 16.0095 0.972682 15.5792 0.974068C15.4328 0.974518 15.0248 0.984503 14.9937 0.984689C14.8077 0.985688 14.149 0.979189 14.0176 0.980599C13.9355 0.981504 14.0135 0.99189 13.9402 0.991403C13.8721 0.990936 13.9427 0.980897 13.9225 0.980477C13.7548 0.97684 12.4814 0.990006 12.179 0.980538C12.3639 0.983381 13.2861 0.963324 13.2675 0.956245C13.2635 0.955275 13.0394 0.947638 12.9932 0.951362C12.9168 0.942671 12.6545 0.969134 12.5119 0.963936C12.4957 0.963346 12.5593 0.948502 12.3047 0.945808C12.217 0.944887 11.9873 0.956458 11.7562 0.943489C11.4216 0.94972 9.66232 0.93047 9.54162 0.946418C9.53805 0.94726 9.78578 0.952752 9.61841 0.959297C9.3959 0.967997 9.59572 0.938692 9.3364 0.936164C9.29732 0.935779 8.57582 0.938745 8.5522 0.940559C8.33368 0.957006 8.96414 0.963673 8.95531 0.965584C8.93332 0.970399 8.40948 0.973311 8.38819 0.972176C8.36792 0.970995 8.79514 0.949202 8.28177 0.957466C8.34058 0.96007 8.39939 0.962675 8.4582 0.965279C8.21676 0.970351 8.19375 0.955274 8.13526 0.954353C7.95343 0.951437 7.75672 0.974338 7.46539 0.946052C7.38836 0.938545 7.51625 0.930209 7.50661 0.929084C7.41406 0.91898 7.296 0.946008 7.15685 0.925849C7.14637 0.924345 7.47021 0.912268 6.9042 0.912237C6.94316 0.91417 6.98211 0.916103 7.02107 0.918036C6.94126 0.922351 6.36817 0.924915 6.29107 0.923895C6.06585 0.920914 6.26226 0.907039 6.03588 0.908697C6.18108 0.927712 5.49268 0.930194 5.53228 0.913824C5.43614 0.934383 4.85135 0.918524 4.57645 0.918036C4.403 0.917743 4.0492 0.926715 3.99409 0.925666C3.92696 0.92438 3.94736 0.910355 3.82613 0.907232C3.79156 0.906342 3.43068 0.916623 3.11392 0.902105C3.05253 0.899308 2.9236 0.875518 3.0377 0.869572C3.23301 0.859398 3.60247 0.878563 3.59776 0.864506C3.59222 0.849468 3.09458 0.858412 2.96063 0.856449C2.34224 0.847372 2.69933 0.831386 2.68343 0.826541C2.64219 0.814781 2.3043 0.815146 2.2902 0.814089C2.23177 0.809393 2.4712 0.800086 2.47482 0.792909C2.47918 0.783565 2.15349 0.7667 2.22753 0.76355C2.33352 0.759077 2.63283 0.773133 2.65181 0.772462C2.89884 0.763396 2.56023 0.741807 2.46691 0.7312C2.43862 0.727937 2.55134 0.722574 2.52789 0.721617C2.16984 0.707095 2.45241 0.751959 2.21426 0.748962C2.00179 0.746291 2.27517 0.732104 2.26705 0.731322C2.25656 0.730463 2.00252 0.729689 1.96275 0.724669C1.94315 0.722156 2.60345 0.69456 2.57588 0.682187C2.36519 0.684913 2.15451 0.68764 1.94383 0.690366C1.92732 0.674233 2.23035 0.686109 2.26169 0.684445C2.32479 0.681108 2.14884 0.672944 2.1564 0.667843C2.16045 0.664599 2.36694 0.653022 2.18039 0.64825C2.11627 0.646602 1.98172 0.657914 1.74821 0.646358C2.56087 0.631599 1.99771 0.622531 1.97375 0.616816C1.95029 0.611102 2.33826 0.597652 1.86733 0.600031C1.84691 0.568635 1.87748 0.590106 2.0113 0.584588C2.17523 0.577805 1.79636 0.567467 2.39549 0.57531C2.36141 0.560611 1.87984 0.561651 1.85435 0.560478C1.83233 0.559415 1.93937 0.552185 1.90121 0.549736C1.44975 0.521333 1.75983 0.534303 1.62908 0.516165C1.61745 0.514544 1.19076 0.50782 1.5156 0.505178C2.10742 0.500376 2.35476 0.521206 2.45421 0.476674C2.01646 0.45733 1.48607 0.486075 1.353 0.486562C1.14932 0.487264 1.36032 0.478182 1.33522 0.475636C1.3265 0.474814 1.15098 0.475564 1.14863 0.474843C1.02347 0.440878 1.92999 0.474279 2.21539 0.468373C2.13889 0.463286 2.06239 0.4582 1.98589 0.453113C2.08968 0.45291 2.19347 0.452707 2.29726 0.452503C1.80281 0.442278 2.27982 0.448632 2.40312 0.42113C2.43079 0.41495 2.10596 0.425548 2.47651 0.408373C2.20321 0.404408 2.29038 0.398789 2.04292 0.406542C2.0493 0.395518 2.60609 0.383083 2.8257 0.377427C2.04987 0.365039 2.4923 0.405473 1.8216 0.38408C1.69723 0.39773 2.01736 0.395072 1.99126 0.397325C1.8976 0.405426 1.67803 0.392563 1.41313 0.420947C1.37 0.425607 1.55251 0.439951 1.28243 0.439258C1.25256 0.43916 1.08047 0.426902 1.08285 0.426013C1.10567 0.416412 1.27596 0.42001 1.28299 0.416003C1.28959 0.412209 1.0996 0.414491 1.09894 0.413439C1.0931 0.401412 1.25747 0.408842 1.23359 0.405077C1.18204 0.396888 0.498634 0.371006 1.39055 0.378587C0.649718 0.392185 1.2957 0.391867 1.5842 0.386644C1.65777 0.385334 1.6764 0.37815 1.78123 0.375657C1.91608 0.372428 2.07391 0.375877 2.14369 0.374558C2.21874 0.373105 1.79233 0.356124 2.40904 0.361191C2.09518 0.3443 1.54078 0.362308 1.23247 0.350448C0.610435 0.326482 1.66617 0.321337 1.77615 0.319014C1.80545 0.318385 1.70722 0.308683 1.72675 0.308088C1.75869 0.307177 2.35787 0.311662 2.41695 0.303633C2.47587 0.295611 2.19748 0.304002 2.17898 0.295637C2.16643 0.290005 2.88925 0.280015 2.49796 0.276166C2.22827 0.273527 1.73116 0.296163 1.64743 0.271832C2.04404 0.269818 2.44066 0.267804 2.83727 0.265789C2.6202 0.256532 2.40312 0.247275 2.18604 0.238017C2.63119 0.235082 3.01603 0.245533 3.43883 0.23228C2.42287 0.202616 3.7687 0.208606 3.78351 0.204996C3.78846 0.202837 3.38856 0.178759 3.32422 0.174355C3.67857 0.165093 4.75531 0.160567 4.12536 0.130836C4.2397 0.137549 4.51659 0.120978 4.51294 0.119727C4.47778 0.106592 3.87386 0.115109 3.97236 0.103247C4.0865 0.0894802 4.24644 0.108156 4.42204 0.106665C5.32312 0.0988893 5.07591 0.0303215 5.97943 0.0411716C5.96145 0.0387301 5.94348 0.0362886 5.92551 0.0338471C6.90759 0.0377331 7.88967 0.0416192 8.87175 0.0455052C9.25599 0.0245659 10.2786 0.0118153 10.7809 0.014132C10.882 0.0145831 11.3786 0.0255726 11.416 0.0274992C11.4854 0.0311916 11.1039 0.0326005 11.2763 0.0395236C11.3127 0.0409446 12.1533 0.0455621 12.0932 0.0338471C11.999 0.0324888 11.7042 0.0383776 11.656 0.0356172C11.317 0.0159144 13.9087 0.0316548 14.0371 0.0237148C13.9797 0.0199102 13.9223 0.0161055 13.8649 0.0123008C14.0284 0.0141727 14.1919 0.0160445 14.3555 0.0179163ZM6.84069 0.958809C6.74254 0.970564 6.49655 0.961735 6.3512 0.965035C6.15038 0.969655 5.80902 1.01492 5.956 0.969552C6.25089 0.965971 6.54579 0.96239 6.84069 0.958809ZM11.1507 0.976327C10.9529 0.970013 11.1063 0.944674 11.2684 0.955208C11.2864 0.956405 11.4182 0.984825 11.1507 0.976327ZM9.07754 0.964302C9.08586 0.963967 9.25675 0.964637 9.26272 0.965035C9.41597 0.975208 8.90075 0.973129 9.07754 0.964302ZM19.0923 0.951301C18.8744 0.952395 19.0322 0.97543 19.1677 0.96595C19.1762 0.965348 19.1066 0.951248 19.0923 0.951301ZM18.9373 0.950691C18.7681 0.930064 18.4273 0.971869 18.6982 0.967659C18.7245 0.967234 18.9451 0.951695 18.9373 0.950691ZM10.4458 0.966255C10.468 0.95835 10.672 0.962167 10.7591 0.964058C10.7568 0.971276 10.5312 0.965372 10.4458 0.966255ZM15.6176 0.964058C15.6263 0.957843 14.9173 0.958186 14.869 0.966378C14.9809 0.962902 15.6094 0.969643 15.6176 0.964058ZM17.4358 0.95533C17.4178 0.954255 17.1729 0.955889 17.1801 0.961372C17.2996 0.968566 17.5167 0.960193 17.4358 0.95533ZM19.9961 1.09789C19.9975 1.11118 20.0324 0.927764 20.0094 1.36239C20.006 1.4262 19.9969 1.1983 19.9957 1.22097C19.9932 1.26846 19.9921 1.30599 19.9919 1.33614C19.989 1.13372 19.9876 0.92345 19.9897 0.90311C19.9997 0.807591 19.9955 1.092 19.9961 1.09789ZM20.0221 2.99515C20.0278 3.03686 20.0247 3.3032 20.0224 3.36382C20.022 3.37423 20.007 3.32886 20.0081 3.44879C20.009 3.54508 20.0244 3.40124 20.0219 3.5888C20.0194 3.77836 20.0085 3.52511 20.0077 3.54166C20.0067 3.56385 20.0136 3.85706 20.0047 3.84794C19.9981 3.84114 20.0026 3.52703 20.0012 3.44935C19.9993 3.34989 19.9884 3.47049 19.9907 3.30426C19.9922 3.1998 20.0115 3.25771 20.0125 3.23566C20.0133 3.21717 20.0022 2.85205 20.022 2.99571C20.022 2.99553 20.0221 2.99534 20.0221 2.99515ZM19.9927 1.3909C19.9921 1.37567 19.9917 1.35778 19.9919 1.33614C19.9921 1.35451 19.9924 1.37281 19.9927 1.3909ZM7.41204 0.950325C7.51483 0.956289 7.20973 0.963936 7.09418 0.956123C7.09218 0.949822 7.39567 0.949396 7.41204 0.950325ZM20.0085 1.57863C20.0036 1.87932 19.997 1.65815 19.9927 1.3909C19.9964 1.47576 20.0101 1.47766 20.0085 1.57863ZM12.9932 0.951362C13.0058 0.952805 13.0139 0.955053 13.0149 0.958748C12.9816 0.954707 12.9786 0.952537 12.9932 0.951362ZM13.6946 0.957954C13.9351 0.946701 13.4465 0.947155 13.4496 0.955208C13.4511 0.958248 13.685 0.958402 13.6946 0.957954ZM19.3717 0.9524C19.3498 0.951299 19.6915 0.917316 19.1953 0.942817C19.4601 0.946822 19.1807 0.950523 19.1849 0.953499C19.1957 0.962052 19.6405 0.95383 19.739 0.957527C19.8161 0.942223 19.4444 0.956028 19.3723 0.9524C19.3721 0.9524 19.3719 0.9524 19.3717 0.9524ZM20.0138 6.41451C20.0049 6.35423 20.0078 6.16302 20.0083 6.03398C20.0173 6.09426 20.0144 6.28548 20.0138 6.41451ZM0.890998 14.8201C0.899289 15.7043 0.86277 15.8188 0.877204 15.0098C0.877507 14.994 0.887296 14.7665 0.890998 14.8201ZM5.35983 17.0702C5.44315 17.0862 5.16743 17.0887 4.98637 17.0821C4.94539 17.0807 4.79388 17.0645 4.96689 17.0614C4.96137 17.0807 5.22891 17.0881 5.35983 17.0702ZM20.0187 1.74856C20.0293 1.83613 20.0217 2.10564 20.0201 2.24765C20.0114 2.16099 20.0153 1.87414 20.0187 1.74856ZM0.677234 17.0798C0.770422 17.081 0.833342 17.0672 0.817249 17.066C0.745225 17.0607 0.571043 17.0719 0.677234 17.0798ZM20.0203 0.878551C20.0267 0.86623 20.0328 1.22321 20.0171 1.24807C20.0182 1.17175 20.0163 0.887397 20.0203 0.878551ZM20.0186 6.17118C20.0218 6.11576 20.0276 6.40278 20.0244 6.4896C20.0177 6.48261 20.0165 6.20751 20.0186 6.17118ZM2.1776 17.0751C2.26106 17.0763 2.46954 17.0767 2.49263 17.0711C2.52131 17.0641 2.21559 17.0665 2.1776 17.0751ZM0.864569 3.69826C0.867084 3.68773 0.885208 4.01063 0.880622 4.15416C0.871846 4.42673 0.862793 3.70968 0.864569 3.69826ZM0.864813 16.8433C0.877983 16.5801 0.865228 16.8723 0.879096 16.8608C0.879595 16.6837 0.880279 16.2432 0.866644 16.5461C0.864006 16.605 0.865711 16.7607 0.864813 16.8433ZM0.860174 17.0861C0.864667 17.1143 0.878829 17.304 0.877814 17.14C0.877324 17.0642 0.861587 16.942 0.860174 17.0861ZM0.870734 5.69884C0.858457 5.93472 0.865044 4.85341 0.867194 4.82233C0.868329 4.80591 0.8694 4.79515 0.870306 4.78902C0.866416 4.74931 0.865714 4.54507 0.875556 4.52141C0.874743 4.58266 0.875609 4.74985 0.874518 4.76926C0.874054 4.77764 0.873618 4.78388 0.873175 4.78818C0.881718 4.86024 0.873061 5.65363 0.870734 5.69884ZM0.858099 7.49052C0.839988 7.22062 0.87078 7.17283 0.871771 7.1961C0.884374 7.48994 0.861665 7.2983 0.860601 7.30732C0.858832 7.32784 0.869369 7.53657 0.858099 7.48968C0.858099 7.48996 0.858099 7.49024 0.858099 7.49052ZM0.865668 6.0661C0.865266 6.055 0.866219 5.82841 0.866705 5.81909C0.877054 5.63337 0.874404 6.27457 0.865668 6.0661ZM20.0436 4.42522C20.0406 4.58746 20.0292 4.42832 20.0333 4.32049C20.0337 4.31164 20.0463 4.2821 20.0436 4.42522ZM0.863226 17.2156C0.862495 17.2285 0.861074 17.349 0.860198 17.5L0.451782 17.0916C0.743066 17.0933 1.1475 17.0929 1.10942 17.0817C1.06483 17.0828 0.718967 17.0806 0.451782 17.0807L0.871075 17.5C0.871019 17.2775 0.869444 17.1096 0.863226 17.2156ZM7.35815 17.0927C7.18847 17.0926 7.37347 17.0764 7.46401 17.0825C7.49758 17.0847 7.40092 17.0927 7.35815 17.0927ZM20.349 0.916815C20.1729 0.925681 20.2093 0.895939 20.362 0.906134C20.368 0.906533 20.3559 0.916469 20.349 0.916815ZM6.0026 17.0834C6.58778 17.0737 6.4492 17.1248 5.68842 17.1075C5.71222 17.1053 5.73603 17.103 5.75984 17.1007C4.88172 17.093 5.69978 17.0971 5.91481 17.0942C5.99652 17.0931 5.92801 17.0846 6.00204 17.0834C6.00223 17.0834 6.00242 17.0834 6.0026 17.0834ZM8.25047 17.0937C8.81402 17.13 7.73816 17.1063 7.42957 17.1111C7.72871 17.0961 8.11822 17.0984 7.5885 17.083C8.363 17.08 8.04058 17.0945 8.07149 17.0957C8.10809 17.097 8.22644 17.0921 8.25047 17.0937ZM6.76394 17.0939C6.73137 17.095 6.48593 17.0876 6.39752 17.0888C6.52115 17.0764 6.98021 17.0867 6.76394 17.0939ZM0.866522 9.36887C0.856803 9.34849 0.849644 9.29809 0.853277 9.10437C0.85816 9.16421 0.862361 9.28794 0.866522 9.36887ZM6.65438 0.90766C6.52098 0.906963 6.25534 0.9033 6.3368 0.913519C6.34572 0.91439 6.65397 0.913395 6.65438 0.90766ZM2.96208 17.0964C2.99046 17.0976 3.72419 17.0984 3.47076 17.0877C3.39432 17.0845 2.72672 17.0858 2.96208 17.0964ZM0.856573 16.2107C0.856471 16.2721 0.858302 16.5216 0.860601 16.5269C0.868548 16.5437 0.864179 16.2375 0.856573 16.2107ZM5.9814 0.89771C5.96384 0.896702 5.55637 0.898488 5.60116 0.903204C5.68618 0.912121 6.04162 0.901184 5.9814 0.89771ZM20.0664 5.01549C20.0668 5.04955 20.0562 5.0946 20.0561 5.10638C20.0559 5.13408 20.06 5.75759 20.0464 5.51937C20.0442 5.47963 20.0494 4.58255 20.0507 4.46587C20.0652 4.42075 20.0514 4.80396 20.0529 4.89721C20.0532 4.91363 20.0653 4.92416 20.0663 5.0152C20.0664 5.0153 20.0664 5.01539 20.0664 5.01549ZM0.856268 8.35969C0.847054 8.33218 0.840953 7.59917 0.852117 7.60767C0.853501 7.85835 0.854884 8.10902 0.856268 8.35969ZM0.854742 8.73203C0.848224 8.88843 0.846068 8.52214 0.848943 8.41417C0.855142 8.41303 0.855695 8.70924 0.854742 8.73203ZM0.552744 17.1296C0.609876 17.1279 0.4864 17.1194 0.451782 17.1145L0.837314 17.5C0.838742 17.49 0.839873 17.4874 0.840459 17.4988C0.840479 17.4992 0.840497 17.4996 0.840515 17.5L0.451782 17.1113C0.486962 17.1098 0.648241 17.1147 0.7001 17.1105C0.714988 17.1092 0.547105 17.0966 0.498544 17.0971C0.443569 17.0977 0.474913 17.1041 0.451782 17.1067L0.84504 17.5C0.844373 17.4941 0.843952 17.4847 0.843938 17.4694C0.843724 17.2195 0.850818 16.998 0.850652 16.7637C0.850618 16.7425 0.843595 16.9066 0.843694 16.7262C0.843696 16.6983 0.854157 16.5307 0.852606 16.3149C0.820209 15.8381 0.852018 15.4881 0.840337 14.8831C0.837286 14.9059 0.829103 15.3584 0.828801 15.385C0.823473 15.8907 0.822888 16.7966 0.822819 17.3263C0.822791 17.4622 0.829648 17.3962 0.8299 17.4547C0.830017 17.4841 0.824948 17.4727 0.822443 17.5L0.451782 17.1293C0.46752 17.1308 0.496111 17.1314 0.552744 17.1296ZM6.72523 0.90064C6.66165 0.887958 6.43861 0.895985 6.29615 0.89533C6.3463 0.906769 6.58602 0.89783 6.72523 0.90064ZM0.844915 12.0229C0.845404 12.0944 0.841585 12.3157 0.845403 12.334C0.850389 12.3576 0.853534 12.0381 0.844915 12.0229ZM20.0628 8.53111C20.0631 8.538 20.0625 8.70979 20.0621 8.71629C20.0519 8.86977 20.054 8.35451 20.0628 8.53111ZM20.0604 12.6404C20.0619 12.7706 20.0659 12.902 20.0556 12.9458C20.0572 12.8628 20.0532 12.6251 20.0604 12.6404ZM19.6422 17.1089C19.6691 17.1224 19.277 17.1136 19.203 17.1124C19.2304 17.1064 19.6225 17.0992 19.6422 17.1089ZM0.824223 9.3971C0.82502 9.1574 0.804609 9.20801 0.813847 9.05581C0.815408 9.03097 0.857909 8.9507 0.841985 9.21418C0.839122 9.2616 0.829022 9.0761 0.824223 9.3971ZM5.56449 17.1071C5.50353 17.116 5.313 17.1134 5.18425 17.1127C5.21312 17.106 5.47289 17.1077 5.56449 17.1071ZM5.24548 0.887517C5.13306 0.874933 4.61362 0.884268 4.74216 0.892583C4.76043 0.893668 5.17261 0.887042 5.24548 0.887517ZM20.0593 2.35802C20.0692 2.57174 20.0723 2.12908 20.0626 1.98936C20.0633 2.05262 20.0587 2.34362 20.0593 2.35802ZM20.068 16.9478C20.0684 16.9581 20.0674 17.1847 20.0669 17.1948C20.0566 17.3805 20.0593 16.7393 20.068 16.9478ZM20.0767 11.2891C20.0849 11.3707 20.0783 11.9075 20.0701 12.0278C20.0582 11.912 20.0665 11.1877 20.0767 11.2891ZM0.830022 10.3834C0.829599 10.2124 0.832111 10.0502 0.835637 9.89308C0.842503 9.92613 0.83515 10.3653 0.830022 10.3834ZM20.1721 17.1171C20.1599 17.117 20.1481 17.1162 20.1365 17.1161C20.1486 17.1164 20.1605 17.1168 20.1721 17.1171ZM0.8252 14.211C0.822488 14.3543 0.835069 14.3245 0.835454 14.3157C0.839528 14.2079 0.828261 14.0487 0.8252 14.211ZM6.56151 0.881963C6.51182 0.870609 6.2708 0.879415 6.13214 0.876714C6.17237 0.88568 6.44982 0.883154 6.56151 0.881963ZM8.854 17.1169C9.03406 17.1292 8.30151 17.1435 8.14715 17.1356C8.13575 17.128 8.82764 17.1153 8.854 17.1169ZM20.0764 1.69436C20.0852 1.67999 20.0745 1.37242 20.0703 1.43776C20.0676 1.47915 20.0708 1.70297 20.0764 1.69436ZM7.77876 17.1304C7.70994 17.1331 7.54951 17.1244 7.606 17.119C7.67851 17.1122 7.79655 17.1297 7.77876 17.1304ZM1.6037 17.1376C1.63381 17.1389 2.03849 17.1298 1.87131 17.1207C1.7553 17.1144 1.73683 17.1273 1.70956 17.1273C1.67908 17.1273 1.02941 17.1115 1.6037 17.1376ZM12.9568 17.1247C12.8041 17.1281 12.6195 17.1241 12.4597 17.1244C12.5248 17.1189 12.8918 17.1174 12.9568 17.1247ZM20.0787 2.88054C20.0823 2.84346 20.0845 1.83328 20.0734 2.40714C20.0728 2.44061 20.0678 2.99317 20.0787 2.88054ZM0.824223 9.3971C0.824123 9.42733 0.823698 9.46222 0.822819 9.50268C0.823165 9.4625 0.823768 9.42754 0.824223 9.3971ZM0.82288 12.1195C0.816404 12.0643 0.814673 12.3423 0.818119 12.4244C0.826032 12.4496 0.823786 12.1271 0.82288 12.1195ZM12.4475 17.1334C12.3555 17.1371 12.1883 17.1332 12.0743 17.1336C12.0936 17.1276 12.4077 17.1273 12.4475 17.1334ZM18.9133 17.1402C18.7305 17.1366 18.5055 17.1383 18.502 17.1456C18.4983 17.1445 18.4894 17.1433 18.4747 17.142C18.4598 17.1408 18.2639 17.1442 18.1788 17.1417C17.6694 17.1268 20.1462 17.1329 18.7107 17.1537C18.7782 17.1492 18.8458 17.1447 18.9133 17.1402ZM20.0941 10.5627C20.103 10.459 20.0918 10.1683 20.0883 10.2437C20.0858 10.2963 20.085 10.6666 20.0941 10.5627ZM20.0994 14.556C20.101 14.525 20.0947 14.2412 20.09 14.2339C20.085 14.397 20.0919 14.6973 20.0994 14.556ZM20.1045 9.76499C20.1059 9.69987 20.0914 9.61675 20.0908 9.62441C20.0855 9.6906 20.0965 9.87438 20.1045 9.76499ZM0.785281 9.89364C0.781142 9.99056 0.791605 10.2995 0.801151 10.3668C0.799305 10.3793 0.796898 10.413 0.79401 10.4749C0.79401 10.4747 0.79401 10.4745 0.79401 10.4743C0.790154 10.5578 0.785941 13.0547 0.804325 11.3799C0.804914 11.3274 0.796345 11.3991 0.797855 11.1857C0.797965 11.1716 0.804961 11.1646 0.805302 11.121C0.806041 11.0208 0.810443 10.487 0.804813 10.3797C0.80611 10.3788 0.807344 10.3719 0.808475 10.3572C0.818565 10.2256 0.788473 9.81845 0.785281 9.89364ZM20.1006 15.1186C20.1032 15.0615 20.1008 14.8807 20.0946 14.862C20.0916 14.9516 20.0946 15.2511 20.1006 15.1186ZM20.1041 2.84921C20.1091 2.73285 20.0996 2.438 20.0946 2.52712C20.0915 2.58176 20.0982 2.98339 20.1041 2.84921ZM20.0973 13.308C20.09 13.9751 20.0979 13.4672 20.107 13.5694C20.1038 13.4823 20.1006 13.3951 20.0973 13.308ZM0.808659 6.80598C0.806575 6.91235 0.788711 6.78733 0.798404 6.67019C0.801483 6.63343 0.809791 6.74646 0.808659 6.80598ZM0.803104 2.00227C0.787263 2.09308 0.796571 1.64962 0.807438 1.82246C0.807804 1.83048 0.803707 1.99578 0.803104 2.00227ZM0.796634 5.35896C0.80742 5.43117 0.808699 5.47819 0.806034 5.68162C0.802995 5.38048 0.793456 5.65977 0.796634 5.35896ZM18.504 17.1468C18.5029 17.1464 18.5019 17.146 18.502 17.1456C18.5034 17.146 18.5039 17.1464 18.504 17.1468ZM20.1017 9.13774C20.1109 9.05424 20.1102 8.82017 20.101 8.88989C20.1002 8.89663 20.095 9.10352 20.1017 9.13774ZM0.801151 10.3668C0.802788 10.3557 0.803846 10.3613 0.804813 10.3797C0.803593 10.3806 0.80244 10.3758 0.801151 10.3668ZM20.1092 10.3945C20.1024 10.3861 20.0997 10.7424 20.1005 10.7567C20.1123 10.9611 20.1096 10.5416 20.1092 10.3945ZM20.4456 0.838138C20.4415 0.838297 20.4442 0.839305 20.4518 0.840694L20.1111 0.5C20.1063 0.526217 20.0969 0.610185 20.1022 0.666553C20.1074 0.721166 20.1158 0.571711 20.1139 0.5L20.4518 0.837931C20.4496 0.837991 20.4476 0.838059 20.4456 0.838138ZM0.792239 4.66821C0.792251 4.55541 0.792243 4.39658 0.800602 4.36729C0.799319 4.44287 0.798373 4.67054 0.792239 4.66821ZM0.791629 2.17588C0.801455 2.30921 0.801428 2.61375 0.799808 2.80821C0.786874 2.81179 0.794671 2.30101 0.791629 2.17588ZM0.790103 9.58764C0.789577 9.5969 0.785718 9.87978 0.794376 9.84114C0.807072 9.7847 0.794812 9.50784 0.790103 9.58764ZM20.1043 1.04313C20.1103 1.16962 20.1286 0.878505 20.1144 0.745029C20.1072 0.676488 20.1033 1.0218 20.1043 1.04313ZM20.1137 8.4069C20.1087 8.23995 20.0998 8.6537 20.1088 8.71149C20.1095 8.6346 20.1155 8.4662 20.1137 8.4069ZM20.1229 14.0868C20.149 13.5608 20.1013 13.8473 20.1055 13.9406C20.1061 13.9538 20.1222 14.0997 20.1229 14.0868ZM3.94018 0.83533C3.8657 0.838958 4.14334 0.8521 4.17927 0.843448C4.20147 0.838034 3.9878 0.833018 3.94018 0.83533ZM15.9437 17.1541C15.9659 17.154 15.9879 17.1539 16.0097 17.1539C15.9934 17.1543 15.9719 17.1544 15.9437 17.1541ZM20.1487 6.89157C20.1118 7.26188 20.1402 7.223 20.1401 7.25516C20.1397 7.3247 20.1297 7.4863 20.1313 7.61734C20.1272 7.46726 20.123 7.31717 20.1189 7.16709C20.1162 7.28564 20.1027 8.31558 20.1086 8.33717C20.1172 8.36809 20.1145 8.04401 20.1152 8.03456C20.1163 8.02096 20.14 7.97034 20.1409 7.94028C20.1423 7.89082 20.1428 7.0296 20.1487 6.89157ZM20.1188 12.9867C20.116 13.0713 20.1066 13.0954 20.1088 13.1347C20.1096 13.148 20.1185 13.1502 20.1208 13.1959C20.1202 13.1262 20.1195 13.0565 20.1188 12.9867ZM20.1155 6.22848C20.1265 6.12365 20.1223 6.59365 20.1211 6.60872C20.1137 6.68912 20.1066 6.31414 20.1155 6.22848ZM20.1171 10.2166C20.1178 10.1995 20.1212 9.83858 20.1151 9.84149C20.1105 9.93697 20.1091 10.4195 20.1171 10.2166ZM20.1215 13.2524C20.1204 13.3792 20.1114 13.6189 20.1249 13.5914C20.1249 13.5912 20.1249 13.591 20.1249 13.5908C20.1237 13.478 20.1226 13.3652 20.1215 13.2524ZM20.1327 1.47616C20.1542 1.24116 20.1271 1.35249 20.1202 1.56056C20.1298 1.62359 20.1293 1.51468 20.1327 1.47616ZM20.1487 0.72414C20.1501 0.701851 20.1504 0.60884 20.1499 0.5L20.4518 0.801876C20.2414 0.802893 19.9719 0.807281 20.0396 0.81476C20.0708 0.81821 20.3571 0.811301 20.4518 0.809677L20.1421 0.5C20.1424 0.516366 20.1425 0.527015 20.1424 0.529643C20.1412 0.556698 20.1287 0.43312 20.1312 0.639735C20.1354 0.627652 20.1475 0.746531 20.1487 0.72414ZM20.1465 1.28166C20.1628 1.04814 20.1327 0.99567 20.1326 1.17128C20.1326 1.23991 20.1441 1.31497 20.1465 1.28166ZM20.1439 2.23551C20.1468 2.15148 20.1509 1.92768 20.1409 1.77341C20.1401 1.97985 20.1392 2.1863 20.1384 2.39275C20.144 2.41655 20.1414 2.30902 20.1439 2.23495C20.1439 2.23513 20.1439 2.23532 20.1439 2.23551ZM0.714539 0.772627C0.706007 0.958166 0.702738 0.53072 0.704834 0.512638C0.711792 0.458957 0.718349 0.689674 0.714539 0.772627ZM2.49091 0.562004C2.43935 0.558603 2.40565 0.547413 2.29218 0.553276C2.40631 0.561536 2.52045 0.569797 2.63459 0.578057C2.72329 0.55913 2.54726 0.565756 2.49091 0.562004ZM2.05505 0.492849C2.07118 0.49239 1.9831 0.463286 2.1914 0.482717C2.33214 0.495836 1.56681 0.508623 1.42866 0.495718C1.5813 0.489721 1.91626 0.496585 2.05505 0.492849ZM0.714466 0.366868C0.705642 0.364547 0.996409 0.361142 1.03006 0.362778C1.20678 0.371403 0.762209 0.379302 0.714466 0.366868ZM1.64207 0.372422C1.5057 0.36677 1.80779 0.363127 1.89782 0.366379C1.90655 0.371796 1.66313 0.373245 1.64207 0.372422ZM0.293014 2.65154C0.273234 2.79909 0.315815 2.93109 0.307236 2.70404C0.306832 2.69321 0.293983 2.64525 0.293014 2.65154ZM0.998731 0.337508C1.13509 0.34316 0.833006 0.346804 0.742977 0.343551C0.734605 0.33814 0.977968 0.336682 0.998731 0.337508ZM0.245893 2.75542C0.231659 2.95139 0.279431 2.88238 0.281356 2.85789C0.288958 2.75701 0.270208 2.41112 0.265547 2.34046C0.272716 2.85818 0.2526 2.66314 0.245893 2.75542ZM0.274581 3.65931C0.279677 3.84111 0.289424 3.37648 0.276107 3.28782C0.276744 3.37818 0.273108 3.6076 0.274581 3.65931ZM0.25926 4.76277C0.257549 4.86053 0.253453 5.15127 0.260969 5.20004C0.259609 5.09332 0.266995 4.80402 0.25926 4.76277ZM0.236737 4.98409C0.226524 5.13689 0.256282 5.17354 0.247419 4.99735C0.247076 4.99051 0.237305 4.97848 0.236737 4.98409ZM0.225995 5.84309C0.214161 5.94334 0.24298 6.05776 0.243757 5.89531C0.243934 5.84706 0.227352 5.83248 0.225995 5.84309ZM0.1945 3.00073C0.189418 3.14427 0.210056 3.32921 0.212322 3.02275C0.215476 3.13039 0.21863 3.23804 0.221783 3.34568C0.233351 2.94425 0.20473 2.97371 0.205914 2.85845C0.207595 2.69739 0.231213 2.71009 0.23863 2.74243C0.22416 2.61038 0.223928 2.04932 0.221173 1.72507C0.2151 2.01005 0.204573 2.4725 0.200725 2.75373C0.199612 2.83402 0.206089 2.91194 0.205364 2.9804C0.204168 3.09017 0.194842 2.99268 0.1945 3.00016C0.1945 3.00035 0.1945 3.00054 0.1945 3.00073ZM0.225568 6.97224C0.212162 7.26688 0.241106 7.08056 0.235944 6.91409C0.235547 6.90697 0.225895 6.96492 0.225568 6.97224ZM0.608044 0.249554C1.00168 0.261652 0.715555 0.277686 1.53903 0.253338C1.19307 0.270575 1.5199 0.265734 1.45237 0.272687C1.39819 0.278187 1.19521 0.273632 1.3132 0.284711C1.15811 0.272652 0.484779 0.275988 0.454761 0.27403C0.455043 0.27403 0.455326 0.27403 0.455608 0.27403C0.437579 0.27287 0.482435 0.245706 0.608044 0.249554ZM0.183574 4.76418C0.148455 4.86245 0.204196 4.901 0.17509 5.09418C0.217357 5.35139 0.175096 4.38368 0.210797 4.26651C0.206648 5.31746 0.246172 3.57216 0.192729 4.30575C0.212126 3.70141 0.186111 4.10771 0.179301 4.01443C0.172047 3.91463 0.179931 3.57279 0.16685 3.59015C0.16685 3.59033 0.16685 3.59052 0.16685 3.59071C0.167765 3.79979 0.168681 4.00887 0.169596 4.21795C0.197814 4.0133 0.189353 4.44057 0.166361 4.58549C0.172099 4.64506 0.177836 4.70462 0.183574 4.76418ZM0.210064 3.58083C0.209418 3.60143 0.213373 4.05621 0.219037 4.02685C0.222649 3.96611 0.218318 3.32069 0.210064 3.58083ZM0.203899 1.57941C0.203831 1.74269 0.198326 1.99517 0.208965 2.08414C0.209037 1.92082 0.214545 1.6683 0.203899 1.57941ZM0.201885 9.98736C0.210616 10.1955 0.213203 9.5547 0.202862 9.74008C0.202375 9.74921 0.201477 9.97714 0.201885 9.98736ZM0.188884 5.23758C0.178151 5.44919 0.212313 5.34918 0.203411 5.19241C0.202886 5.18334 0.189374 5.22781 0.188884 5.23758ZM0.927029 0.245403C0.941184 0.237033 1.51232 0.242912 1.61355 0.242839C1.55603 0.250619 0.910791 0.254998 0.927029 0.245403ZM0.172587 1.29204C0.142491 1.61693 0.177253 2.05781 0.176493 2.10616C0.175719 2.15423 0.162564 2.07882 0.162211 2.08978C0.161473 2.11477 0.162577 2.62676 0.163493 2.65154C0.164207 2.66927 0.182694 2.57663 0.188518 2.68231C0.178013 2.47617 0.184585 1.54016 0.182536 1.49162C0.1809 1.45398 0.161486 1.73762 0.172587 1.2926C0.172587 1.29241 0.172587 1.29223 0.172587 1.29204ZM0.172465 2.22698C0.180215 2.09907 0.181184 2.45775 0.178325 2.54455C0.171925 2.73742 0.171547 2.24338 0.172465 2.22698ZM0.165324 3.08965C0.163585 3.13061 0.162007 3.50028 0.170634 3.53171C0.181826 3.35673 0.169374 2.99673 0.165324 3.08965ZM0.166483 7.20315C0.167589 7.29917 0.160959 7.56318 0.168498 7.57832C0.167398 7.48221 0.174023 7.21824 0.166483 7.20315ZM2.87567 0.179605C2.71616 0.173296 3.08571 0.17072 3.19352 0.173745C3.19937 0.178774 2.88925 0.180146 2.87567 0.179605ZM0.116799 5.27343C0.114506 5.33027 0.120227 6.49002 0.123757 6.65269C0.129458 6.49356 0.129897 5.34422 0.127114 5.29206C0.126281 5.27683 0.11716 5.26618 0.116799 5.27343ZM0.11332 2.7653C0.102218 2.65897 0.115533 2.58958 0.1157 2.57617C0.117399 2.44468 0.114896 2.17198 0.125588 2.23177C0.121274 2.46382 0.135366 2.97698 0.11332 2.7653ZM0.11625 7.28558C0.120369 7.67939 0.132065 6.92298 0.120461 7.02221C0.11976 7.0286 0.115817 7.24486 0.11625 7.28558ZM0.113564 5.14386C0.104593 5.057 0.11233 3.89691 0.112343 3.71068C0.128889 3.87751 0.116321 4.01195 0.117165 4.23602C0.117412 4.29648 0.124296 4.28034 0.124306 4.28683C0.124625 4.39153 0.116675 4.31317 0.116555 4.37773C0.1165 4.41851 0.126203 5.2661 0.113564 5.14386ZM0.105629 2.70461C0.099265 2.63975 0.0965522 1.9154 0.0982434 1.88625C0.110822 1.66826 0.107844 2.64832 0.105629 2.70461ZM0.0988538 5.25028C0.0796245 5.12555 0.0925024 4.54941 0.102089 4.94372C0.102961 4.98138 0.0946252 5.14084 0.0988538 5.25028ZM0.0979383 7.24352C0.0973727 7.2629 0.093529 7.67341 0.0996473 7.68079C0.102025 7.62146 0.104158 7.02304 0.0979383 7.24352ZM0.0772465 7.03068C0.0773933 7.04058 0.0891772 6.94432 0.087684 7.13682C0.0875434 7.15285 0.0742854 7.18278 0.0791387 7.42475C0.0801382 7.47385 0.0889089 7.54993 0.0894541 7.54444C0.11026 7.29246 0.0704109 6.53361 0.0772465 7.03068ZM0.0948864 2.69134C0.0892902 2.73038 0.0726803 2.63623 0.0810919 2.55132C0.084724 2.51493 0.0946922 2.58284 0.0948864 2.69134ZM0.092567 8.54543C0.0824936 8.30679 0.0805891 9.05603 0.0831672 9.0942C0.0894419 9.07015 0.0935508 8.5693 0.092567 8.54543ZM3.24913 0.101843C3.24894 0.101843 3.24876 0.101843 3.24857 0.101843C3.44934 0.104125 3.32498 0.112505 3.33438 0.112769C3.76203 0.125077 3.6486 0.106097 3.71547 0.103857C3.85887 0.0990127 3.83576 0.122094 4.07765 0.112524C3.67782 0.126656 4.04176 0.120732 4.05309 0.128943C4.0979 0.162454 3.52075 0.113252 3.3214 0.120276C3.29362 0.121249 3.4987 0.131944 3.42754 0.134986C3.19616 0.144845 2.47875 0.0931142 3.24913 0.101843ZM0.079627 2.48583C0.0697838 2.39272 0.0793309 1.68624 0.0874398 1.87355C0.0887399 1.90368 0.0939741 2.62272 0.079627 2.48583ZM18.4399 17.8867C18.2702 17.8952 18.6637 17.9052 18.7366 17.8986C18.7728 17.8953 18.5145 17.8829 18.4399 17.8867ZM20.8749 16.7528C20.8732 16.551 20.8377 16.3383 20.8432 16.5893C20.8438 16.616 20.87 16.7759 20.8749 16.7528ZM7.95068 17.9049C8.16135 17.9176 8.14881 17.894 7.99415 17.8943C7.93954 17.8944 7.94404 17.9045 7.95068 17.9049ZM15.9914 17.9018C16.0125 17.9026 16.256 17.9011 16.2471 17.8957C16.1571 17.8925 15.855 17.8962 15.9914 17.9018ZM7.88377 17.9082C8.00869 17.904 7.79369 17.8869 7.641 17.9036C7.71855 17.9022 7.87092 17.9087 7.88377 17.9082ZM0.0467278 5.68557C0.0564131 5.79017 0.0534866 6.0861 0.055151 6.25608C0.042603 6.2744 0.0490028 5.80702 0.0467278 5.68557ZM20.3426 17.9088C20.5336 17.9 20.1244 17.8928 20.1619 17.9044C20.1671 17.9051 20.335 17.9092 20.3426 17.9088ZM1.15374 17.9095C1.29257 17.902 0.851747 17.892 0.973073 17.9051C0.979055 17.9057 1.14612 17.9099 1.15374 17.9095ZM0.0466057 16.277C0.0440809 16.3823 0.0448577 16.8315 0.0521601 16.6567C0.0532823 16.6296 0.0534616 16.2849 0.0466057 16.277ZM3.72733 0.0948235C3.67057 0.0819337 4 0.0850019 4.04716 0.0872549C4.06569 0.0881918 3.80135 0.111594 3.72733 0.0948235ZM9.31893 17.9069C9.42793 17.9053 9.71064 17.9083 9.76043 17.9016C9.62708 17.903 9.28308 17.8934 9.31893 17.9069ZM19.4717 17.9089C19.638 17.9229 19.9222 17.9215 19.852 17.9032C19.5381 17.9044 19.8907 17.9197 19.4717 17.9089ZM7.18172 17.9233C7.26914 17.9244 7.33612 17.9068 7.32625 17.906C7.23154 17.8981 7.09487 17.9165 7.18172 17.9233ZM13.7413 17.9088C13.7463 17.9163 14.0265 17.9129 13.9891 17.9081C13.9768 17.9065 13.7372 17.9028 13.7413 17.9088ZM0.0424552 9.35532C0.0355998 9.48373 0.0288976 9.09161 0.0369008 8.97564C0.0484328 8.91926 0.0432426 9.3391 0.0424552 9.35532ZM4.75771 17.9189C4.74467 17.9301 5.18265 17.9238 5.01008 17.9145C4.96688 17.9122 4.76228 17.9152 4.75771 17.9189ZM0.564882 17.9323C0.665853 17.9277 0.586401 17.9236 0.451782 17.9208L0.0367075 17.9264L0.0309447 17.5C0.0362123 17.2429 0.0365408 16.7847 0.0256699 16.9974C0.0248007 17.0145 0.0212586 17.3265 0.019901 17.5L0.0258151 17.9376L0.451782 17.9319C0.513827 17.9324 0.558146 17.9326 0.564882 17.9323ZM0.0278062 15.5984C0.0263416 15.6491 -0.0111127 15.6238 0.00333017 15.4141C0.00520325 15.3865 0.0151042 15.5153 0.0173688 15.4928C0.0186594 15.4796 0.0239196 15.0235 0.0230453 15.0025C0.0220524 14.9799 0.0100479 15.0065 0.00870147 14.9836C0.00719658 14.9578 0.0177419 14.677 0.0178571 14.5299C0.0180548 14.2529 0.00806317 14.2229 0.00803006 14.2002C0.00796387 14.134 0.0150582 14.0228 0.0150494 13.8886C0.0149696 13.2122 0.00650024 12.1778 0.0276841 11.6416C0.0191772 12.1187 0.028203 12.5734 0.0309801 13.0482C0.0101239 12.9092 0.0470499 13.7467 0.0229842 13.2568C0.0282044 13.4824 0.032379 15.4323 0.0278062 15.5978C0.0278062 15.598 0.0278062 15.5982 0.0278062 15.5984ZM20.8854 15.9564C20.8982 16.0804 20.8953 15.4444 20.8805 15.3904C20.8785 15.4744 20.884 15.9411 20.8854 15.9564ZM19.0613 17.9648C19.0022 17.967 18.9461 17.992 18.6364 17.9793C18.6361 17.9793 18.6359 17.9793 18.6356 17.9793C18.545 17.9756 18.6482 17.9695 18.6316 17.9674C18.6256 17.9665 18.3431 17.9541 18.5777 17.9521C18.9354 17.949 18.6114 17.9706 18.8021 17.9709C18.8254 17.9709 19.1864 17.9574 19.1654 17.9544C19.1633 17.9541 19.0546 17.9569 19.0367 17.9557C18.969 17.9511 19.0019 17.9433 18.9924 17.9429C18.9611 17.9419 18.3903 17.9552 18.3073 17.9436C18.2803 17.9399 19.2173 17.9312 19.2538 17.9332C19.2769 17.9344 19.2671 17.9561 19.291 17.9582C19.3034 17.9593 19.6802 17.9512 19.7292 17.9532C19.7434 17.9537 19.7542 17.9543 19.7622 17.9549C19.7052 17.9482 20.0465 17.9486 20.036 17.9562C20.0301 17.9592 19.7951 17.9575 19.7867 17.9569C19.7831 17.9567 19.7799 17.9564 19.7769 17.9562C19.8255 17.9644 19.0301 17.964 19.2018 17.9762C18.9713 17.9828 19.2346 17.9583 19.0613 17.9648ZM17.953 17.9782C17.9768 17.9759 18.0006 17.9736 18.0244 17.9713C17.6208 17.9769 17.155 17.966 16.69 17.966C16.5721 17.966 16.7078 17.98 16.5531 17.9762C16.4292 17.9731 16.2921 17.9602 16.3595 17.9573C16.3759 17.9566 16.6282 17.965 16.7544 17.9641C17.1271 17.9616 17.033 17.9496 17.0548 17.9493C17.0788 17.949 17.3134 17.9574 17.4415 17.957C17.7636 17.956 17.9107 17.9487 18.3507 17.9583C18.0968 17.9662 18.2359 17.9833 17.953 17.9782ZM2.90788 17.9527C2.89253 17.9602 2.6284 17.9536 2.53243 17.9547C2.54753 17.9471 2.81186 17.9538 2.90788 17.9527ZM15.6345 0.0375093C15.5534 0.0498536 16.1615 0.0529101 16.0012 0.0426365C15.9658 0.0403564 15.7109 0.0375971 15.6345 0.0375093ZM18.3662 0.0450169C18.4476 0.041604 18.12 0.0327164 18.1206 0.0422702C18.1211 0.0453339 18.3558 0.0454608 18.3662 0.0450169ZM12.7355 17.966C12.7201 17.9664 12.4963 17.9637 12.4893 17.963C12.3411 17.9499 13.0776 17.9575 12.7355 17.966ZM20.922 1.7353C20.9139 1.45177 20.9104 2.30516 20.9207 2.0444C20.9212 2.03141 20.9224 1.74893 20.922 1.7353ZM20.9242 2.92147C20.9238 2.85351 20.9278 2.55169 20.924 2.54772C20.918 2.5417 20.9138 2.88717 20.9242 2.92147ZM7.12272 17.9699C7.15547 17.9838 6.75749 17.9733 6.61912 17.9751C6.58627 17.9611 6.98441 17.9717 7.12272 17.9699ZM9.63481 17.9802C7.95698 17.9912 8.32686 17.9614 9.73474 17.9734C9.73676 17.9823 9.74069 17.9795 9.63481 17.9802ZM7.48631 17.9785C7.54729 17.9696 7.73782 17.9723 7.86655 17.973C7.8434 17.9792 7.57917 17.9769 7.48631 17.9785ZM14.9105 0.0184046C15.0157 0.00714865 15.4817 0.0210253 15.3988 0.0256681C15.3795 0.0266707 14.8718 0.0245946 14.9105 0.0184046ZM12.5949 17.9779C12.634 17.9915 12.1301 17.9859 12.0916 17.9829C11.9361 17.9709 12.5541 17.9809 12.5949 17.9779ZM4.74134 17.9818C4.65238 17.9924 4.39969 17.987 4.23717 17.9868C4.31117 17.9778 4.60344 17.9816 4.74134 17.9818ZM5.91453 17.9901C5.90433 17.9905 5.67767 17.9896 5.66753 17.9891C5.48181 17.9788 6.123 17.9814 5.91453 17.9901ZM2.9708 9.33409e-05C2.97835 -0.000248075 3.15 0.000427514 3.15598 0.000825793C3.30919 0.0109982 2.79402 0.00891966 2.9708 9.33409e-05Z" fill="black"/>
</svg>
