<svg width="25" height="29" viewBox="0 0 25 29" fill="none" xmlns="http://www.w3.org/2000/svg">
<path d="M0.487 0.451172H24.487V5.45117L20.487 10.4512L22.487 28.4512H2.487L4.487 10.4512L0.487 5.45117V0.451172Z" fill="#D9D9D9"/>
<path d="M22.2463 7.46445C22.2075 7.51501 22.0449 7.71331 21.976 7.80031C22.0441 7.69369 22.3863 7.28202 22.2463 7.46445ZM21.8446 18.3038C21.8311 18.2127 21.8176 18.1215 21.8042 18.0303C21.8309 18.2907 21.8722 18.6401 21.8959 18.8818C21.8997 18.9213 21.8788 18.82 21.8888 18.9134C21.8987 19.0069 21.9098 18.9875 21.9263 19.1232C21.9447 19.2755 22.0132 19.9745 22.0403 20.2162C22.1416 21.1202 22.2504 22.0312 22.3456 22.9377C22.2321 22.0035 22.327 22.947 22.3602 23.2085C22.3677 23.2664 22.3909 23.2545 22.489 24.1935C22.5514 24.7902 22.4555 24.2433 22.5835 25.2364C22.5227 24.4686 22.6046 25.2212 22.6721 25.8209C22.6837 25.9243 22.7728 26.7598 22.8149 27.1286C22.8293 27.2548 22.8634 27.4457 22.8823 27.613C22.8953 27.7282 22.8981 27.8161 22.9174 27.9872C22.933 28.1245 22.9484 28.2615 22.9638 28.3982L23.0276 28.9257L22.487 28.9309C21.8259 28.9319 21.1706 28.9319 20.5052 28.93C20.9749 28.8971 20.1364 28.916 20.0988 28.9144C19.9073 28.9055 20.7734 28.9029 20.4309 28.8974C19.9522 28.8984 19.4735 28.8994 18.9948 28.9004C19.3877 28.9044 18.4747 28.9281 18.3066 28.9173C18.3806 28.9463 16.1248 28.8921 15.7814 28.9018C15.7099 28.9038 16.1781 28.9181 15.0921 28.9116C14.9745 28.9109 15.019 28.9021 14.9573 28.9029C14.9203 28.9034 14.6968 28.9312 14.4585 28.9159C14.3715 28.9102 14.9281 28.892 13.7059 28.8993C14.1926 28.9276 12.0112 28.9147 11.6099 28.9076C11.6901 28.9114 11.7703 28.9152 11.8505 28.919C11.4537 28.9087 11.3821 28.9183 11.2928 28.9178C10.9326 28.9157 10.4374 28.906 10.1019 28.9069C9.70928 28.9079 9.70795 28.9255 9.25023 28.9187C9.35883 28.9226 9.46743 28.9264 9.57604 28.9303C9.25992 28.9294 8.9438 28.9285 8.62768 28.9275C9.35973 28.9042 8.46976 28.9264 8.41113 28.9269C8.31761 28.9278 8.45197 28.9182 8.29558 28.9194C8.2794 28.9196 8.30279 28.9286 8.06173 28.9296C7.55806 28.9317 7.63768 28.9204 7.42622 28.9205C7.40684 28.9206 7.47467 28.9287 7.10944 28.9306C5.94862 28.9367 7.11521 28.9244 7.15975 28.9232C7.21824 28.9218 6.82022 28.8879 7.80627 28.8999C7.47518 28.8961 7.44188 28.8811 7.4046 28.8808C7.37159 28.8805 6.79796 28.8826 6.76633 28.8831C6.48433 28.8882 6.73247 28.8984 6.67751 28.9002C6.63257 28.9017 5.94145 28.8884 5.77946 28.9192C5.44879 28.8908 5.96972 28.8934 6.52423 28.889C6.60514 28.8832 5.99618 28.8775 5.96418 28.8775C5.17871 28.8776 5.61358 28.9009 5.44185 28.9159C5.35166 28.9237 5.03163 28.9077 5.32709 28.9287C4.61417 28.9309 5.04653 28.9188 5.00049 28.917C4.93099 28.9143 4.68154 28.9203 4.65031 28.9195C4.60449 28.9183 4.76381 28.9111 4.5831 28.9085C4.55307 28.9082 4.2619 28.9206 4.63734 28.9266C4.13574 28.9248 4.17706 28.9355 4.00693 28.914C3.66145 28.9546 3.75625 28.8901 3.6202 28.8878C3.25844 28.8818 3.3634 28.9136 3.3443 28.9152C3.26297 28.9213 2.84956 28.9195 2.487 28.9183L1.96967 28.9233L2.02273 28.3996C2.04824 28.1768 2.07136 27.9733 2.08008 27.879C2.08676 27.9346 2.05886 28.1732 2.03062 28.4005L1.97847 28.9153L2.487 28.9104C2.66898 28.9127 2.84385 28.9161 2.91277 28.9141C3.35405 28.9015 2.51578 28.902 2.487 28.8847L2.00683 28.8894L2.05608 28.4033C2.05678 28.4024 2.0574 28.4024 2.05792 28.4035L2.00889 28.8875L2.487 28.8829C2.49118 28.8803 2.51297 28.8773 2.55826 28.8738C2.53451 28.875 2.51075 28.8762 2.487 28.8774L2.01499 28.882L2.0634 28.4041C2.07154 28.2699 2.07969 28.1358 2.08783 28.0016C2.13823 27.7158 2.10088 28.1251 2.18024 27.3495C2.17842 27.221 2.12188 27.8976 2.1244 27.7609C2.12591 27.6803 2.17425 27.2309 2.17136 27.2216C2.16768 27.2122 2.12809 27.6189 2.12803 27.5541C2.12808 27.4127 2.30738 25.9332 2.19055 27.0616C2.22523 26.7471 2.27402 26.5885 2.29473 26.3147C2.30809 26.1377 2.15534 27.1251 2.32852 25.6375C2.34658 25.6075 2.26669 26.2331 2.26599 26.2495C2.26506 26.2725 2.31046 26.1628 2.31426 26.1433C2.32731 26.0745 2.47862 24.5526 2.53079 24.2333C2.4977 24.3583 2.65502 23.0844 2.66468 22.9448C2.6672 22.9076 2.64022 23.0446 2.64339 23.0049C2.66348 22.7574 2.75835 22.0925 2.79327 21.783C2.83237 21.4367 2.81746 21.4795 2.81963 21.4601C2.83713 21.3078 2.8304 21.4303 2.84073 21.3371C2.85634 21.1964 2.96521 20.2292 2.96919 20.1805C2.97032 20.1662 2.94132 20.3229 2.96258 20.1117C2.96626 20.0752 2.97727 20.0998 3.04079 19.4747C3.1173 18.7218 2.96587 19.9951 2.98636 19.681C3.0603 19.2001 3.03848 19.2136 3.05462 19.0827C3.06023 19.0374 3.11481 18.7017 3.15447 18.335C3.128 18.5984 3.10153 18.8619 3.07506 19.1253C3.1068 18.867 3.15891 18.3642 3.18597 18.1514C3.19917 18.0477 3.20367 18.1349 3.22839 17.909C3.23356 17.861 3.22053 17.6671 3.17012 18.2604C3.15267 18.3064 3.19189 18.0257 3.20295 17.8947C3.20461 17.8749 3.19289 17.7947 3.22409 17.6294C3.23165 17.5897 3.24265 18.0323 3.32457 16.903C3.3272 16.8667 3.30577 16.9917 3.30816 16.9562C3.3098 16.9318 3.34471 16.6451 3.34718 16.6133C3.34965 16.5807 3.32612 16.7185 3.32881 16.6797C3.34257 16.4808 3.40367 16.2245 3.35586 16.6325C3.375 16.4964 3.39415 16.3604 3.41329 16.2244C3.37277 16.3678 3.43027 16.0093 3.4505 15.8205C3.58017 14.6099 3.47434 15.4184 3.48928 15.2095C3.51333 14.8734 3.52651 15.1336 3.56921 14.6355C3.57315 14.5894 3.48878 15.1879 3.62901 14.0165C3.61047 14.1896 3.59193 14.3628 3.57339 14.5359C3.60798 14.4387 3.64121 13.9109 3.64537 13.8705C3.69329 13.4097 3.66718 13.7219 3.73104 13.0369C3.73674 12.9757 3.75732 12.8434 3.76893 12.7125C3.81715 12.17 3.68235 13.4258 3.66903 13.4591C3.66256 13.4748 3.81373 12.125 3.82109 12.0789C3.85277 11.8832 3.75742 12.6913 3.78673 12.5385C3.7959 12.4901 3.95114 11.0367 4.02332 10.3997L4.12269 10.7426C4.06143 10.6657 4.01236 10.6037 3.98059 10.563C3.70494 10.2096 3.60393 10.032 3.57402 10.0523C3.52261 9.9314 3.434 9.85924 3.39836 9.8143C2.96795 9.27105 2.96742 9.26982 2.59349 8.80783C2.51093 8.70581 2.45008 8.61257 2.41967 8.57746C2.40194 8.55705 2.42452 8.60365 2.33908 8.50251C2.22044 8.36198 1.53945 7.49183 1.4931 7.42374C1.44676 7.35565 1.78673 7.78637 1.73345 7.70307C1.48615 7.39226 1.2462 7.09645 0.997293 6.78356C0.893932 6.65358 0.952937 6.71565 0.908228 6.65953C0.889221 6.63562 0.525967 6.19185 0.539035 6.2125C0.569706 6.26086 1.6792 7.64099 1.37793 7.28486C1.31981 7.21616 1.13438 6.95744 1.14999 7.0097C0.81157 6.58413 0.473154 6.15855 0.134737 5.73298L0.0374621 5.61378L0.0358838 5.45117C0.0389283 4.41285 0.0419729 3.37454 0.0450174 2.33622C0.060321 3.2452 0.0466345 4.26813 0.0480693 5.22021C0.0481347 5.26838 0.0479071 5.35886 0.0481139 5.45117L0.0496494 5.60937L0.144287 5.72534C0.243127 5.84832 0.346277 5.97467 0.330237 5.94417C0.272204 5.87114 0.212456 5.79613 0.151421 5.71963L0.0587532 5.60608L0.0572496 5.45117C0.0582112 4.6997 0.0546801 3.8325 0.060643 3.14467C0.060866 3.11977 0.0701574 3.21112 0.0716298 3.11794C0.0743779 2.94374 0.0593926 2.37656 0.0632676 2.2812C0.0641704 2.26489 0.0764193 2.58766 0.0842035 2.4895C0.10418 2.23754 0.0599357 2.1736 0.0604599 1.95696C0.0608554 1.80075 0.0794811 0.811461 0.0710402 0.451172L0.0670424 0.0392887L0.487 0.0352125C0.513113 0.0346008 0.535922 0.0338468 0.55487 0.0329334C0.650975 0.0282894 0.598907 0.0257704 0.487 0.0240943L0.0558173 0.0282794L0.059922 0.451172C0.0563986 0.686418 0.0566004 1.1861 0.0486186 1.12965C0.0451152 0.903797 0.043756 0.677111 0.0435404 0.451172L0.0392783 0.0120584L0.487 0.00771272C1.02444 0.00719985 1.55764 0.0131578 2.06525 0.0121196C2.07795 0.012082 1.96765 0.00285161 2.12853 0.00156009C2.40849 -0.00068742 2.48197 0.0124055 2.61823 0.0145001C2.76518 0.0167297 3.28487 0.0148534 3.35436 0.0196272C3.36321 0.0202532 3.25793 0.0332397 3.24195 0.0336048C3.01559 0.0389571 2.93516 0.0221019 2.91457 0.0218856C2.83718 0.0212465 2.76114 0.0277024 2.69055 0.0273179C2.5743 0.0266767 2.5103 0.0207039 2.35687 0.0201765C2.25101 0.0197906 2.35317 0.0312605 2.25115 0.030736C2.21369 0.030497 1.80972 0.00430626 1.77206 0.0310412C1.76037 0.0394706 5.06393 0.0502956 5.39414 0.0435539C5.1109 0.0403392 4.82766 0.0371246 4.54443 0.03391C5.11959 0.0417351 5.81054 0.0203736 5.85947 0.0519771C7.9924 0.054561 10.1253 0.0571449 12.2582 0.0597288C12.6391 0.0624214 12.4303 0.08273 13.0569 0.0768193C12.8949 0.0703493 12.733 0.0638794 12.5711 0.0574094C12.8922 0.0619482 14.3153 0.0708154 14.5456 0.066626C14.5754 0.066077 14.6169 0.0476966 14.9724 0.0461175C15.288 0.0447231 15.3387 0.0584946 15.5073 0.0611327C15.649 0.0633093 15.808 0.059701 15.8501 0.0604613C15.8823 0.06107 15.8951 0.0694912 15.9727 0.0709597C16.2177 0.0755 16.0191 0.0517888 16.2623 0.0790167C16.2031 0.0800543 16.1439 0.0810919 16.0847 0.0821296C16.3804 0.0860704 16.7844 0.0984316 16.3488 0.10453C16.2739 0.105583 16.3382 0.097436 16.2824 0.09745C14.0953 0.098964 15.8418 0.114801 16.6082 0.10215C16.805 0.114222 17.9082 0.106851 17.9449 0.10923C17.9958 0.112676 17.8071 0.122324 18.0545 0.130654C18.1066 0.132418 19.5816 0.125658 19.0504 0.141702C18.9408 0.145012 18.2337 0.141535 18.0632 0.142007C18.4643 0.167594 19.4045 0.130936 19.5103 0.131875C19.9368 0.135863 18.6909 0.154049 19.6518 0.157023C20.3906 0.159304 19.6969 0.14222 19.9811 0.134927C20.1408 0.130835 20.9769 0.149656 20.9542 0.125283C21.2412 0.12268 21.0733 0.135586 21.1087 0.136514C21.1433 0.13733 21.7076 0.130034 21.8908 0.135171C21.913 0.13581 21.8431 0.148478 21.866 0.149515C21.9107 0.15129 22.4549 0.148757 22.4768 0.147684C22.4907 0.146938 22.361 0.135847 22.4143 0.133157C22.4764 0.130055 23.0001 0.132665 23.029 0.129495C23.0698 0.124701 22.4233 0.127859 22.531 0.115456C22.829 0.118579 23.3145 0.110304 23.5112 0.100319C23.463 0.103174 23.1741 0.103583 23.0738 0.102577C23.121 0.084412 23.7414 0.0846595 23.5293 0.099037C23.6641 0.0913156 23.5721 0.0872192 23.648 0.0799322C23.6679 0.0780864 23.8595 0.0777062 23.8964 0.0745609C23.9012 0.0739343 23.7035 0.0670806 23.7431 0.0633911C23.8148 0.0567239 24.3955 0.0582238 24.4431 0.059973C24.5768 0.0649297 24.1033 0.0709273 24.0638 0.0785894C24.0582 0.0797661 24.4609 0.094781 24.467 0.0961072C24.4906 0.110335 24.0424 0.100082 24.0937 0.112892C24.2045 0.115598 24.3153 0.118304 24.4262 0.12101C23.9987 0.133983 23.2078 0.127312 23.0038 0.142068C23.6377 0.137677 24.301 0.138197 24.2996 0.171427C24.2992 0.185423 24.0257 0.193627 24.0363 0.197185C24.0766 0.209918 24.4562 0.196086 24.4702 0.196758C24.4817 0.197534 24.487 0.198289 24.487 0.199025C24.487 0.199025 24.487 0.199025 24.487 0.199026C24.487 0.20648 23.9459 0.211849 23.9188 0.215252C23.8733 0.221299 24.1141 0.246187 24.1137 0.251692C24.1053 0.252798 23.72 0.258687 23.85 0.268294C23.9816 0.277997 24.3189 0.278211 24.3307 0.27922C24.3951 0.285024 23.8051 0.290318 23.7875 0.293746C23.7782 0.29548 24.0951 0.306128 24.1043 0.309189C24.1122 0.312261 23.8714 0.318964 23.7765 0.32866C23.7058 0.335864 23.9118 0.341386 23.8755 0.342515C23.8497 0.343264 23.2922 0.343141 23.2648 0.344408C23.224 0.346281 23.3546 0.35489 23.3355 0.357042C23.3086 0.360138 23.1286 0.357031 23.152 0.360216C23.1696 0.36259 23.8675 0.392268 23.863 0.400196C23.855 0.413717 23.1159 0.382607 23.8036 0.435964C23.8084 0.436314 23.9758 0.432522 23.9805 0.432851C24.0838 0.442668 23.5472 0.457769 24.2033 0.45513C22.9827 0.47218 24.0514 0.475455 23.8708 0.498222C23.8011 0.506973 23.3279 0.510581 23.3257 0.511894C23.3717 0.522996 23.5224 0.514386 23.5737 0.519829C23.6019 0.522871 23.1786 0.534608 23.2738 0.54223C23.3231 0.546158 23.7725 0.54476 23.791 0.545526C23.9689 0.552752 23.7508 0.560536 23.7899 0.565668C23.8158 0.56911 24.087 0.569382 24.0941 0.570002C24.1055 0.571291 23.7373 0.585196 23.6606 0.590083C23.6023 0.593844 23.8211 0.599736 23.7804 0.601375C23.5353 0.611179 23.0138 0.586175 23.5163 0.621213C23.547 0.623361 23.7371 0.622493 23.7427 0.622922C23.8602 0.632854 23.5102 0.633712 23.4475 0.641843C23.34 0.655854 23.8431 0.648043 23.4248 0.657896C23.7386 0.667059 23.9135 0.666676 24.2808 0.664122C23.2639 0.671247 22.9049 0.707517 24.0339 0.706604C23.6748 0.706039 23.7146 0.726509 23.6075 0.726868C23.5409 0.727068 23.0202 0.706715 23.2589 0.752382C23.2889 0.758086 23.6052 0.750839 23.5061 0.762514C22.7469 0.759535 23.49 0.769943 23.4908 0.771487C23.481 0.798387 21.6259 0.776354 21.3072 0.779422C20.9373 0.782979 20.6086 0.804176 20.5282 0.804203C20.2637 0.804212 20.4832 0.79345 20.424 0.789493C20.3641 0.785572 19.6119 0.80619 19.5743 0.805057C19.4286 0.800509 19.5765 0.787756 19.5614 0.787112C19.381 0.779298 18.3707 0.789283 18.0879 0.786319C18.0967 0.794592 18.6645 0.795249 18.31 0.808537C17.8972 0.824029 17.8735 0.787558 17.8627 0.785953C15.9712 0.786299 14.0798 0.786644 12.1883 0.78699C12.2119 0.806394 13.4485 0.791761 13.4766 0.794315C13.6418 0.80944 11.5528 0.809162 11.2965 0.802311C11.4912 0.806502 11.6859 0.810693 11.8806 0.814884C11.5481 0.837192 10.8125 0.80821 10.3317 0.818058C10.1763 0.821251 10.4746 0.829861 10.4684 0.830449C10.2938 0.839113 10.0137 0.832438 10.2232 0.820805C9.79701 0.831951 9.85927 0.819653 9.53225 0.81873C9.5154 0.818691 9.65581 0.827693 9.39705 0.831426C9.27582 0.833167 8.6292 0.833196 8.54263 0.841069C8.507 0.844385 8.83503 0.879294 8.87551 0.849249C9.57881 0.863895 9.10024 0.835557 9.37347 0.836248C9.41537 0.836405 9.31897 0.853175 10.007 0.845281C9.87597 0.875524 9.08366 0.852909 8.94783 0.856573C8.66776 0.864103 9.82198 0.87972 10.0337 0.856146C9.93479 0.879746 10.1156 0.859326 10.3729 0.860296C10.6546 0.861348 10.5318 0.868376 10.6842 0.868414C11.101 0.86859 10.9282 0.851931 11.2718 0.866949C10.9368 0.820456 11.8599 0.860814 12.1289 0.872992C11.6912 0.875352 11.2536 0.877712 10.8159 0.880072C10.8409 0.882514 10.8659 0.884955 10.8909 0.887397C10.7756 0.887051 10.6604 0.886705 10.5451 0.886359C10.5635 0.88402 10.582 0.88168 10.6005 0.87934C10.006 0.894553 9.86096 0.877455 9.81248 0.877265C9.18846 0.875281 8.46768 0.875428 7.83676 0.875373C7.74211 0.875364 7.80707 0.890582 7.11714 0.878669C6.89707 0.874875 7.10486 0.863037 6.85539 0.864813C6.54336 0.896981 6.54926 0.871324 6.45647 0.871283C6.19026 0.871287 6.02753 0.879256 6.00293 0.87934C5.67401 0.880583 5.19225 0.879253 4.83094 0.880439C4.82416 0.88056 5.01217 0.890443 4.77749 0.887519C4.69504 0.886475 3.9558 0.844286 3.30955 0.858038C3.47764 0.860886 3.64572 0.863735 3.8138 0.866583C3.61614 0.862603 2.23125 0.873235 2.56989 0.884528C2.77746 0.89143 3.28423 0.864237 3.33982 0.890388C2.96894 0.884089 1.24809 0.89044 0.487 0.889994L0.925821 0.451172C0.925713 0.635812 0.925204 0.763966 0.924018 0.802654C0.923151 0.830061 0.914666 0.661424 0.913581 0.69929C0.912754 0.728601 0.914764 1.31163 0.911505 1.38904C0.909569 1.4351 0.904369 1.17748 0.901312 1.19843C0.899133 1.21676 0.895499 1.94487 0.906134 1.98643C0.901865 1.80762 0.905593 1.30509 0.914557 1.56865C0.91567 1.60254 0.908811 1.77822 0.910224 1.8194C0.923254 2.20154 0.920126 1.05957 0.920234 0.882831C0.933783 1.60017 0.91781 2.70967 0.926643 3.54083C0.917791 3.87669 0.913102 3.04292 0.905768 3.42292C0.890567 4.21124 0.918008 3.63267 0.919135 3.65716C0.928065 3.85296 0.880205 4.51989 0.916633 4.52024C0.911149 4.80603 0.906556 4.71352 0.911322 5.11684C0.913845 5.06379 0.916368 5.01073 0.918891 4.95767C0.925181 5.09115 0.924866 5.26906 0.921216 5.45117L0.826066 5.17992C1.08721 5.52011 1.34846 5.89001 1.31509 5.85287C1.18729 5.71052 0.892215 5.31453 0.865564 5.28187C0.853132 5.26663 0.831056 5.24512 0.794116 5.20548L0.880301 5.45117C0.871427 5.33371 0.861217 5.10545 0.883855 4.63775C0.859063 4.35815 0.867122 5.72 0.850224 5.10034C0.850739 5.17817 0.850563 5.30106 0.850003 5.45117L0.770457 5.22441C1.179 5.739 1.90747 6.66526 2.04042 6.81727C2.06 6.83947 1.99325 6.71648 2.24914 7.05647C2.3706 7.21789 2.06621 6.83786 2.11954 6.91353C2.2547 7.10526 3.92292 9.18255 4.76401 10.2296L4.8568 10.3479L4.83957 10.4903C4.80838 10.7763 4.78378 11.002 4.76964 11.1308C4.7644 11.1782 4.75871 11.16 4.75361 11.2065C4.73793 11.3496 4.69137 11.8721 4.65942 12.1277C4.73246 11.5989 4.6191 12.6291 4.58844 12.8909C4.54188 13.2884 4.53121 13.2623 4.50927 13.4338C4.4247 14.0948 4.34253 15.1244 4.25561 15.6355C4.28827 15.6106 4.14226 16.5237 4.0956 16.9412C4.05904 17.2683 4.02586 17.745 4.08682 17.3049C4.02273 17.8693 3.9622 18.4643 3.90514 18.9942C3.89572 19.0817 3.90037 18.9602 3.88456 19.1097C3.88319 19.1233 3.88967 19.1429 3.87631 19.2713C3.76612 20.331 3.80518 19.8138 3.77782 20.0113C3.7625 20.1218 3.75192 20.2035 3.74476 20.2635C3.81166 19.6461 3.88741 18.9338 3.90832 18.7434C3.87137 18.9037 3.75995 20.1118 3.71563 20.4643C3.71409 20.4765 3.70841 20.4327 3.70695 20.4451C3.70692 20.4454 3.70689 20.4457 3.70686 20.4459C3.69136 20.5782 3.60157 21.4213 3.63327 21.2492C3.64177 21.203 3.68486 20.8151 3.73485 20.3549C3.72334 20.4797 3.74534 20.388 3.7434 20.41C3.71956 20.6771 3.63564 21.3286 3.60838 21.56C3.60216 21.6129 3.61006 21.6099 3.60911 21.6186C3.58402 21.829 3.57227 21.7403 3.57028 21.9587C3.5013 22.3372 3.64574 21.2436 3.61988 21.3189C3.59998 21.3767 3.33662 23.8121 3.35838 23.8072C3.35521 23.8153 3.34871 23.8485 3.33791 23.9168C3.31396 24.0683 3.24087 24.7462 3.23174 24.8636C3.2303 24.8834 3.25152 24.8778 3.24899 24.9023C3.24266 24.9635 3.13468 25.79 3.11233 26.1007C3.13375 25.934 3.15516 25.7672 3.17657 25.6005C3.06466 26.6093 3.08804 26.4541 3.13147 26.1186C3.13339 26.1018 3.13598 26.0856 3.13784 26.0695C3.17129 25.8095 3.21273 25.476 3.2149 25.4711C3.22315 25.4527 3.03638 27.1646 3.05409 26.8333C3.0566 26.7871 3.153 25.9962 3.09596 26.3868C3.08598 26.4551 3.03332 26.9641 3.02886 26.9906C2.99914 27.1683 3.10942 26.0563 3.08031 26.1905C3.06372 26.4615 3.01825 26.8066 2.98735 27.1161C2.97327 27.257 2.97964 27.2927 2.9779 27.31C2.95175 27.5697 2.95723 27.4229 2.94787 27.5096C2.94289 27.556 2.90887 28.0696 2.88822 27.9695C2.86671 28.1907 2.85035 28.362 2.83841 28.4902L2.487 28.0976C2.96758 28.089 2.84614 28.0854 2.487 28.0841L2.85186 28.4917C2.88359 28.2152 2.92967 27.7967 2.97254 27.4047C2.95177 27.6787 2.89478 28.1707 2.85956 28.4926L2.487 28.0763C2.55041 28.0762 2.60724 28.076 2.65455 28.0756C2.75822 28.0746 2.69677 28.0641 2.87189 28.0619C3.23231 28.0576 4.95308 28.0697 5.40137 28.0726C5.12606 28.0763 5.20656 28.0878 5.41906 28.087C5.63159 28.0862 5.45306 28.0709 5.49452 28.0692C5.53895 28.0675 6.536 28.0747 6.70188 28.0728C5.95126 28.0783 6.12059 28.0897 6.75769 28.0909C6.66559 28.0942 6.5735 28.0975 6.48139 28.1008C6.85481 28.0962 7.6399 28.1137 7.85579 28.1085C7.88964 28.1076 7.76799 28.098 7.78701 28.0975C7.97634 28.0934 8.6205 28.1033 8.65048 28.1C8.67589 28.0972 8.40112 28.0892 8.50309 28.0852C8.52438 28.0844 8.78928 28.0974 9.05018 28.0942C9.14698 28.093 9.08869 28.0839 9.11306 28.0834C9.31629 28.079 9.19635 28.0943 9.56779 28.0919C9.83991 28.09 10.0426 28.0751 10.4187 28.08C9.18388 28.0609 10.2219 28.0689 10.7382 28.0631C10.8209 28.0622 10.75 28.0457 11.2444 28.0537C10.1923 28.0836 11.5444 28.0695 11.821 28.0698C11.8362 28.0699 11.8413 28.0808 11.977 28.081C11.9885 28.081 11.972 28.0736 12.0981 28.0731C13.2938 28.0677 12.5292 28.076 12.7564 28.0833C12.8531 28.0864 13.4345 28.076 13.5911 28.0757C13.6272 28.0757 13.6106 28.0834 13.7499 28.0831C13.9964 28.0825 14.2172 28.0744 14.3799 28.0737C14.3989 28.0737 14.3997 28.0858 14.7081 28.0818C14.7948 28.0807 14.8922 28.0765 14.769 28.073C14.3606 28.0616 13.5859 28.0813 13.1242 28.0699C12.7033 28.0596 14.0307 28.0586 14.0997 28.0585C14.1251 28.0585 13.8658 28.0645 14.1292 28.0657C14.3541 28.0667 14.7651 28.0458 15.1003 28.0503C15.1259 28.0507 15.3937 28.0684 15.3814 28.0694C15.3701 28.0701 14.9589 28.074 15.0186 28.0791C15.0257 28.0797 15.2871 28.0796 15.3212 28.0834C15.363 28.088 15.4757 28.1335 15.5315 28.1346C15.6747 28.1375 15.5815 28.1271 15.6742 28.1278C15.8728 28.1293 16.562 28.1428 16.5844 28.127C16.4705 28.1261 16.3567 28.1251 16.2429 28.1242C16.8763 28.1226 16.6063 28.1159 16.696 28.1129C16.7926 28.1097 16.7655 28.1236 16.979 28.1249C17.0254 28.1252 17.9188 28.1223 17.9026 28.1165C17.4085 28.1257 17.5917 28.1086 17.5689 28.1083C17.4823 28.1072 17.3718 28.1168 17.2557 28.1166C16.4388 28.1151 17.2626 28.0999 17.0698 28.096C17.0034 28.0947 16.8712 28.1029 16.843 28.1025C16.7515 28.1011 16.75 28.0904 16.6889 28.0912C16.5465 28.0933 16.7128 28.1085 16.7015 28.1092C16.5742 28.1188 16.0754 28.1069 16.3859 28.0904C16.1995 28.0844 16.1777 28.1045 16.0298 28.0965C15.7359 28.0806 16.1762 28.0847 16.2955 28.082C16.7234 28.0725 16.8504 28.0802 17.4561 28.0776C17.6742 28.0766 17.9326 28.0669 18.0338 28.0663C18.0976 28.066 18.6996 28.1 18.7173 28.0468C18.9513 28.052 19.3185 28.087 19.5596 28.0854C19.776 28.0839 19.7072 28.0651 19.7274 28.0644C19.7583 28.0632 20.0201 28.0647 20.1086 28.0621C20.2123 28.0589 20.1606 28.0517 20.3252 28.0488C20.7348 28.0416 20.724 28.0608 20.7661 28.062C21.2549 28.0764 21.0409 28.0491 21.1493 28.0469C21.2212 28.0455 21.9604 28.0504 22.487 28.0509L22.0891 28.4954C22.0659 28.2843 22.0457 28.1077 22.0343 28.0228C22.0515 28.1428 22.0687 28.2629 22.0859 28.3829C22.0738 28.166 22.029 27.9397 22.0499 27.9333C22.0106 27.8934 21.9842 27.4459 21.9685 27.3124C21.9623 27.2598 21.9569 27.2646 21.9493 27.1987C21.9196 26.9413 21.8598 26.3602 21.8413 26.2209C21.7614 25.6183 21.9117 27.1652 21.9239 27.2869C21.8972 27.0435 21.7365 25.6673 21.7903 26.3021C21.7986 26.4002 21.8333 26.5719 21.84 26.6268C21.8853 26.9983 21.839 26.7073 21.8409 26.7366C21.8443 26.7864 21.8848 27.0297 21.8904 27.0945C21.8923 27.1161 21.8644 26.9787 21.9035 27.3335C21.872 27.1604 21.7711 26.1622 21.7537 26.0317C21.7475 25.9852 21.7541 26.2802 21.6844 25.4241C21.6831 25.4343 21.6818 25.4444 21.6805 25.4546C21.6267 24.9796 21.5729 24.5046 21.5192 24.0296C21.5304 24.0806 21.5712 24.3461 21.5315 24.0104C21.5087 23.8171 21.5122 23.9616 21.5099 23.944C21.4872 23.7708 21.1499 20.698 21.0824 20.1027C21.0595 19.9003 20.9868 19.3368 20.9818 19.2938C20.9522 19.0365 20.8574 18.1243 20.8358 17.9426C20.8223 17.8291 20.824 17.9382 20.8132 17.8367C20.8032 17.7424 20.824 17.839 20.8213 17.8109C20.7992 17.5786 20.5903 15.8179 20.5532 15.3985C20.5788 15.6545 20.7405 16.9285 20.7447 16.902C20.7451 16.8964 20.7182 16.5854 20.7074 16.5218C20.7043 16.4151 20.6376 16.0551 20.6209 15.8572C20.619 15.8348 20.6435 15.9211 20.607 15.5685C20.5945 15.447 20.5477 15.1305 20.525 14.8092C20.4674 14.3469 20.216 11.9104 20.1816 11.7452C20.1802 11.7403 20.2129 12.0837 20.1806 11.8528C20.1378 11.5459 20.1976 11.8192 20.1602 11.4601C20.1558 11.417 20.0827 10.7759 20.0503 10.4997L20.0316 10.3144L20.1439 10.1767C20.1881 10.1208 20.2173 10.0837 20.2212 10.0782C20.3021 9.96508 20.2307 10.0455 20.1298 10.1654L20.0128 10.3088L20.0324 10.5017C20.0483 10.6876 20.0742 10.9425 20.0724 10.936C20.068 10.92 20.042 10.7044 20.0185 10.5032L19.9984 10.3044L20.1189 10.1567C20.2277 10.0192 20.3301 9.89057 20.3391 9.88015C20.3577 9.85886 20.0031 10.3369 20.4432 9.77364C20.39 9.83595 20.3368 9.89826 20.2836 9.96057C20.4897 9.69492 20.5214 9.67932 20.573 9.61631C20.7335 9.42045 20.8867 9.19228 21.1621 8.89322C21.235 8.81417 21.1303 8.95841 21.1395 8.94863C21.2279 8.85433 21.3095 8.7091 21.4463 8.57041C21.4565 8.55996 21.1843 8.91957 21.6766 8.30424C21.6412 8.34538 21.6058 8.38653 21.5705 8.42767C21.6365 8.3382 22.1329 7.71356 22.2008 7.63037C22.399 7.38737 22.239 7.60958 22.4346 7.36243C22.2935 7.5084 22.8903 6.75845 22.8686 6.81172C22.9362 6.69435 23.4572 6.06849 23.6966 5.76994C23.823 5.61237 24.054 5.31362 24.1548 5.18539L24.0615 5.45117C24.0613 5.41926 24.0612 5.39557 24.0613 5.38301C24.0626 5.28954 24.0766 5.31795 24.0798 5.14917C24.0807 5.10104 24.0704 4.5986 24.0849 4.15758C24.0877 4.0721 24.1115 3.8926 24.1174 4.05146C24.1276 4.32338 24.1084 4.83777 24.1225 4.83121C24.1375 4.8235 24.1286 4.13065 24.1306 3.94417C24.1396 3.0832 24.1556 3.58036 24.1605 3.55822C24.1722 3.5008 24.1719 3.03037 24.1729 3.01074C24.1776 2.92939 24.1869 3.26274 24.1941 3.26778C24.2034 3.27385 24.2203 2.8204 24.2234 2.92349C24.2279 3.07105 24.2139 3.48778 24.2145 3.5142C24.2236 3.85813 24.2452 3.3867 24.2558 3.25677C24.2591 3.21739 24.2644 3.37432 24.2654 3.34166C24.2799 2.84317 24.235 3.23658 24.238 2.90502C24.2407 2.6092 24.2549 2.98981 24.2557 2.97851C24.2565 2.96391 24.2573 2.61021 24.2623 2.55484C24.2648 2.52755 24.2924 3.44687 24.3048 3.40848C24.3021 3.11515 24.2994 2.82183 24.2966 2.5285C24.3128 2.50551 24.3009 2.92741 24.3026 2.97105C24.3059 3.05889 24.3141 2.81393 24.3192 2.82445C24.3224 2.83009 24.334 3.11759 24.3387 2.85786C24.3404 2.76859 24.3291 2.58126 24.3406 2.25614C24.3554 3.38759 24.3645 2.60351 24.3702 2.57016C24.3759 2.53749 24.3893 3.07766 24.387 2.422C24.4184 2.39357 24.3969 2.43613 24.4024 2.62244C24.4092 2.85067 24.4195 2.32318 24.4117 3.15734C24.4264 3.10988 24.4253 2.43941 24.4265 2.40392C24.4276 2.37327 24.4348 2.5223 24.4373 2.46916C24.4657 1.84062 24.4527 2.27233 24.4708 2.09029C24.4725 2.0741 24.4792 1.48002 24.4818 1.93229C24.4866 2.75626 24.4658 3.10062 24.5103 3.23909C24.5297 2.62963 24.5009 1.89118 24.5004 1.70591C24.4997 1.42234 24.5088 1.71609 24.5114 1.68115C24.5122 1.66901 24.5114 1.42465 24.5122 1.42136C24.5461 1.24712 24.5127 2.50923 24.5186 2.90659C24.5237 2.80008 24.5288 2.69357 24.5339 2.58706C24.5341 2.73156 24.5343 2.87607 24.5345 3.02057C24.5447 2.33217 24.5384 2.9963 24.5659 3.16795C24.572 3.20649 24.5615 2.75423 24.5786 3.27013C24.5826 2.88963 24.5882 3.011 24.5805 2.66645C24.5915 2.67535 24.6039 3.45054 24.6096 3.7563C24.622 2.67614 24.5815 3.29212 24.6029 2.35833C24.5893 2.18516 24.5919 2.63088 24.5897 2.59453C24.5816 2.46413 24.5944 2.15844 24.5661 1.78962C24.5614 1.72957 24.547 1.98368 24.5477 1.60766C24.5478 1.56607 24.5601 1.32647 24.561 1.32979C24.5706 1.36155 24.567 1.59865 24.571 1.60844C24.5748 1.61763 24.5725 1.35311 24.5736 1.35219C24.5856 1.34406 24.5782 1.5729 24.5819 1.53966C24.5901 1.46789 24.616 0.516402 24.6084 1.75818C24.5948 0.726751 24.5951 1.62613 24.6004 2.0278C24.6017 2.13023 24.6088 2.15617 24.6113 2.30212C24.6146 2.48987 24.6111 2.70961 24.6124 2.80676C24.6139 2.91125 24.6309 2.31757 24.6258 3.1762C24.6427 2.73922 24.6247 1.96734 24.6366 1.53809C24.6605 0.67206 24.6657 2.14193 24.668 2.29505C24.6686 2.33584 24.6783 2.19908 24.6789 2.22627C24.6798 2.27074 24.6753 3.10495 24.6834 3.18721C24.6914 3.26924 24.683 2.88165 24.6914 2.85589C24.697 2.83843 24.707 3.84478 24.7108 3.3C24.7135 2.92452 24.6908 2.23241 24.7152 2.11583C24.7172 2.66803 24.7192 3.22022 24.7212 3.77242C24.7305 3.47018 24.7397 3.16795 24.749 2.86572C24.7519 3.48549 24.7415 4.0213 24.7547 4.60994C24.7844 3.19545 24.7784 5.06921 24.782 5.08982C24.7842 5.09672 24.8082 4.53996 24.8126 4.45038C24.817 4.67983 24.8202 5.12684 24.8255 5.45117L24.8266 5.56662L24.7513 5.66264C24.523 5.95769 24.3982 6.12768 24.7037 5.77127C24.599 5.89139 24.3711 6.20277 24.3753 6.19958C24.4036 6.17876 24.6618 5.85391 24.7918 5.69504L24.8787 5.58431L24.8774 5.45117C24.8784 5.36051 24.8801 5.31074 24.8838 5.35275C24.8864 5.3833 24.8878 5.41621 24.8885 5.45117L24.8898 5.58809L24.8005 5.70197C24.7108 5.81833 24.5869 5.95396 24.4645 6.10892C23.6869 7.09341 23.9554 6.86748 23.1611 7.84299C23.1787 7.82498 23.1962 7.80696 23.2137 7.78895C22.4234 8.77119 21.633 9.75342 20.8426 10.7357L20.9396 10.4009C20.9511 10.5068 20.9626 10.6128 20.974 10.7188C21.0539 11.2481 21.2238 12.6618 21.2987 13.357C21.3138 13.497 21.3793 14.1853 21.3831 14.2374C21.3901 14.3338 21.33 13.806 21.3497 14.0454C21.3538 14.0959 21.4785 15.2597 21.4809 15.1752C21.4678 15.0447 21.4166 14.6374 21.4119 14.5703C21.3794 14.0991 21.7622 17.6871 21.7898 17.8639C21.7848 17.784 21.7798 17.7042 21.7747 17.6243C21.798 17.8508 21.8213 18.0773 21.8446 18.3038ZM21.6955 8.20609C21.7717 8.09205 21.9925 7.83012 22.1164 7.67004C22.2874 7.44883 22.549 7.04943 22.4566 7.23756C22.2029 7.56041 21.9492 7.88325 21.6955 8.20609ZM20.3993 13.975C20.3751 13.7007 20.4239 13.9101 20.4384 14.1355C20.4399 14.1606 20.432 14.3462 20.3993 13.975ZM20.0925 11.105C20.0941 11.1165 20.1197 11.353 20.1202 11.3613C20.1337 11.5745 20.0565 10.8613 20.0925 11.105ZM21.6452 24.9615C21.6106 24.6601 21.612 24.881 21.6422 25.0674C21.6441 25.0791 21.6474 24.9813 21.6452 24.9615ZM21.622 24.7469C21.6164 24.5105 21.5225 24.0435 21.5683 24.418C21.5728 24.4543 21.6222 24.7579 21.622 24.7469ZM20.3009 12.9985C20.3122 13.0284 20.3398 13.3111 20.3513 13.4319C20.3437 13.4294 20.3149 13.1166 20.3009 12.9985ZM21.0983 20.1548C21.1058 20.1661 20.9964 19.185 20.9809 19.1191C21.0015 19.2736 21.0915 20.1441 21.0983 20.1548ZM21.3865 22.6698C21.3848 22.6448 21.3455 22.306 21.3412 22.3165C21.3524 22.4828 21.3941 22.7823 21.3865 22.6698ZM21.9418 27.6705C21.9452 27.6887 21.9517 27.4311 21.9956 28.035C22.0021 28.1237 21.958 27.8093 21.9603 27.8408C21.9651 27.9068 21.9698 27.9589 21.9742 28.0006C21.9402 27.7209 21.9065 27.43 21.9055 27.4017C21.9008 27.2684 21.9403 27.6624 21.9418 27.6705ZM20.6816 28.0215C20.6236 28.0272 20.2527 28.0241 20.1683 28.0218C20.1539 28.0213 20.217 28.0064 20.05 28.0075C19.916 28.0084 20.1162 28.0237 19.8551 28.0213C19.5912 28.0188 19.9438 28.0079 19.9207 28.0071C19.8898 28.0061 19.4816 28.013 19.4943 28.0041C19.5038 27.9975 19.9411 28.0019 20.0493 28.0005C20.1877 27.9987 20.0198 27.9877 20.2513 27.9901C20.3967 27.9916 20.3161 28.0109 20.3468 28.0119C20.3725 28.0127 20.8809 28.0016 20.6808 28.0214C20.6811 28.0214 20.6814 28.0215 20.6816 28.0215ZM21.9835 28.0763C21.9805 28.0553 21.9774 28.0306 21.9742 28.0006C21.9773 28.026 21.9804 28.0513 21.9835 28.0763ZM21.2052 8.83255C21.1111 8.94058 21.3705 8.6041 21.4771 8.48336C21.4838 8.48513 21.2202 8.81534 21.2052 8.83255ZM22.028 28.3343C22.036 28.4155 22.041 28.4692 22.0434 28.5005L22.487 28.0049C22.4383 28.0032 22.4444 28.0015 22.487 27.9998L22.0384 28.501C22.0278 28.4312 22.0062 28.2618 21.9835 28.0763C22.0001 28.1933 22.0141 28.1944 22.028 28.3343ZM20.7074 16.5218C20.7079 16.5395 20.7069 16.5509 20.7034 16.5527C20.7023 16.5061 20.704 16.5017 20.7074 16.5218ZM20.8087 17.4932C20.8568 17.8247 20.7813 17.1487 20.7737 17.1538C20.7709 17.1562 20.8068 17.4799 20.8087 17.4932ZM21.6871 25.3483C21.6848 25.3177 21.7711 25.7869 21.6694 25.1031C21.7062 25.47 21.6595 25.0838 21.6572 25.0898C21.6504 25.1057 21.727 25.7204 21.7384 25.8571C21.7655 25.9621 21.6946 25.4492 21.6871 25.3491C21.6871 25.3488 21.6871 25.3486 21.6871 25.3483ZM15.921 28.0132C16.0049 28.0043 16.2711 28.0072 16.4508 28.0077C16.3668 28.0167 16.1006 28.0138 15.921 28.0132ZM4.54953 0.890388C3.31858 0.898679 3.15911 0.86216 4.28542 0.876593C4.30747 0.876896 4.62426 0.886686 4.54953 0.890388ZM1.76079 6.35547C1.82082 6.45599 1.57903 6.15784 1.42668 5.95688C1.39219 5.9114 1.27301 5.73662 1.42594 5.92274C1.40608 5.92879 1.63301 6.22426 1.76079 6.35547ZM22.4172 28.0181C22.2953 28.0287 21.9201 28.0211 21.7224 28.0195C21.843 28.0108 22.2424 28.0147 22.4172 28.0181ZM0.504564 0.871344C0.498618 0.871289 0.492761 0.871265 0.487 0.871271L0.907098 0.451172C0.907209 0.571146 0.919867 0.649927 0.920966 0.628546C0.923405 0.582264 0.922334 0.505688 0.919698 0.451172L0.487 0.88387C0.550601 0.880794 0.584172 0.875589 0.504564 0.871344ZM21.9321 27.3643C21.9365 27.3465 21.9975 27.8398 21.9857 27.876C21.9751 27.7702 21.9295 27.377 21.9321 27.3643ZM16.2598 28.018C16.3369 28.0212 15.9373 28.027 15.8164 28.0238C15.8261 28.017 16.2092 28.0159 16.2598 28.018ZM0.911872 2.52251C0.910669 2.63871 0.910302 2.92897 0.9159 2.96112C0.922897 3.00105 0.920513 2.57541 0.911872 2.52251ZM20.0342 0.863959C20.0488 0.866473 19.5993 0.884598 19.3994 0.880011C19.0199 0.871236 20.0183 0.862182 20.0342 0.863959ZM1.73275 0.864203C2.09917 0.877373 1.69235 0.864618 1.70839 0.878485C1.95495 0.878985 2.56829 0.879669 2.1466 0.866034C2.06447 0.863396 1.84769 0.8651 1.73275 0.864203ZM1.39476 0.859564C1.35547 0.864056 1.09138 0.878218 1.31969 0.877204C1.42523 0.876713 1.59536 0.860977 1.39476 0.859564ZM17.2488 0.870123C16.9204 0.857847 18.4259 0.864433 18.4692 0.866583C18.492 0.867719 18.507 0.868789 18.5155 0.869696C18.5708 0.865805 18.8552 0.865104 18.8881 0.874945C18.8028 0.874133 18.5701 0.874998 18.543 0.873908C18.5314 0.873443 18.5227 0.873008 18.5167 0.872565C18.4164 0.881108 17.3118 0.872451 17.2488 0.870123ZM14.7543 0.857489C15.1301 0.839378 15.1966 0.87017 15.1642 0.871161C14.7551 0.883764 15.0219 0.861055 15.0094 0.859991C14.9808 0.858222 14.6902 0.868758 14.7555 0.857489C14.7551 0.857489 14.7547 0.857489 14.7543 0.857489ZM16.7375 0.865057C16.7529 0.864656 17.0684 0.865609 17.0814 0.866095C17.34 0.876443 16.4473 0.873793 16.7375 0.865057ZM18.6906 28.043C18.4647 28.04 18.6863 28.0286 18.8364 28.0327C18.8487 28.0331 18.8898 28.0457 18.6906 28.043ZM1.21436 0.862616C1.1876 0.861522 0.824751 0.858879 0.487 0.858839L0.894667 0.451172C0.894628 0.774425 0.896973 1.07469 0.905341 1.03532C0.904552 0.990885 0.905415 0.731469 0.905944 0.451172L0.487 0.870117C0.924279 0.870942 1.41238 0.870955 1.21436 0.862616ZM3.48127 8.54203C3.3338 8.35747 3.5073 8.54852 3.58135 8.65071C3.6088 8.6886 3.51846 8.58854 3.48127 8.54203ZM21.8727 26.6967C21.8368 26.4539 21.8719 26.501 21.8853 26.7135C21.8858 26.7218 21.8741 26.7062 21.8727 26.6967ZM2.30954 7.06251C2.82613 7.69259 2.66565 7.57389 2.01745 6.73599C2.03994 6.76045 2.06242 6.78491 2.08491 6.80937C1.32716 5.84991 2.03549 6.74182 2.22475 6.97381C2.29667 7.06197 2.24375 6.98215 2.3091 7.06186C2.30924 7.06207 2.30939 7.06229 2.30954 7.06251ZM4.25659 9.51274C4.71838 10.1481 3.80113 8.96369 3.52904 8.63115C3.80093 8.94701 4.13792 9.37188 3.68919 8.78639C4.36513 9.62656 4.07341 9.28506 4.09936 9.31943C4.13014 9.36006 4.23692 9.48565 4.25659 9.51274ZM2.9635 7.89677C2.93436 7.86203 2.72666 7.59057 2.64883 7.49521C2.76604 7.62187 3.15724 8.1274 2.9635 7.89677ZM12.1392 0.865912C12.1675 0.856193 12.2377 0.849034 12.5074 0.852667C12.4241 0.85755 12.2518 0.86175 12.1392 0.865912ZM21.8975 8.03549C22.0141 7.89089 22.2479 7.60439 22.1691 7.68657C22.1607 7.69572 21.8934 8.03147 21.8975 8.03549ZM0.89057 3.61472C0.889375 3.65423 0.888573 4.67578 0.899298 4.32294C0.902532 4.21653 0.901159 3.28705 0.89057 3.61472ZM2.61351 0.855963C2.52802 0.855861 2.18071 0.857692 2.17333 0.859991C2.14983 0.867938 2.57615 0.863569 2.61351 0.855963ZM22.4906 7.31006C22.5066 7.29159 22.8596 6.84749 22.817 6.89324C22.7361 6.9801 22.4355 7.37336 22.4906 7.31006ZM17.8688 28.0658C17.8214 28.0662 17.7586 28.0556 17.7422 28.0555C17.7037 28.0553 16.8356 28.0594 17.1672 28.0458C17.2226 28.0436 18.4715 28.0488 18.634 28.0501C18.6968 28.0646 18.1633 28.0508 18.0335 28.0523C18.0106 28.0526 17.9959 28.0647 17.8692 28.0657C17.869 28.0658 17.8689 28.0658 17.8688 28.0658ZM13.5442 0.855657C13.5825 0.846443 14.6031 0.840342 14.5912 0.851507C14.2422 0.85289 13.8932 0.854274 13.5442 0.855657ZM13.0258 0.854132C12.8081 0.847613 13.318 0.845457 13.4684 0.848333C13.47 0.854532 13.0575 0.855085 13.0258 0.854132ZM0.677886 0.821537C0.575344 0.823791 0.890707 0.837235 0.82016 0.839849C0.77758 0.841382 0.571843 0.837001 0.487 0.839999L0.875827 0.451172C0.876012 0.456412 0.876225 0.461191 0.87647 0.465442C0.876734 0.469539 0.877439 0.4637 0.878397 0.451172L0.487 0.842569C0.537879 0.846458 0.699098 0.854508 0.753346 0.85407C0.849372 0.853341 0.756238 0.843396 0.861034 0.843328C1.20896 0.843114 1.51742 0.850207 1.84359 0.850042C1.87304 0.850008 1.64462 0.842984 1.89586 0.843084C1.93467 0.843085 2.16794 0.853546 2.46849 0.851995C3.13224 0.819599 3.61958 0.851408 4.46189 0.839727C4.43011 0.836676 3.8002 0.828493 3.7631 0.828191C3.05903 0.822863 1.79771 0.822278 1.0603 0.822209C0.87108 0.822181 0.962967 0.829038 0.881471 0.829289C0.817058 0.829475 0.893642 0.816778 0.677886 0.821537ZM21.8413 8.11691C21.9065 8.05571 22.0943 7.80821 22.2187 7.65374C22.1661 7.70111 21.9646 7.96732 21.8413 8.11691ZM8.44398 0.844304C8.34454 0.844794 8.03633 0.840974 8.01087 0.844793C7.97805 0.849779 8.42295 0.852924 8.44398 0.844304ZM12.9741 28.0622C12.9645 28.0625 12.7253 28.0619 12.7163 28.0615C12.5026 28.0513 13.22 28.0534 12.9741 28.0622ZM7.25289 28.0597C7.07153 28.0613 6.88859 28.0653 6.82765 28.055C6.94322 28.0566 7.27416 28.0526 7.25289 28.0597ZM3.22106 25.3864C3.20353 25.4221 3.27249 24.8805 3.28508 24.7782C3.28681 24.8168 3.23374 25.3601 3.22106 25.3864ZM12.0999 0.823613C12.4336 0.82441 12.3631 0.803999 12.575 0.813236C12.6096 0.814798 12.7214 0.857299 12.3545 0.841375C12.2885 0.838512 12.5468 0.828412 12.0999 0.823613ZM1.91 6.601C1.85003 6.5403 1.68637 6.3315 1.57495 6.19108C1.60523 6.21832 1.82984 6.50181 1.91 6.601ZM23.1386 6.51635C23.2462 6.40199 23.6907 5.83144 23.5724 5.96598C23.5557 5.98518 23.2023 6.43742 23.1386 6.51635ZM21.5687 28.0587C21.2711 28.0686 21.8874 28.0717 22.082 28.062C21.9939 28.0626 21.5887 28.0581 21.5687 28.0587ZM3.00441 27.2699C3.00558 27.2556 3.04137 26.9422 3.04342 26.9282C3.08226 26.6724 2.98104 27.5593 3.00441 27.2699ZM9.13428 28.0761C9.02061 28.0843 8.27325 28.0777 8.10575 28.0695C8.26694 28.0576 9.27535 28.0659 9.13428 28.0761ZM10.7266 0.829411C10.9647 0.828989 11.1906 0.831501 11.4093 0.835027C11.3633 0.841893 10.7518 0.83454 10.7266 0.829411ZM3.13147 26.1186C3.13339 26.1018 3.13598 26.0856 3.13784 26.0695C3.13569 26.0862 3.13354 26.1026 3.13147 26.1186ZM5.39767 0.824589C5.19815 0.821877 5.23956 0.834458 5.25186 0.834844C5.40198 0.838918 5.62355 0.82765 5.39767 0.824589ZM21.9983 7.95057C22.0504 7.90366 22.2532 7.63612 22.3759 7.48706C22.3339 7.52519 22.0945 7.82841 21.9983 7.95057ZM4.76335 10.1834C4.77481 10.1993 4.78144 10.2091 4.78385 10.2137L4.8833 10.3405L4.86483 10.4932C4.86363 10.497 4.86289 10.4968 4.86256 10.4929L4.88092 10.3412L4.78207 10.2151C4.74006 10.1797 4.24424 9.57535 4.13399 9.42661C4.13001 9.40946 4.74175 10.1537 4.76335 10.1834ZM22.1132 28.487C22.1199 28.4661 22.0619 28.0417 22.0678 28.1326C22.0715 28.1902 22.1091 28.4995 22.1132 28.487ZM3.81764 9.02287C3.75567 8.94975 3.62299 8.76985 3.6763 8.82792C3.74471 8.90246 3.83371 9.04172 3.81764 9.02287ZM0.84943 1.7235C0.848071 1.76541 0.857202 2.32885 0.866277 2.09609C0.872583 1.93457 0.859723 1.90885 0.859685 1.87088C0.859726 1.82844 0.875463 0.923926 0.84943 1.7235ZM4.23324 16.1336C4.25331 15.922 4.28564 15.6669 4.30997 15.4458C4.30543 15.5365 4.25049 16.0445 4.23324 16.1336ZM20.8412 28.0781C20.8928 28.0817 22.2993 28.0839 21.5003 28.0728C21.4537 28.0722 20.6844 28.0672 20.8412 28.0781ZM12.0999 0.823613C12.0578 0.823512 12.0092 0.823088 11.9529 0.822209C12.0088 0.822555 12.0575 0.823158 12.0999 0.823613ZM8.30956 0.82227C8.38639 0.815794 7.99932 0.814062 7.8851 0.817509C7.84993 0.825421 8.29899 0.823175 8.30956 0.82227ZM4.30286 15.428C4.31333 15.3002 4.34295 15.0694 4.36005 14.9116C4.36307 14.9389 4.31506 15.3736 4.30286 15.428ZM3.302 24.3743C3.33367 24.1217 3.36663 23.8102 3.35984 23.8046C3.36157 23.7995 3.36415 23.7873 3.36763 23.7671C3.37112 23.7467 3.39784 23.4752 3.41342 23.3578C3.50659 22.6544 3.11964 26.0811 3.3197 24.0924C3.3138 24.1863 3.3079 24.2803 3.302 24.3743ZM10.1455 28.0934C10.29 28.1024 10.6947 28.0912 10.5896 28.0876C10.5165 28.0852 10.0009 28.0844 10.1455 28.0934ZM4.58586 28.0988C4.62904 28.1004 5.02413 28.0941 5.03429 28.0894C4.80717 28.0844 4.38911 28.0913 4.58586 28.0988ZM11.2562 28.1039C11.3469 28.1053 11.4626 28.0908 11.4519 28.0902C11.3598 28.0849 11.1039 28.0959 11.2562 28.1039ZM11.4085 0.784671C11.2736 0.780531 10.8435 0.790994 10.7498 0.800541C10.7324 0.798695 10.6854 0.796288 10.5993 0.793399C10.5996 0.793399 10.5998 0.793399 10.6001 0.793399C10.4838 0.789543 7.00746 0.78533 9.33928 0.803715C9.4123 0.804304 9.31255 0.795735 9.60968 0.797245C9.62932 0.797355 9.63908 0.804351 9.69968 0.804691C9.83923 0.80543 10.5824 0.809833 10.7318 0.804203C10.733 0.8055 10.7427 0.806733 10.7632 0.807865C10.9464 0.817955 11.5132 0.787863 11.4085 0.784671ZM3.80256 28.1C3.88206 28.1026 4.13374 28.1002 4.15982 28.094C4.03501 28.091 3.61804 28.094 3.80256 28.1ZM20.8848 28.1035C21.0468 28.1085 21.4573 28.099 21.3333 28.094C21.2572 28.0909 20.698 28.0976 20.8848 28.1035ZM6.3234 28.0967C5.39456 28.0894 6.10172 28.0973 5.95946 28.1064C6.08078 28.1032 6.20209 28.1 6.3234 28.0967ZM15.7074 0.808048C15.5593 0.805965 15.7333 0.7881 15.8964 0.797794C15.9476 0.800872 15.7903 0.80918 15.7074 0.808048ZM22.3954 0.802494C22.269 0.786653 22.8864 0.79596 22.6458 0.806827C22.6346 0.807194 22.4045 0.803097 22.3954 0.802494ZM17.722 0.796024C17.6215 0.80681 17.556 0.808089 17.2728 0.805424C17.6921 0.802385 17.3032 0.792846 17.722 0.796024ZM3.35838 23.8072C3.359 23.8056 3.35947 23.8043 3.35984 23.8046C3.35925 23.8064 3.35878 23.8071 3.35838 23.8072ZM12.1295 28.1011C12.2457 28.1103 12.5716 28.1096 12.4746 28.1004C12.4652 28.0995 12.1771 28.0944 12.1295 28.1011ZM10.7498 0.800541C10.7653 0.802177 10.7574 0.803236 10.7318 0.804203C10.7306 0.802982 10.7372 0.801829 10.7498 0.800541ZM10.3798 28.1086C10.3914 28.1018 9.89542 28.0991 9.87552 28.0999C9.59087 28.1117 10.175 28.109 10.3798 28.1086ZM21.9657 26.8216C21.9622 26.7962 21.9629 26.9621 21.9809 27.0619C21.9949 27.1391 21.979 26.9165 21.9657 26.8216ZM18.6837 0.791629C18.8408 0.791641 19.0619 0.791633 19.1027 0.799991C18.9975 0.798708 18.6805 0.797762 18.6837 0.791629ZM22.1537 0.791019C21.9681 0.800845 21.5441 0.800817 21.2734 0.799198C21.2684 0.786263 21.9795 0.79406 22.1537 0.791019ZM11.8346 0.789493C11.8217 0.788967 11.4278 0.785107 11.4816 0.793765C11.5602 0.806462 11.9457 0.794201 11.8346 0.789493ZM22.0409 27.5828C22.0663 27.7571 22.0397 27.3523 22.0051 27.1691C21.9874 27.0751 22.0366 27.5534 22.0409 27.5828ZM13.147 28.1131C13.3795 28.1081 12.8034 28.0992 12.723 28.1082C12.83 28.1089 13.0645 28.1149 13.147 28.1131ZM5.23906 28.1223C5.97145 28.1484 5.57255 28.1007 5.44264 28.1049C5.42433 28.1055 5.22116 28.1216 5.23906 28.1223ZM24.1517 5.30795C24.1496 5.24963 24.1446 5.34642 24.1421 5.45117L24.2177 5.23571C24.1653 5.29812 24.111 5.36527 24.1003 5.38472C24.0909 5.40189 24.1612 5.31919 24.225 5.24161L24.1515 5.45117C24.1524 5.39057 24.1525 5.3329 24.1517 5.30795ZM3.74476 20.2635C3.74143 20.2942 3.73813 20.3247 3.73485 20.3549C3.73694 20.3322 3.74011 20.3025 3.74476 20.2635ZM15.2568 28.1481C14.7412 28.1112 14.7953 28.1396 14.7506 28.1395C14.6537 28.1391 14.4287 28.1291 14.2463 28.1307C14.4553 28.1266 14.6642 28.1224 14.8732 28.1183C14.7081 28.1156 13.2742 28.1021 13.2441 28.108C13.2011 28.1165 13.6523 28.1139 13.6654 28.1146C13.6844 28.1157 13.7548 28.1394 13.7967 28.1403C13.8656 28.1417 15.0646 28.1422 15.2568 28.1481ZM6.77066 28.1182C6.65289 28.1153 6.61941 28.106 6.56472 28.1082C6.54608 28.109 6.54307 28.1179 6.47943 28.1202C6.57651 28.1195 6.67358 28.1189 6.77066 28.1182ZM16.18 28.1149C16.3259 28.1259 15.6716 28.1217 15.6506 28.1205C15.5386 28.1131 16.0607 28.106 16.18 28.1149ZM10.6274 28.1165C10.6513 28.1172 11.1537 28.1206 11.1497 28.1145C11.0168 28.1099 10.3449 28.1085 10.6274 28.1165ZM6.40083 28.1208C6.22428 28.1198 5.89053 28.1108 5.92881 28.1243C5.92907 28.1243 5.92933 28.1243 5.92959 28.1243C6.08667 28.1231 6.24375 28.122 6.40083 28.1208ZM22.1357 28.1788C22.1209 27.8513 22.1111 28.0083 22.1362 28.297C22.1555 28.3832 22.1382 28.2325 22.1357 28.1788ZM22.036 27.1364C22.0298 27.0456 21.922 26.1138 21.9265 26.2573C21.9281 26.3083 21.9978 26.8432 21.9998 26.868C22.0028 26.9056 21.9713 26.736 22.0056 27.0216C22.0079 27.0044 22.0382 27.1676 22.036 27.1364ZM22.1195 27.9082C22.0998 27.5832 22.0618 27.514 22.0887 27.757C22.0992 27.8519 22.1223 27.9545 22.1195 27.9082ZM21.7393 28.1433C21.8562 28.1462 22.1678 28.1503 22.3826 28.1403C22.0952 28.1395 21.8078 28.1386 21.5203 28.1378C21.4872 28.1434 21.6369 28.1408 21.74 28.1433C21.7398 28.1433 21.7395 28.1433 21.7393 28.1433ZM24.1074 0.713928C23.8491 0.705397 24.4442 0.702127 24.4694 0.704223C24.5441 0.711182 24.2229 0.717739 24.1074 0.713928ZM24.425 3.29018C24.4284 3.2184 24.4396 3.17148 24.4337 3.01349C24.4255 3.1724 24.4172 3.33131 24.4089 3.49023C24.4279 3.61372 24.4212 3.36863 24.425 3.29018ZM24.4942 2.68335C24.4946 2.7058 24.5237 2.58318 24.5043 2.87318C24.4912 3.06913 24.4784 2.00358 24.4913 1.81124C24.4973 2.02377 24.4904 2.49012 24.4942 2.68335ZM24.6201 0.816898C24.6225 0.804612 24.6259 1.20944 24.6242 1.2563C24.6156 1.50234 24.6077 0.883369 24.6201 0.816898ZM24.6146 2.10836C24.6202 1.91851 24.6239 2.3391 24.6206 2.46444C24.6152 2.4766 24.6138 2.13769 24.6146 2.10836ZM21.4915 0.292404C21.286 0.272623 21.1023 0.315205 21.4184 0.306625C21.4335 0.306222 21.5002 0.293372 21.4915 0.292404ZM24.6495 1.21267C24.6438 1.40253 24.6402 0.981937 24.6434 0.856593C24.6489 0.844936 24.6503 1.18376 24.6495 1.21267ZM21.3469 0.245283C21.074 0.231049 21.1701 0.278821 21.2042 0.280745C21.3446 0.288348 21.8262 0.269598 21.9246 0.264937C21.2038 0.272106 21.4753 0.25199 21.3469 0.245283ZM20.0884 0.27397C19.8353 0.279067 20.4822 0.288814 20.6056 0.275496C20.4798 0.276134 20.1604 0.272497 20.0884 0.27397ZM18.5521 0.25865C18.416 0.256939 18.0112 0.252842 17.9433 0.260359C18.0919 0.258998 18.4946 0.266384 18.5521 0.25865ZM18.244 0.236127C18.0312 0.225914 17.9802 0.255672 18.2255 0.246809C18.235 0.246466 18.2518 0.236695 18.244 0.236127ZM17.048 0.225385C16.9084 0.21355 16.7491 0.24237 16.9753 0.243146C17.0425 0.243324 17.0628 0.226741 17.048 0.225385ZM21.0053 0.193889C20.8055 0.188807 20.548 0.209446 20.9747 0.211712C20.8248 0.214866 20.6749 0.218019 20.525 0.221173C21.084 0.232741 21.0429 0.20412 21.2034 0.205303C21.4276 0.206985 21.41 0.230603 21.3649 0.238019C21.5488 0.223549 22.3299 0.223318 22.7814 0.220563C22.3846 0.21449 21.7408 0.203962 21.3492 0.200115C21.2374 0.199001 21.1289 0.205478 21.0336 0.204754C20.8808 0.203558 21.0165 0.194231 21.0061 0.193889C21.0058 0.193889 21.0056 0.193889 21.0053 0.193889ZM15.4759 0.224957C15.0657 0.211551 15.3251 0.240495 15.5569 0.235334C15.5668 0.234936 15.4861 0.225285 15.4759 0.224957ZM24.7374 0.668729C24.7253 1.21678 24.7093 0.818414 24.7337 1.96491C24.7164 1.48324 24.7213 1.93827 24.7143 1.84425C24.7088 1.76883 24.7134 1.48622 24.7023 1.6505C24.7143 1.43457 24.711 0.497113 24.713 0.455319C24.713 0.455712 24.713 0.456105 24.713 0.456498C24.7141 0.431397 24.7413 0.493848 24.7374 0.668729ZM18.5501 0.182963C18.4133 0.147844 18.3596 0.203586 18.0907 0.174479C17.7326 0.216746 19.0799 0.174485 19.243 0.210186C17.7798 0.206038 20.2097 0.245561 19.1884 0.192119C20.0298 0.211516 19.4641 0.1855 19.594 0.178691C19.7329 0.171437 20.2089 0.17932 20.1847 0.166239C20.1844 0.166239 20.1842 0.166239 20.1839 0.166239C19.8928 0.167155 19.6017 0.16807 19.3106 0.168986C19.5955 0.197204 19.0007 0.188743 18.7989 0.165751C18.716 0.171488 18.633 0.177226 18.5501 0.182963ZM20.1977 0.209454C20.169 0.208808 19.5358 0.212763 19.5767 0.218426C19.6612 0.222039 20.5598 0.217707 20.1977 0.209454ZM22.9842 0.203289C22.7568 0.20322 22.4053 0.197715 22.2815 0.208355C22.5088 0.208427 22.8604 0.213935 22.9842 0.203289ZM11.2781 0.201275C10.9883 0.210006 11.8804 0.212592 11.6223 0.202251C11.6096 0.201764 11.2923 0.200867 11.2781 0.201275ZM17.891 0.188274C17.5964 0.177541 17.7356 0.211703 17.9539 0.202801C17.9665 0.202276 17.9046 0.188763 17.891 0.188274ZM24.7416 1.11284C24.75 1.13255 24.7441 1.92772 24.7442 2.06867C24.7364 1.98859 24.732 1.09023 24.7416 1.11284ZM23.3843 0.171977C22.9319 0.141881 22.3181 0.176643 22.2508 0.175883C22.1839 0.175109 22.2889 0.161953 22.2736 0.1616C22.2388 0.160862 21.526 0.161966 21.4915 0.162882C21.4668 0.163596 21.5958 0.182084 21.4486 0.187908C21.7356 0.177403 23.0388 0.183975 23.1064 0.181926C23.1588 0.18029 22.7639 0.160876 23.3835 0.171977C23.3838 0.171977 23.384 0.171977 23.3843 0.171977ZM22.0826 0.171855C22.2607 0.179604 21.7613 0.180574 21.6404 0.177714C21.3719 0.171315 22.0597 0.170936 22.0826 0.171855ZM20.8815 0.164713C20.8245 0.162975 20.3098 0.161396 20.266 0.170024C20.5097 0.181215 21.0109 0.168763 20.8815 0.164713ZM15.1544 0.165873C15.0207 0.166978 14.6532 0.160349 14.6321 0.167887C14.7659 0.166788 15.1334 0.173412 15.1544 0.165873ZM24.8074 3.82587C24.8137 3.6038 24.8163 4.11831 24.8133 4.26841C24.8082 4.27655 24.8069 3.84477 24.8074 3.82587ZM17.8411 0.116188C17.762 0.113896 16.1473 0.119616 15.9208 0.123147C16.1424 0.128848 17.7426 0.129286 17.8152 0.126504C17.8364 0.125671 17.8512 0.116549 17.8411 0.116188ZM21.3331 0.112709C21.4811 0.101608 21.5777 0.114923 21.5964 0.11509C21.7795 0.116789 22.1592 0.114286 22.0759 0.124978C21.7528 0.120664 21.0384 0.134755 21.3331 0.112709ZM15.0397 0.115639C14.4914 0.119759 15.5445 0.131455 15.4063 0.119851C15.3974 0.119149 15.0963 0.115207 15.0397 0.115639ZM18.0215 0.112953C18.1424 0.103983 19.7576 0.111719 20.0169 0.111733C19.7846 0.128278 19.5974 0.115711 19.2855 0.116555C19.2013 0.116802 19.2238 0.123685 19.2147 0.123696C19.0689 0.124015 19.178 0.116065 19.0882 0.115944C19.0314 0.11589 17.8513 0.125592 18.0215 0.112953ZM21.4176 0.105019C21.5079 0.0986547 22.5164 0.0959419 22.557 0.0976331C22.8605 0.110211 21.496 0.107234 21.4176 0.105019ZM17.8733 0.0982435C18.047 0.0790142 18.8491 0.0918921 18.3002 0.101478C18.2477 0.102351 18.0257 0.0940149 17.8733 0.0982435ZM15.0982 0.0973279C15.0712 0.0967624 14.4997 0.0929187 14.4894 0.099037C14.572 0.101415 15.4052 0.103548 15.0982 0.0973279ZM15.3946 0.0766362C15.3808 0.0767829 15.5148 0.0885668 15.2468 0.0870736C15.2244 0.0869331 15.1828 0.073675 14.8459 0.0785284C14.7775 0.0795278 14.6716 0.0882986 14.6793 0.0888437C15.0301 0.10965 16.0866 0.0698006 15.3946 0.0766362ZM21.4361 0.094276C21.3817 0.0886799 21.5128 0.07207 21.631 0.0804816C21.6817 0.0841137 21.5871 0.0940818 21.4361 0.094276ZM13.2856 0.0919566C13.6179 0.0818832 12.5747 0.0799787 12.5216 0.0825568C12.5551 0.0888315 13.2524 0.0929405 13.2856 0.0919566ZM24.8852 4.34583C24.8852 4.34557 24.8852 4.34531 24.8852 4.34505C24.8829 4.62457 24.8745 4.45143 24.8742 4.46453C24.8619 5.05992 24.8809 4.902 24.8831 4.9951C24.8877 5.18469 24.8672 5.16523 24.8733 5.45117L24.8745 5.58291L24.7886 5.69247C24.7794 5.70452 24.7697 5.71729 24.7595 5.73085C24.7698 5.71727 24.7795 5.70448 24.7886 5.69245L24.8745 5.58289L24.8732 5.45117C24.8618 5.01566 24.8652 5.37278 24.8599 5.45117L24.8611 5.57834L24.7782 5.68411C24.773 5.68975 24.7694 5.69327 24.768 5.69389C24.7599 5.69733 24.7612 5.6912 24.7698 5.67741L24.8504 5.57468L24.8492 5.45117C24.8359 5.33672 24.8729 4.68965 24.8667 4.44645C24.8658 4.40777 24.8551 4.6933 24.852 4.59422C24.8422 4.27208 24.8939 3.27325 24.8852 4.34583ZM21.7222 0.0790167C21.8518 0.0691735 22.8354 0.0787205 22.5746 0.0868295C22.5327 0.0881296 21.5316 0.0933638 21.7222 0.0790167ZM2.63287 23.6368C2.65051 23.4009 2.58005 23.9443 2.57542 24.046C2.57314 24.0965 2.62511 23.7404 2.63287 23.6368ZM2.17244 27.4507C2.14314 27.7301 2.14574 28.0283 2.17886 27.6804C2.18236 27.6434 2.18089 27.4192 2.17244 27.4507ZM3.36242 9.69356C3.53574 9.93053 3.54325 9.90216 3.40848 9.73423C3.3609 9.67493 3.35696 9.68609 3.36242 9.69356ZM2.99429 20.2469C2.99023 20.276 2.95428 20.6132 2.96103 20.6015C2.97811 20.4773 3.02087 20.0589 2.99429 20.2469ZM3.30161 9.62292C3.41358 9.75607 3.2399 9.51167 3.09409 9.35609C3.1626 9.43954 3.29009 9.60922 3.30161 9.62292ZM17.2673 0.0461175C17.1217 0.0558028 16.7097 0.0528762 16.473 0.0545406C16.4475 0.0419927 17.0982 0.0483924 17.2673 0.0461175ZM2.31832 26.2671C2.29774 26.5324 2.36785 25.967 2.35046 26.0176C2.34903 26.0248 2.3191 26.2567 2.31832 26.2671ZM0.0774893 1.09703C0.0849744 1.29032 0.0950404 0.676582 0.0818841 0.845493C0.0813476 0.853821 0.077073 1.08643 0.0774893 1.09703ZM2.52115 0.0459954C2.37453 0.0434706 1.74915 0.0442473 1.99254 0.0515498C2.03034 0.052672 2.51015 0.0528512 2.52115 0.0459954ZM24.8922 5.01161C24.9047 4.93459 24.9021 5.36835 24.8999 5.45117L24.9013 5.59199L24.8094 5.70912C24.808 5.71076 24.8068 5.71222 24.8057 5.71349C24.8038 5.71574 24.8049 5.71373 24.8084 5.70831L24.9 5.59155L24.8986 5.45117C24.894 5.40153 24.8773 5.10281 24.8922 5.01161ZM4.01514 11.0134C3.99999 11.1644 3.95348 11.5552 3.95254 11.6249C3.97165 11.4402 4.03404 10.9652 4.01514 11.0134ZM2.45215 25.0621C2.41266 25.2907 2.37034 25.6841 2.39933 25.5889C2.44637 25.1544 2.37702 25.6407 2.45215 25.0621ZM2.67924 8.86909C2.75443 8.96479 2.82641 9.02663 2.81848 9.01539C2.74225 8.90749 2.60904 8.77039 2.67924 8.86909ZM3.33327 17.1326C3.32503 17.1387 3.28534 17.5268 3.29589 17.4756C3.29939 17.4588 3.33994 17.1276 3.33327 17.1326ZM12.158 0.0418448C11.9792 0.0349894 12.5252 0.0282872 12.6866 0.0362904C12.7651 0.0478225 12.1806 0.0426323 12.158 0.0418448ZM0.574404 6.23101C0.554359 6.2238 0.940203 6.69601 0.797328 6.50263C0.761562 6.45422 0.581288 6.23365 0.574404 6.23101ZM0.660986 0.0188947C0.251968 0.0321867 1.96949 0.0416232 1.51816 0.0250595C1.4859 0.0238794 0.696604 0.0177723 0.660986 0.0188947ZM3.46598 0.0271958C3.39541 0.0257312 3.43058 -0.011723 3.72262 0.00271982C3.76094 0.0045929 3.58163 0.0144939 3.61297 0.0167584C3.63139 0.018049 4.26638 0.0233093 4.29564 0.0224349C4.3271 0.0214421 4.29006 0.00943759 4.32198 0.00809112C4.35794 0.00658622 4.74883 0.0171315 4.95356 0.0172467C5.33933 0.0174445 5.38099 0.00745282 5.41261 0.00741971C5.50478 0.00735351 5.65968 0.0144478 5.8465 0.014439C6.7882 0.0143593 8.22844 0.00588989 8.97495 0.0270738C8.31062 0.0185669 7.67756 0.0275926 7.01653 0.0303698C7.21012 0.00951353 6.04405 0.0464396 6.72608 0.0223739C6.41204 0.027594 3.69727 0.0317686 3.46676 0.0271958C3.4665 0.0271958 3.46624 0.0271958 3.46598 0.0271958ZM2.63608 28.8848C2.46351 28.8976 3.34895 28.8947 3.42409 28.8799C3.3072 28.8779 2.65747 28.8833 2.63608 28.8848ZM2.45969 24.4879C2.46658 24.406 2.45035 24.3256 2.51057 23.8985C2.51061 23.8981 2.51066 23.8977 2.5107 23.8973C2.5283 23.7724 2.51849 23.9158 2.5232 23.8931C2.52501 23.8849 2.58079 23.4954 2.54671 23.8202C2.49476 24.3156 2.52305 23.8648 2.49346 24.1287C2.48986 24.1609 2.44781 24.6619 2.45399 24.6332C2.45466 24.6303 2.46852 24.4796 2.4725 24.455C2.48753 24.3617 2.49022 24.4082 2.49206 24.395C2.49781 24.3519 2.57236 23.5605 2.59667 23.4469C2.60453 23.41 2.46906 24.7075 2.46151 24.7578C2.45674 24.7896 2.4367 24.7738 2.43091 24.8066C2.42796 24.8235 2.37809 25.3459 2.36859 25.4134C2.36583 25.433 2.36354 25.448 2.36181 25.4589C2.37724 25.3808 2.32428 25.853 2.31838 25.8377C2.31633 25.8292 2.35416 25.5043 2.35597 25.4927C2.35676 25.4876 2.35755 25.4832 2.35822 25.4791C2.34262 25.5455 2.46527 24.445 2.42679 24.6812C2.45562 24.3614 2.43949 24.7284 2.45969 24.4879ZM2.6168 22.9529C2.6154 22.9861 2.61401 23.0193 2.61261 23.0525C2.66913 22.4933 2.75164 21.85 2.82305 21.2066C2.84119 21.0434 2.80647 21.2296 2.83403 21.0161C2.85611 20.845 2.89004 20.6566 2.88255 20.7502C2.88074 20.773 2.83359 21.1211 2.81504 21.2959C2.76027 21.8119 2.78663 21.683 2.7836 21.7131C2.78024 21.7465 2.73582 22.0701 2.71649 22.2474C2.66793 22.6932 2.65261 22.8976 2.57542 23.5055C2.60664 23.1532 2.56824 23.3438 2.6168 22.9529ZM0.0342748 3.53926C0.0267524 3.51789 0.0334265 3.15016 0.0323216 3.01654C0.0398626 3.03756 0.0331694 3.40558 0.0342748 3.53926ZM22.0217 20.0759C21.997 19.965 22.0875 20.8067 22.073 20.5839C22.0698 20.5345 22.0334 20.1816 22.0217 20.0759ZM22.4343 23.8567C22.4502 23.9689 22.4087 23.5147 22.3993 23.5166C22.3963 23.5176 22.4322 23.8423 22.4343 23.8567ZM3.43107 15.7345C3.43305 15.7131 3.47019 15.4038 3.47189 15.3942C3.50771 15.1905 3.38694 16.2088 3.43107 15.7345ZM22.4357 28.9214C22.4574 28.9209 22.4743 28.9205 22.487 28.9201L23.0154 28.9149L22.953 28.3994C22.9468 28.3562 22.9463 28.3634 22.9494 28.3998L23.0112 28.9113L22.487 28.9164C22.3417 28.9124 21.7311 28.9123 22.0053 28.9201C22.0234 28.9206 22.4167 28.9217 22.4357 28.9214ZM20.7842 28.9236C20.8788 28.9232 21.299 28.9272 21.3046 28.9234C21.313 28.9174 20.832 28.9132 20.7842 28.9236ZM2.59151 8.83408C2.60913 8.87837 2.27121 8.43911 2.1495 8.28977C2.13179 8.24536 2.46984 8.6848 2.59151 8.83408ZM3.89372 11.4424C3.94183 10.9901 3.97953 10.6454 4.00737 10.3979L4.11017 10.7526C3.67018 10.2011 3.72592 10.2572 4.11921 10.7454L4.01887 10.3992C3.98801 10.6858 3.94302 11.0875 3.88509 11.5814C3.87591 11.5832 3.87813 11.589 3.89372 11.4424ZM2.90102 9.23474C2.96101 9.29547 3.12466 9.50426 3.23607 9.64466C3.21109 9.62336 2.98303 9.3347 2.90102 9.23474ZM21.9294 19.0718C21.9568 19.2162 22.0146 19.8625 21.9973 19.7484C21.9933 19.7218 21.9173 19.019 21.9294 19.0718ZM3.44085 15.5386C3.4214 15.5912 3.50435 14.8946 3.51326 14.8416C3.54918 14.6278 3.44416 15.4818 3.44085 15.5386ZM0.511024 6.25252C0.432768 6.1702 0.246098 5.93092 0.106727 5.75539L0.00171727 5.62671L1.35005e-05 5.45117C9.10461e-05 5.43 0.000142753 5.40953 0.000154883 5.38999C0.00144801 5.4047 0.00247782 5.42559 0.00329265 5.45117L0.00498495 5.62553L0.109288 5.75334C0.209078 5.87024 0.408331 6.12389 0.511024 6.25252ZM1.52492 7.53317C1.51572 7.52234 1.31934 7.27532 1.3109 7.26399C1.15745 7.05562 1.71305 7.75436 1.52492 7.53317ZM24.9869 3.95831C24.9872 3.96883 24.9866 4.20781 24.9862 4.21614C24.976 4.42944 24.9781 3.71219 24.9869 3.95831Z" fill="black"/>
</svg>
