<svg width="38" height="38" viewBox="0 0 38 38" fill="none" xmlns="http://www.w3.org/2000/svg">
<path d="M9 20H29V37H9V20Z" fill="#D9D9D9"/>
<path d="M14.7258 20.492C14.7716 20.4907 14.9558 20.4938 15.0355 20.4933C14.9451 20.5067 14.5607 20.4966 14.7258 20.492ZM22.9037 19.5179C22.8376 19.5212 22.7714 19.5245 22.7053 19.5279C22.8932 19.53 23.1459 19.5276 23.3204 19.5307C23.3489 19.5313 23.2749 19.5409 23.3424 19.5413C23.4099 19.5417 23.3969 19.5286 23.4951 19.5272C23.6053 19.5257 24.1097 19.5348 24.2844 19.5346C24.9377 19.5337 25.5967 19.5262 26.2514 19.5316C25.5755 19.5414 26.2566 19.5512 26.4459 19.547C26.4878 19.5461 26.4811 19.5217 27.1592 19.5278C27.5901 19.5317 27.1921 19.5666 27.9112 19.5491C27.3582 19.5247 27.902 19.5264 28.3355 19.5256C28.3895 19.5255 28.7203 19.5274 29 19.528L29.4655 19.5217L29.472 20C29.4717 20.107 29.4717 20.2066 29.472 20.2803C29.4723 20.3715 29.4851 20.5105 29.4854 20.6315C29.4857 20.7147 29.4787 20.7777 29.479 20.9013C29.4806 21.4777 29.4811 22.0445 29.4788 22.6219C29.446 22.2845 29.4648 22.8867 29.4632 22.9138C29.4543 23.0513 29.4518 22.4292 29.4462 22.6752C29.4472 23.0191 29.4482 23.3629 29.4492 23.7067C29.4533 23.4245 29.4769 24.0803 29.4662 24.201C29.4952 24.1479 29.4409 25.7681 29.4506 26.0147C29.4526 26.0661 29.467 25.7298 29.4604 26.5099C29.4597 26.5943 29.4509 26.5624 29.4517 26.6067C29.4522 26.6332 29.4801 26.7938 29.4647 26.9649C29.4591 27.0274 29.4408 26.6277 29.4481 27.5055C29.4765 27.1559 29.4635 28.7227 29.4564 29.0109C29.4602 28.9533 29.464 28.8958 29.4678 28.8382C29.4575 29.1231 29.4672 29.1745 29.4666 29.2387C29.4645 29.4974 29.4548 29.8531 29.4557 30.0941C29.4567 30.3761 29.4743 30.377 29.4675 30.7058C29.4714 30.6278 29.4753 30.5498 29.4792 30.4718C29.4782 30.6988 29.4773 30.9259 29.4763 31.1529C29.453 30.6271 29.4752 31.2664 29.4757 31.3085C29.4766 31.3756 29.467 31.2791 29.4682 31.3915C29.4684 31.4031 29.4774 31.3863 29.4784 31.5594C29.4805 31.9212 29.4692 31.864 29.4693 32.0159C29.4694 32.0298 29.4775 31.9811 29.4794 32.2434C29.4855 33.0772 29.4732 32.2393 29.4721 32.2073C29.4706 32.1653 29.4368 32.4511 29.4488 31.7429C29.4449 31.9807 29.43 32.0046 29.4296 32.0314C29.4293 32.0551 29.4314 32.4671 29.4319 32.4899C29.437 32.6924 29.4472 32.5142 29.4491 32.5536C29.4505 32.5859 29.4372 33.0823 29.468 33.1987C29.4396 33.4362 29.4422 33.062 29.4378 32.6637C29.432 32.6056 29.4263 33.043 29.4264 33.066C29.4264 33.6302 29.4498 33.3178 29.4647 33.4412C29.4725 33.5059 29.4566 33.7358 29.4775 33.5236C29.4797 34.0357 29.4676 33.7251 29.4658 33.7582C29.4631 33.8081 29.4692 33.9873 29.4683 34.0097C29.4672 34.0426 29.4599 33.9282 29.4574 34.058C29.457 34.0795 29.4695 34.2887 29.4754 34.019C29.4737 34.3793 29.4843 34.3496 29.4629 34.4718C29.5034 34.7199 29.4389 34.6519 29.4366 34.7496C29.4306 35.0094 29.4625 34.934 29.464 34.9477C29.474 35.0423 29.463 35.7616 29.4676 35.9397C29.4447 35.8694 29.4674 35.3695 29.4629 35.2577C29.4481 34.885 29.4515 35.783 29.4226 35.5123C29.4305 35.6258 29.4385 35.7393 29.4464 35.8528C29.4278 36.0608 29.4198 35.7656 29.4265 36.3256C29.4425 36.4172 29.424 35.9297 29.4366 36.0275C29.444 36.0851 29.4456 36.4098 29.4495 36.4162C29.4542 36.4226 29.4486 36.1292 29.4558 36.1754C29.4714 36.2764 29.4566 37.3467 29.4481 36.5319C29.4483 36.7296 29.4249 36.8439 29.4252 37L29.4308 37.4193L29 37.4252C28.9766 37.4252 28.9523 37.4258 28.9266 37.427C28.879 37.4294 28.9494 37.4368 29 37.4448L29.4507 37.4387L29.4448 37C29.4517 36.9567 29.4589 36.9279 29.4637 37L29.4699 37.4574L29 37.4637C28.931 37.4683 28.7697 37.4706 28.4405 37.4682C28.4176 37.4536 28.8706 37.4639 28.8823 37.4628C28.8988 37.4612 28.8169 37.4282 28.8027 37.4265C28.7526 37.4212 27.6541 37.4389 27.422 37.4223C27.5139 37.4413 26.592 37.4257 26.4916 37.4315C26.4649 37.4331 26.5648 37.4448 26.5362 37.446C26.358 37.4534 25.8758 37.4325 25.6521 37.432C25.4018 37.4314 25.4335 37.4415 25.4195 37.4414C25.3093 37.4409 25.3973 37.434 25.33 37.434C25.2283 37.4341 24.5292 37.4327 24.4941 37.4341C24.4839 37.4346 24.598 37.4461 24.4456 37.4483C24.4192 37.4486 24.4359 37.435 23.9846 37.4409C23.4411 37.448 24.362 37.4579 24.1362 37.4722C23.7871 37.4518 23.7984 37.472 23.7037 37.4704C23.6709 37.4698 23.427 37.4527 23.162 37.4538C23.3522 37.451 23.5424 37.4482 23.7325 37.4454C23.5456 37.4424 23.1825 37.4461 23.0285 37.4427C22.9534 37.4411 23.0153 37.427 22.8521 37.4273C22.8174 37.4275 22.68 37.4619 23.1075 37.4464C23.1417 37.4587 22.9383 37.4507 22.8439 37.4542C22.8296 37.4547 22.7733 37.4752 22.6528 37.4625C22.6238 37.4594 22.9389 37.3996 22.1263 37.4428C22.1001 37.4442 22.1911 37.4517 22.1655 37.4533C22.1481 37.4543 21.9406 37.4513 21.9177 37.4524C21.8943 37.4535 21.9944 37.4617 21.9665 37.4633C21.8235 37.4716 21.6356 37.4391 21.9307 37.4416C21.8321 37.4376 21.7335 37.4336 21.6348 37.4296C21.7404 37.454 21.48 37.4365 21.3435 37.4372C20.4691 37.442 21.0546 37.4579 20.9043 37.4662C20.6625 37.4794 20.8472 37.4375 20.4882 37.4501C20.455 37.4513 20.8889 37.469 20.0416 37.459C20.1667 37.4583 20.2917 37.4576 20.4168 37.4569C20.3447 37.4333 19.9652 37.4586 19.936 37.4589C19.6033 37.4621 19.8282 37.4536 19.3342 37.4658C19.2901 37.4669 19.194 37.461 19.0996 37.464C18.7085 37.4759 19.6157 37.4712 19.6405 37.4808C19.6522 37.4855 18.6766 37.4843 18.6432 37.4821C18.5009 37.4722 19.0854 37.4777 18.974 37.4655C18.9333 37.4611 17.5429 37.4701 17.2639 37.4653C16.942 37.4597 16.7971 37.4277 16.795 37.4637C16.7042 37.4284 16.6239 37.4525 16.5827 37.4522C16.0849 37.449 16.084 37.4486 15.6571 37.452C15.5628 37.4527 15.4833 37.442 15.4499 37.4438C15.4305 37.4449 15.4668 37.4564 15.3717 37.4599C15.2397 37.4648 14.4461 37.453 14.3871 37.4466C14.3281 37.4403 14.7222 37.4439 14.6516 37.4334C14.3663 37.4324 14.0927 37.435 13.8056 37.4339C13.6863 37.4334 13.7476 37.4261 13.6961 37.4259C13.6741 37.4258 13.2622 37.4323 13.2797 37.435C13.3206 37.4412 14.5924 37.437 14.2575 37.4498C14.1929 37.4523 13.9646 37.4354 14.0009 37.4559C12.8646 37.4513 11.7283 37.4466 10.592 37.442C11.2449 37.4267 11.9796 37.4404 12.6634 37.4389C12.7572 37.4388 13.074 37.4407 13.0355 37.4304C12.454 37.4277 11.7311 37.4331 11.1727 37.4264C11.1548 37.4261 11.2204 37.4168 11.1535 37.4154C11.0284 37.4126 10.621 37.4276 10.5525 37.4237C10.5408 37.4228 10.7726 37.4106 10.7021 37.4028C10.5211 37.3828 10.4752 37.4271 10.3196 37.4265C10.1993 37.4261 9.3907 37.4047 9.18932 37.4182C8.97518 37.4326 9.78522 37.4266 9.72538 37.4384C9.48367 37.4436 9.24062 37.4441 9 37.4431L8.563 37.449L8.55693 37C8.55819 36.695 8.56177 36.394 8.56095 36.1045C8.56091 36.0954 8.55168 36.1746 8.55039 36.059C8.54814 35.858 8.56123 35.8052 8.56333 35.7073C8.56556 35.6018 8.56368 35.2285 8.56846 35.1786C8.56908 35.1722 8.58207 35.2478 8.58243 35.2593C8.58779 35.4219 8.57093 35.4797 8.57071 35.4945C8.57007 35.55 8.57653 35.6047 8.57615 35.6554C8.5755 35.7389 8.56953 35.7848 8.569 35.895C8.56862 35.9711 8.58009 35.8977 8.57956 35.971C8.57933 35.9979 8.55313 36.288 8.57987 36.3151C8.5883 36.3235 8.59912 33.9507 8.59238 33.7135C8.58917 33.9169 8.58595 34.1204 8.58274 34.3238C8.59056 33.9107 8.5692 33.4144 8.60081 33.3793C8.60339 31.8473 8.60597 30.3153 8.60856 28.7833C8.61125 28.5098 8.63156 28.6598 8.62565 28.2097C8.61918 28.326 8.61271 28.4423 8.60624 28.5586C8.61078 28.328 8.61964 27.3058 8.61545 27.1404C8.61491 27.119 8.59652 27.0893 8.59495 26.8339C8.59355 26.6072 8.60732 26.5708 8.60996 26.4497C8.61214 26.3479 8.60853 26.2337 8.60929 26.2035C8.6099 26.1803 8.61832 26.1712 8.61979 26.1154C8.62433 25.9395 8.60062 26.0821 8.62784 25.9074C8.62888 25.9499 8.62992 25.9924 8.63096 26.035C8.6349 25.8226 8.64726 25.5324 8.65336 25.8453C8.65441 25.8991 8.64626 25.8529 8.64628 25.893C8.64779 27.4639 8.66363 26.2095 8.65098 25.659C8.66305 25.5176 8.65568 24.7252 8.65806 24.6989C8.6615 24.6623 8.67115 24.7979 8.67948 24.6201C8.68125 24.5828 8.67449 23.5233 8.69053 23.9048C8.69384 23.9835 8.69036 24.4915 8.69084 24.6139C8.71642 24.3258 8.67976 23.6505 8.6807 23.5746C8.68469 23.2682 8.70288 24.1631 8.70585 23.4729C8.70813 22.9423 8.69105 23.4405 8.68376 23.2364C8.67966 23.1217 8.69848 22.5211 8.67411 22.5374C8.67151 22.3313 8.68441 22.4519 8.68534 22.4265C8.68616 22.4016 8.67886 21.9963 8.684 21.8647C8.68464 21.8488 8.69731 21.899 8.69834 21.8825C8.70012 21.8504 8.69759 21.4595 8.69651 21.4438C8.69577 21.4339 8.68467 21.527 8.68199 21.4887C8.67888 21.4441 8.68149 21.068 8.67832 21.0472C8.67353 21.0179 8.67669 21.4823 8.66428 21.4049C8.66741 21.1909 8.65913 20.8421 8.64915 20.7009C8.652 20.7355 8.65241 20.943 8.65141 21.015C8.63324 20.9811 8.63349 20.5355 8.64787 20.6879C8.64014 20.5911 8.63605 20.6572 8.62876 20.6026C8.62691 20.5883 8.62653 20.4507 8.62339 20.4242C8.62276 20.4208 8.61591 20.5627 8.61222 20.5343C8.60555 20.4828 8.60705 20.0657 8.6088 20.0316C8.61376 19.9355 8.61976 20.2756 8.62742 20.304C8.62859 20.308 8.64361 20.0187 8.64494 20.0143C8.65916 19.9974 8.64891 20.3193 8.66172 20.2825C8.66443 20.2029 8.66713 20.1233 8.66984 20.0437C8.68281 20.3508 8.67614 20.9188 8.6909 21.0653C8.68651 20.61 8.68702 20.1336 8.72026 20.1346C8.73425 20.1349 8.74245 20.3313 8.74601 20.3237C8.75875 20.2948 8.74491 20.0221 8.74559 20.0121C8.74636 20.0038 8.74712 20 8.74785 20C8.74785 20 8.74785 20 8.74785 20C8.75531 20 8.76068 20.3887 8.76408 20.4081C8.77013 20.4408 8.79501 20.2678 8.80052 20.2681C8.80163 20.2741 8.80752 20.5509 8.81712 20.4575C8.82683 20.363 8.82704 20.1208 8.82805 20.1123C8.83385 20.066 8.83915 20.4898 8.84257 20.5024C8.84431 20.5091 8.85496 20.2815 8.85802 20.2749C8.86109 20.2692 8.86779 20.4422 8.87749 20.5103C8.88469 20.5611 8.89021 20.4132 8.89134 20.4392C8.89209 20.4578 8.89197 20.8582 8.89324 20.8779C8.89511 20.9072 8.90372 20.8134 8.90587 20.827C8.90897 20.8464 8.90586 20.9757 8.90904 20.9589C8.91142 20.9462 8.9411 20.445 8.94902 20.4482C8.96254 20.4539 8.93143 20.9848 8.98479 20.4908C8.98514 20.4874 8.98135 20.3672 8.98168 20.3638C8.9915 20.2896 9.0066 20.675 9.00396 20.2037C9.02101 21.0804 9.02428 20.3128 9.04705 20.4426C9.0558 20.4927 9.05941 20.8325 9.06072 20.8341C9.07182 20.8011 9.06321 20.6928 9.06866 20.656C9.0717 20.6357 9.08344 20.9398 9.09106 20.8714C9.09499 20.836 9.09359 20.5132 9.09435 20.4999C9.10158 20.3721 9.10936 20.5288 9.1145 20.5007C9.11794 20.4821 9.11821 20.2873 9.11883 20.2822C9.12012 20.274 9.13402 20.5385 9.13891 20.5936C9.14267 20.6355 9.14856 20.4783 9.1502 20.5075C9.16001 20.6836 9.135 21.0582 9.17004 20.6972C9.17219 20.6751 9.17132 20.5386 9.17175 20.5346C9.18168 20.4502 9.18254 20.7016 9.19067 20.7466C9.20468 20.8238 9.19687 20.4625 9.20672 20.763C9.21589 20.5375 9.2155 20.4119 9.21295 20.1481C9.22008 20.8785 9.25635 21.1363 9.25543 20.3254C9.25487 20.5834 9.27534 20.5547 9.2757 20.6317C9.2759 20.6796 9.25554 21.0536 9.30121 20.8821C9.30691 20.8606 9.29967 20.6334 9.31134 20.7045C9.30836 21.2498 9.31877 20.7161 9.32031 20.7155C9.34721 20.7226 9.32518 22.055 9.32825 22.2839C9.33181 22.5496 9.353 22.7857 9.35303 22.8434C9.35304 23.0334 9.34228 22.8758 9.33832 22.9182C9.3344 22.9613 9.35502 23.5016 9.35389 23.5285C9.34934 23.6332 9.33658 23.527 9.33594 23.5379C9.32813 23.6674 9.33811 24.393 9.33515 24.5962C9.34342 24.5899 9.34408 24.182 9.35736 24.4367C9.37286 24.7332 9.33639 24.7501 9.33478 24.7579C9.33513 26.1165 9.33547 27.475 9.33582 28.8336C9.35522 28.8167 9.34059 27.9284 9.34314 27.9082C9.35827 27.7896 9.35799 29.29 9.35114 29.4741C9.35533 29.3343 9.35952 29.1944 9.36371 29.0546C9.38602 29.2934 9.35704 29.8218 9.36689 30.1671C9.37008 30.2787 9.37869 30.0644 9.37928 30.0689C9.38794 30.1943 9.38127 30.3955 9.36963 30.245C9.38078 30.5511 9.36848 30.5064 9.36756 30.7413C9.36752 30.7534 9.37652 30.6525 9.38025 30.8384C9.382 30.9255 9.38202 31.3899 9.3899 31.4521C9.39321 31.4777 9.42812 31.2421 9.39808 31.213C9.41272 30.7078 9.38439 31.0516 9.38508 30.8553C9.38523 30.8252 9.402 30.8945 9.39411 30.4003C9.42435 30.4944 9.40174 31.0635 9.4054 31.1611C9.41293 31.3622 9.42855 30.5332 9.40497 30.3811C9.42857 30.4522 9.40815 30.3223 9.40912 30.1375C9.41018 29.9352 9.4172 30.0234 9.41724 29.9139C9.41742 29.6146 9.40076 29.7387 9.41578 29.4919C9.36928 29.7325 9.40964 29.0694 9.42182 28.8762C9.42418 29.1906 9.42654 29.505 9.4289 29.8193C9.43134 29.8014 9.43378 29.7834 9.43623 29.7654C9.43588 29.8482 9.43553 29.931 9.43519 30.0138C9.43285 30.0006 9.43051 29.9873 9.42817 29.974C9.44338 30.401 9.42628 30.5052 9.42609 30.54C9.42411 30.9882 9.42426 31.5059 9.4242 31.9591C9.42419 32.0271 9.43941 31.9804 9.4275 32.476C9.4237 32.634 9.41186 32.4848 9.41364 32.664C9.44581 32.8881 9.42015 32.8838 9.42011 32.9505C9.42012 33.1417 9.42808 33.2586 9.42817 33.2762C9.42941 33.5125 9.42808 33.8585 9.42927 34.118C9.42939 34.1229 9.43927 33.9879 9.43635 34.1564C9.4353 34.2156 9.39311 34.7466 9.40687 35.2108C9.40971 35.09 9.41256 34.9693 9.41541 34.8486C9.41143 34.9906 9.42206 35.9853 9.43336 35.742C9.44026 35.5929 9.41307 35.2289 9.43922 35.189C9.43372 35.4216 9.43786 36.3933 9.4387 37L9 36.5613C9.25679 36.5609 9.4482 36.5612 9.49052 36.563C9.51021 36.5638 9.38908 36.5723 9.41628 36.5734C9.43733 36.5742 9.85609 36.5722 9.9117 36.5755C9.94478 36.5774 9.75974 36.5826 9.77478 36.5857C9.78796 36.5879 10.3109 36.5915 10.3408 36.5809C10.2123 36.5851 9.8514 36.5814 10.0407 36.5724C10.065 36.5713 10.1912 36.5782 10.2208 36.5768C10.4953 36.5637 9.67505 36.5669 9.54811 36.5668C10.0633 36.5532 10.8602 36.5692 11.4572 36.5604C11.6985 36.5692 11.0996 36.5739 11.3725 36.5812C11.9387 36.5964 11.5232 36.569 11.5408 36.5679C11.6814 36.5589 12.1604 36.6068 12.1607 36.5704C12.366 36.5759 12.2995 36.5804 12.5892 36.5757C12.5511 36.5732 12.513 36.5706 12.4749 36.5681C12.7965 36.547 13.4772 36.6002 13.4262 36.6043C13.289 36.6152 12.9345 36.5982 12.9042 36.5986C12.8594 36.5992 12.7355 36.6362 12.2451 36.6031C12.0443 36.6279 13.0224 36.6199 12.5773 36.6368C12.8779 36.634 14.1145 36.6513 14.2925 36.6404C14.3138 36.639 14.2148 36.6143 14.5203 36.6268C14.6654 36.6328 14.3156 36.6331 14.382 36.6387C14.5862 36.656 17.3636 36.645 17.8911 36.644C17.9254 36.644 17.9128 36.6517 17.9465 36.6516C18.0498 36.6514 18.4265 36.64 18.6115 36.6435C18.2282 36.6293 18.9726 36.6282 19.162 36.6298C19.4494 36.6321 19.4316 36.6456 19.5558 36.6485C20.0343 36.6596 20.7758 36.6275 21.1476 36.6575C21.1273 36.6277 21.7907 36.672 22.0924 36.6723C22.3288 36.6725 22.6718 36.6528 22.3527 36.6409C22.7607 36.6422 23.1903 36.6367 23.573 36.6349C23.6363 36.6346 23.5492 36.6434 23.6572 36.6426C23.667 36.6424 23.6805 36.6338 23.7732 36.6329C24.5384 36.6254 24.1661 36.6437 24.3092 36.6491C24.3894 36.6521 24.4485 36.6536 24.4919 36.6541C24.0459 36.6558 23.5314 36.6592 23.3938 36.6594C23.5111 36.6784 24.3824 36.6558 24.6375 36.6609C24.6464 36.6611 24.6156 36.6716 24.6246 36.6716C24.6248 36.6716 24.6249 36.6716 24.6251 36.6716C24.7208 36.6724 25.3298 36.6686 25.2044 36.6561C25.1707 36.6527 24.8904 36.6527 24.5579 36.6539C24.6479 36.6515 24.5807 36.6398 24.5966 36.6393C24.7892 36.6335 25.2609 36.6449 25.4282 36.6465C25.4665 36.6468 25.4637 36.6393 25.47 36.6393C25.6222 36.641 25.5598 36.6625 25.7159 36.6403C25.9915 36.6671 25.1994 36.6443 25.2552 36.6617C25.2981 36.6751 27.0575 36.6679 27.0522 36.6468C27.0583 36.649 27.0825 36.6518 27.1321 36.655C27.2422 36.6621 27.7319 36.6599 27.8164 36.656C27.8307 36.6552 27.825 36.6348 27.8426 36.6346C27.8869 36.6341 28.4854 36.6502 28.709 36.6381C28.5883 36.6352 28.4675 36.6323 28.3468 36.6295C29.0759 36.6293 28.9632 36.6232 28.7203 36.6171C28.7081 36.617 28.6963 36.6162 28.6847 36.6161C28.4964 36.6116 28.2551 36.6073 28.2514 36.6056C28.243 36.6019 28.6963 36.5992 29 36.6019L28.6019 37C28.6036 36.8038 28.6076 36.67 28.615 36.7634C28.6162 36.7779 28.6152 36.8958 28.6149 37L29 36.6149C28.8663 36.6145 28.7552 36.6151 28.9145 36.6227C28.9268 36.6233 28.9587 36.6235 29 36.6235L28.6235 37C28.6235 36.8749 28.6216 36.6636 28.6227 36.6491C28.6284 36.5751 28.6352 36.8069 28.6426 37L29 36.6426C28.8561 36.6481 28.7337 36.6539 28.7756 36.66C28.8447 36.6552 28.9207 36.653 29 36.652L28.652 37C28.6502 36.8557 28.6524 36.7004 28.6501 36.5562C28.6486 36.4545 28.6383 36.4296 28.6381 36.417C28.6354 36.2296 28.6462 36.3348 28.6459 36.2722C28.6457 36.2387 28.6228 35.8693 28.6544 35.9391C28.6312 34.7222 28.6312 35.6025 28.633 36.349C28.6215 36.1131 28.6271 35.6507 28.6244 35.4432C28.6234 35.3687 28.6129 35.4128 28.6108 35.287C28.6064 35.0282 28.6185 33.7922 28.6214 33.4702C28.6251 33.668 28.6366 33.6102 28.6358 33.4575C28.635 33.3049 28.6197 33.4331 28.618 33.4033C28.6163 33.3714 28.6236 32.6553 28.6216 32.5361C28.6271 33.0753 28.6386 32.9537 28.6398 32.4961C28.6431 32.5622 28.6464 32.6284 28.6497 32.6945C28.645 32.4263 28.6625 31.8624 28.6573 31.7073C28.6565 31.683 28.6468 31.7704 28.6464 31.7567C28.6423 31.6208 28.6521 31.1581 28.6488 31.1366C28.6461 31.1183 28.638 31.3157 28.634 31.2424C28.6332 31.2271 28.6462 31.0369 28.643 30.8495C28.6418 30.7799 28.6327 30.8218 28.6322 30.8043C28.6278 30.6583 28.6431 30.7445 28.6407 30.4777C28.6389 30.2822 28.6239 30.1367 28.6288 29.8665C28.6097 30.7534 28.6177 30.0079 28.6119 29.637C28.611 29.5776 28.5945 29.6286 28.6025 29.2735C28.6324 30.0292 28.6183 29.058 28.6186 28.8593C28.6187 28.8484 28.6296 28.8447 28.6298 28.7473C28.6298 28.739 28.6224 28.7509 28.6219 28.6603C28.6166 27.8015 28.6249 28.3506 28.6321 28.1875C28.6352 28.118 28.6248 27.7004 28.6246 27.5879C28.6245 27.562 28.6322 27.5739 28.6319 27.4739C28.6313 27.2968 28.6232 27.1382 28.6226 27.0214C28.6225 27.0077 28.6346 27.0072 28.6307 26.7856C28.6296 26.7234 28.6253 26.6534 28.6218 26.7419C28.6104 27.0353 28.6302 27.5917 28.6188 27.9233C28.6084 28.2256 28.6074 27.2722 28.6074 27.2226C28.6073 27.2044 28.6133 27.3906 28.6145 27.2015C28.6155 27.0399 28.5946 26.7447 28.5992 26.5039C28.5995 26.4856 28.6172 26.2932 28.6182 26.3021C28.619 26.3101 28.6228 26.6055 28.6279 26.5626C28.6285 26.5575 28.6284 26.3698 28.6322 26.3453C28.6368 26.3153 28.6823 26.2343 28.6835 26.1943C28.6863 26.0914 28.6759 26.1583 28.6766 26.0918C28.6782 25.9491 28.6916 25.4541 28.6758 25.438C28.6749 25.5198 28.674 25.6015 28.673 25.6833C28.6714 25.2284 28.6647 25.4223 28.6617 25.3578C28.6585 25.2884 28.6724 25.308 28.6737 25.1546C28.674 25.1212 28.6711 24.4795 28.6653 24.4912C28.6745 24.8461 28.6574 24.7145 28.6571 24.7309C28.656 24.793 28.6656 24.8724 28.6654 24.9559C28.6639 25.5425 28.6487 24.9509 28.6448 25.0894C28.6435 25.1371 28.6517 25.232 28.6513 25.2523C28.6499 25.318 28.6392 25.3191 28.6401 25.3629C28.6421 25.4652 28.6573 25.3458 28.6581 25.3539C28.6676 25.4453 28.6558 25.8036 28.6392 25.5806C28.6333 25.7145 28.6534 25.7301 28.6453 25.8363C28.6294 26.0474 28.6335 25.7312 28.6309 25.6455C28.6213 25.3381 28.629 25.247 28.6264 24.8119C28.6255 24.6552 28.6157 24.4696 28.6152 24.3969C28.6148 24.3511 28.6488 23.9188 28.5956 23.906C28.6008 23.7379 28.6358 23.4742 28.6342 23.3011C28.6328 23.1456 28.6139 23.1951 28.6132 23.1805C28.6121 23.1583 28.6136 22.9703 28.6109 22.9067C28.6078 22.8322 28.6006 22.8694 28.5977 22.7512C28.5904 22.457 28.6096 22.4647 28.6108 22.4345C28.6253 22.0834 28.5979 22.2371 28.5958 22.1592C28.5937 22.0868 28.6043 21.0706 28.5973 20.8567C28.6012 20.9438 28.605 21.0308 28.6089 21.1179C28.6209 20.9621 28.6013 20.797 28.6228 20.7941C28.5881 20.7625 28.6113 20.441 28.6104 20.3444C28.61 20.3063 28.6041 20.3093 28.6039 20.2617C28.6035 20.1956 28.6039 20.1002 28.6043 20L29 20.3957C28.8179 20.3948 28.6202 20.3935 28.5551 20.3955C28.2604 20.4042 28.6735 20.4168 29 20.4244L28.5756 20C28.5719 20.1571 28.5693 20.2941 28.5689 20.3227C28.569 20.2693 28.5684 20.1407 28.567 20L29 20.433C28.6768 20.4362 28.2903 20.4435 28.609 20.4551C28.6797 20.4577 28.805 20.4422 28.8447 20.4416C29.1135 20.4376 28.9021 20.4515 28.9232 20.4528C28.9356 20.4536 28.965 20.4524 29 20.4507L28.5493 20C28.5525 20.066 28.5579 20.1521 28.5569 20.1826C28.5564 20.1982 28.5438 20.0979 28.5435 20.3543C28.5387 20.3043 28.5373 20.1608 28.5373 20L29 20.4627C28.7552 20.4628 28.4702 20.4599 28.4131 20.4616C28.3795 20.4626 28.5905 20.4887 27.9739 20.4634C27.981 20.4658 27.9882 20.4682 27.9953 20.4707C27.652 20.4716 27.3086 20.4726 26.9653 20.4736C27.0026 20.4681 27.1954 20.4569 26.9526 20.4592C26.8128 20.4606 26.9162 20.473 26.9034 20.4734C26.778 20.4768 24.5577 20.4727 24.1274 20.4741C23.9811 20.4745 23.5731 20.4845 23.542 20.4847C23.3559 20.4857 22.6972 20.4792 22.5658 20.4806C22.4837 20.4815 22.5618 20.4919 22.4885 20.4914C22.4203 20.4909 22.4909 20.4809 22.4707 20.4805C22.303 20.4768 21.0296 20.49 20.7273 20.4805C20.9121 20.4834 21.8343 20.4633 21.8158 20.4562C21.8118 20.4553 21.5876 20.4476 21.5414 20.4514C21.465 20.4427 21.2027 20.4691 21.0601 20.4639C21.0439 20.4633 21.1075 20.4485 20.8529 20.4458C20.7652 20.4449 20.5355 20.4565 20.3044 20.4435C19.9698 20.4497 18.2105 20.4305 18.0898 20.4464C18.0863 20.4473 18.334 20.4528 18.1666 20.4593C17.9441 20.468 18.1439 20.4387 17.8846 20.4362C17.8455 20.4358 17.124 20.4387 17.1004 20.4406C16.8819 20.457 17.5124 20.4637 17.5035 20.4656C17.4815 20.4704 16.9577 20.4733 16.9364 20.4722C16.9161 20.471 17.3434 20.4492 16.83 20.4575C16.8888 20.4601 16.9476 20.4627 17.0064 20.4653C16.765 20.4704 16.742 20.4553 16.6835 20.4544C16.5016 20.4514 16.3049 20.4743 16.0136 20.4461C15.9366 20.4385 16.0645 20.4302 16.0548 20.4291C15.9623 20.419 15.8442 20.446 15.7051 20.4258C15.6946 20.4243 16.0184 20.4123 15.4524 20.4122C15.4914 20.4142 15.5303 20.4161 15.5693 20.418C15.4895 20.4224 14.9164 20.4249 14.8393 20.4239C14.6141 20.4209 14.8105 20.407 14.5841 20.4087C14.7293 20.4277 14.0409 20.4302 14.0805 20.4138C13.9844 20.4344 13.3996 20.4185 13.1247 20.418C12.9512 20.4177 12.5974 20.4267 12.5423 20.4257C12.4752 20.4244 12.4956 20.4104 12.3743 20.4072C12.3398 20.4063 11.9789 20.4166 11.6621 20.4021C11.6007 20.3993 11.4718 20.3755 11.5859 20.3696C11.7812 20.3594 12.1507 20.3786 12.146 20.3645C12.1404 20.3495 11.6428 20.3584 11.5089 20.3564C10.8905 20.3474 11.2476 20.3314 11.2316 20.3265C11.1904 20.3148 10.8525 20.3151 10.8384 20.3141C10.78 20.3094 11.0194 20.3001 11.023 20.2929C11.0274 20.2836 10.7017 20.2667 10.7757 20.2636C10.8817 20.2591 11.1811 20.2731 11.2 20.2725C11.4471 20.2634 11.1085 20.2418 11.0151 20.2312C10.9868 20.2279 11.0996 20.2226 11.0761 20.2216C10.7181 20.2071 11.0006 20.252 10.7625 20.249C10.55 20.2463 10.8234 20.2321 10.8153 20.2313C10.8048 20.2305 10.5507 20.2297 10.511 20.2247C10.4914 20.2222 11.1517 20.1946 11.1241 20.1822C10.9134 20.1849 10.7027 20.1876 10.492 20.1904C10.4755 20.1742 10.7786 20.1861 10.8099 20.1844C10.873 20.1811 10.6971 20.1729 10.7046 20.1678C10.7087 20.1646 10.9152 20.153 10.7286 20.1483C10.6645 20.1466 10.5299 20.1579 10.2964 20.1464C11.1091 20.1316 10.5459 20.1225 10.522 20.1168C10.4985 20.1111 10.8865 20.0977 10.4155 20.1C10.3951 20.0686 10.4257 20.0901 10.5595 20.0846C10.7234 20.0778 10.3446 20.0675 10.9437 20.0753C10.9096 20.0606 10.4281 20.0617 10.4026 20.0605C10.3805 20.0594 10.4876 20.0522 10.4494 20.0497C9.99797 20.0213 10.3081 20.0343 10.1773 20.0162C10.1657 20.0145 9.73897 20.0078 10.0638 20.0052C10.6556 20.0004 10.903 20.0212 11.0024 19.9767C10.5647 19.9573 10.0343 19.9861 9.90122 19.9866C9.69754 19.9873 9.90853 19.9782 9.88344 19.9756C9.87472 19.9748 9.6992 19.9756 9.69684 19.9748C9.57169 19.9409 10.4782 19.9743 10.7636 19.9684C10.6871 19.9633 10.6106 19.9582 10.5341 19.9531C10.6379 19.9529 10.7417 19.9527 10.8455 19.9525C10.351 19.9423 10.828 19.9486 10.9513 19.9211C10.979 19.915 10.6542 19.9255 11.0247 19.9084C10.7514 19.9044 10.8386 19.8988 10.5911 19.9065C10.5975 19.8955 11.1543 19.8831 11.3739 19.8774C10.5981 19.865 11.0405 19.9055 10.3698 19.8841C10.2454 19.8977 10.5656 19.8951 10.5395 19.8973C10.4458 19.9054 10.2263 19.8926 9.96135 19.9209C9.91821 19.9256 10.1007 19.94 9.83065 19.9393C9.80078 19.9392 9.62868 19.9269 9.63107 19.926C9.65388 19.9164 9.82418 19.92 9.83121 19.916C9.83781 19.9122 9.64782 19.9145 9.64716 19.9134C9.64132 19.9014 9.80568 19.9088 9.78181 19.9051C9.73026 19.8969 9.04685 19.871 9.93876 19.8786C9.19794 19.8922 9.84392 19.8919 10.1324 19.8866C10.206 19.8853 10.2246 19.8782 10.3295 19.8757C10.4643 19.8724 10.6221 19.8759 10.6919 19.8746C10.767 19.8731 10.3405 19.8561 10.9573 19.8612C10.6434 19.8443 10.089 19.8623 9.78068 19.8504C9.15865 19.8265 10.2144 19.8213 10.3244 19.819C10.3537 19.8184 10.2554 19.8087 10.275 19.8081C10.3069 19.8072 10.9061 19.8117 10.9652 19.8036C11.0241 19.7956 10.7457 19.804 10.7272 19.7956C10.7147 19.79 11.4375 19.78 11.0462 19.7762C10.7765 19.7735 10.2794 19.7962 10.1956 19.7718C10.5923 19.7698 10.9889 19.7678 11.3855 19.7658C11.1684 19.7565 10.9513 19.7473 10.7343 19.738C11.1794 19.7351 11.5643 19.7455 11.987 19.7323C10.9711 19.7026 12.3169 19.7086 12.3317 19.705C12.3367 19.7028 11.9368 19.6788 11.8724 19.6744C12.2268 19.6651 13.3035 19.6606 12.6736 19.6308C12.7879 19.6375 13.0648 19.621 13.0612 19.6197C13.026 19.6066 12.4221 19.6151 12.5206 19.6032C12.6347 19.5895 12.7947 19.6082 12.9703 19.6067C13.8713 19.5989 13.6241 19.5303 14.5276 19.5412C14.5097 19.5387 14.4917 19.5363 14.4737 19.5338C15.4558 19.5377 16.4379 19.5416 17.42 19.5455C17.8042 19.5246 18.8268 19.5118 19.3291 19.5141C19.4302 19.5146 19.9268 19.5256 19.9642 19.5275C20.0336 19.5312 19.6521 19.5326 19.8245 19.5395C19.8609 19.5409 20.7016 19.5456 20.6414 19.5338C20.5472 19.5325 20.2524 19.5384 20.2042 19.5356C19.8652 19.5159 22.4569 19.5317 22.5853 19.5237C22.5279 19.5199 22.4705 19.5161 22.4131 19.5123C22.5766 19.5142 22.7402 19.516 22.9037 19.5179ZM15.3889 20.4588C15.2908 20.4706 15.0448 20.4617 14.8994 20.465C14.6986 20.4697 14.3572 20.5149 14.5042 20.4696C14.7991 20.466 15.094 20.4624 15.3889 20.4588ZM19.6989 20.4763C19.5011 20.47 19.6545 20.4447 19.8166 20.4552C19.8346 20.4564 19.9664 20.4848 19.6989 20.4763ZM17.6258 20.4643C17.6341 20.464 17.805 20.4646 17.8109 20.465C17.9642 20.4752 17.449 20.4731 17.6258 20.4643ZM27.6405 20.4513C27.4226 20.4524 27.5804 20.4754 27.7159 20.466C27.7244 20.4653 27.6548 20.4512 27.6405 20.4513ZM27.4855 20.4507C27.3163 20.4301 26.9755 20.4719 27.2464 20.4677C27.2727 20.4672 27.4934 20.4517 27.4855 20.4507ZM18.994 20.4663C19.0163 20.4583 19.2202 20.4622 19.3073 20.4641C19.305 20.4713 19.0794 20.4654 18.994 20.4663ZM24.1658 20.4641C24.1745 20.4578 23.4655 20.4582 23.4172 20.4664C23.5291 20.4629 24.1577 20.4696 24.1658 20.4641ZM25.984 20.4553C25.9661 20.4543 25.7211 20.4559 25.7283 20.4614C25.8478 20.4686 26.065 20.4602 25.984 20.4553ZM28.5443 20.5979C28.5457 20.6112 28.5806 20.4278 28.5576 20.8624C28.5542 20.9262 28.5451 20.6983 28.5439 20.721C28.5414 20.7685 28.5403 20.806 28.5401 20.8361C28.5372 20.6337 28.5358 20.4235 28.538 20.4031C28.548 20.3076 28.5437 20.592 28.5443 20.5979ZM28.5703 22.4951C28.576 22.5369 28.573 22.8032 28.5706 22.8638C28.5702 22.8742 28.5552 22.8289 28.5563 22.9488C28.5573 23.0451 28.5726 22.9012 28.5701 23.0888C28.5677 23.2784 28.5567 23.0251 28.556 23.0417C28.5549 23.0639 28.5618 23.3571 28.5529 23.3479C28.5463 23.3411 28.5508 23.027 28.5494 22.9494C28.5476 22.8499 28.5366 22.9705 28.5389 22.8043C28.5404 22.6998 28.5597 22.7577 28.5607 22.7357C28.5615 22.7172 28.5504 22.352 28.5702 22.4957C28.5703 22.4955 28.5703 22.4953 28.5703 22.4951ZM28.5409 20.8909C28.5403 20.8757 28.5399 20.8578 28.5401 20.8361C28.5404 20.8545 28.5407 20.8728 28.5409 20.8909ZM15.9603 20.4503C16.063 20.4563 15.7579 20.4639 15.6424 20.4561C15.6404 20.4498 15.9439 20.4494 15.9603 20.4503ZM28.5567 21.0786C28.5518 21.3793 28.5452 21.1582 28.5409 20.8909C28.5446 20.9758 28.5583 20.9777 28.5567 21.0786ZM21.5414 20.4514C21.5541 20.4528 21.5621 20.4551 21.5631 20.4587C21.5298 20.4547 21.5268 20.4525 21.5414 20.4514ZM22.2429 20.458C22.4833 20.4467 21.9948 20.4472 21.9978 20.4552C21.9993 20.4582 22.2332 20.4584 22.2429 20.458ZM27.92 20.4524C27.898 20.4513 28.2397 20.4173 27.7435 20.4428C28.0084 20.4468 27.729 20.4505 27.7331 20.4535C27.7439 20.4621 28.1887 20.4538 28.2872 20.4575C28.3643 20.4422 27.9926 20.456 27.9205 20.4524C27.9203 20.4524 27.9202 20.4524 27.92 20.4524ZM28.5621 25.9145C28.5531 25.8542 28.556 25.663 28.5565 25.534C28.5655 25.5943 28.5626 25.7855 28.5621 25.9145ZM9.43922 34.3201C9.44751 35.2043 9.41099 35.3188 9.42542 34.5098C9.42572 34.494 9.43551 34.2665 9.43922 34.3201ZM13.9081 36.5702C13.9914 36.5862 13.7157 36.5887 13.5346 36.5821C13.4936 36.5807 13.3421 36.5645 13.5151 36.5614C13.5096 36.5807 13.7771 36.5881 13.9081 36.5702ZM28.5669 21.2486C28.5775 21.3361 28.5699 21.6056 28.5684 21.7476C28.5596 21.661 28.5636 21.3741 28.5669 21.2486ZM9.22545 36.5798C9.31864 36.581 9.38156 36.5672 9.36547 36.566C9.29344 36.5607 9.11926 36.5719 9.22545 36.5798ZM28.5685 20.3786C28.5749 20.3662 28.581 20.7232 28.5653 20.7481C28.5664 20.6718 28.5646 20.3874 28.5685 20.3786ZM28.5668 25.6712C28.5701 25.6158 28.5758 25.9028 28.5726 25.9896C28.5659 25.9826 28.5647 25.7075 28.5668 25.6712ZM10.7258 36.5751C10.8093 36.5763 11.0178 36.5767 11.0408 36.5711C11.0695 36.5641 10.7638 36.5665 10.7258 36.5751ZM9.41279 23.1983C9.4153 23.1877 9.43343 23.5106 9.42884 23.6542C9.42006 23.9267 9.41101 23.2097 9.41279 23.1983ZM9.41303 36.3433C9.4262 36.0801 9.41345 36.3723 9.42731 36.3608C9.42781 36.1837 9.4285 35.7432 9.41486 36.0461C9.41222 36.105 9.41393 36.2607 9.41303 36.3433ZM9.40839 36.5861C9.41288 36.6143 9.42705 36.804 9.42603 36.64C9.42554 36.5642 9.40981 36.442 9.40839 36.5861ZM9.41895 25.1988C9.40667 25.4347 9.41326 24.3534 9.41541 24.3223C9.41655 24.3059 9.41762 24.2952 9.41852 24.289C9.41463 24.2493 9.41393 24.0451 9.42377 24.0214C9.42296 24.0827 9.42383 24.2499 9.42274 24.2693C9.42227 24.2776 9.42184 24.2839 9.42139 24.2882C9.42994 24.3602 9.42128 25.1536 9.41895 25.1988ZM9.40632 26.9905C9.38821 26.7206 9.419 26.6728 9.41999 26.6961C9.43259 26.9899 9.40988 26.7983 9.40882 26.8073C9.40705 26.8278 9.41759 27.0366 9.40632 26.9897C9.40632 26.99 9.40632 26.9902 9.40632 26.9905ZM9.41389 25.5661C9.41348 25.555 9.41444 25.3284 9.41492 25.3191C9.42527 25.1334 9.42262 25.7746 9.41389 25.5661ZM28.5919 23.9252C28.5888 24.0875 28.5775 23.9283 28.5815 23.8205C28.5819 23.8116 28.5946 23.7821 28.5919 23.9252ZM9.41144 36.7156C9.41071 36.7285 9.40929 36.849 9.40842 37L9 36.5916C9.29128 36.5933 9.69572 36.5929 9.65763 36.5817C9.61305 36.5828 9.26718 36.5806 9 36.5807L9.41929 37C9.41924 36.7775 9.41766 36.6096 9.41144 36.7156ZM15.9064 36.5927C15.7367 36.5926 15.9217 36.5764 16.0122 36.5825C16.0458 36.5847 15.9491 36.5927 15.9064 36.5927ZM28.8972 20.4168C28.7211 20.4257 28.7575 20.3959 28.9102 20.4061C28.9162 20.4065 28.9042 20.4165 28.8972 20.4168ZM14.5508 36.5834C15.136 36.5737 14.9974 36.6248 14.2366 36.6075C14.2604 36.6053 14.2842 36.603 14.3081 36.6007C13.4299 36.593 14.248 36.5971 14.463 36.5942C14.5447 36.5931 14.4762 36.5846 14.5503 36.5834C14.5504 36.5834 14.5506 36.5834 14.5508 36.5834ZM16.7987 36.5937C17.3622 36.63 16.2864 36.6063 15.9778 36.6111C16.2769 36.5961 16.6664 36.5984 16.1367 36.583C16.9112 36.58 16.5888 36.5945 16.6197 36.5957C16.6563 36.597 16.7747 36.5921 16.7987 36.5937ZM15.3122 36.5939C15.2796 36.595 15.0341 36.5876 14.9457 36.5888C15.0694 36.5764 15.5284 36.5867 15.3122 36.5939ZM9.41474 28.8689C9.40502 28.8485 9.39786 28.7981 9.40149 28.6044C9.40638 28.6642 9.41058 28.7879 9.41474 28.8689ZM15.2026 20.4077C15.0692 20.407 14.8036 20.4033 14.885 20.4135C14.8939 20.4144 15.2022 20.4134 15.2026 20.4077ZM11.5103 36.5964C11.5387 36.5976 12.2724 36.5984 12.019 36.5877C11.9425 36.5845 11.2749 36.5858 11.5103 36.5964ZM9.40479 35.7107C9.40469 35.7721 9.40652 36.0216 9.40882 36.0269C9.41677 36.0437 9.4124 35.7375 9.40479 35.7107ZM14.5296 20.3977C14.5121 20.3967 14.1046 20.3985 14.1494 20.4032C14.2344 20.4121 14.5898 20.4012 14.5296 20.3977ZM28.6146 24.5155C28.615 24.5495 28.6044 24.5946 28.6043 24.6064C28.6042 24.6341 28.6082 25.2576 28.5947 25.0194C28.5924 24.9796 28.5976 24.0826 28.5989 23.9659C28.6134 23.9208 28.5996 24.304 28.6011 24.3972C28.6014 24.4136 28.6135 24.4242 28.6146 24.5152C28.6146 24.5153 28.6146 24.5154 28.6146 24.5155ZM9.40449 27.8597C9.39527 27.8322 9.38917 27.0992 9.40034 27.1077C9.40172 27.3583 9.4031 27.609 9.40449 27.8597ZM9.40296 28.232C9.39644 28.3884 9.39429 28.0221 9.39716 27.9142C9.40336 27.913 9.40391 28.2092 9.40296 28.232ZM9.10096 36.6296C9.15809 36.6279 9.03462 36.6194 9 36.6145L9.38553 37C9.38696 36.99 9.38809 36.9874 9.38868 36.9988C9.3887 36.9992 9.38871 36.9996 9.38873 37L9 36.6113C9.03518 36.6098 9.19646 36.6147 9.24832 36.6105C9.26321 36.6092 9.09532 36.5966 9.04676 36.5971C8.99179 36.5977 9.02313 36.6041 9 36.6067L9.39326 37C9.39259 36.9941 9.39217 36.9847 9.39216 36.9694C9.39194 36.7195 9.39904 36.498 9.39887 36.2637C9.39884 36.2425 9.39181 36.4066 9.39191 36.2262C9.39191 36.1983 9.40237 36.0307 9.40082 35.8149C9.36843 35.3381 9.40024 34.9881 9.38855 34.3831C9.3855 34.4059 9.37732 34.8584 9.37702 34.885C9.37169 35.3907 9.37111 36.2966 9.37104 36.8263C9.37101 36.9622 9.37787 36.8962 9.37812 36.9547C9.37823 36.9841 9.37317 36.9727 9.37066 37L9 36.6293C9.01574 36.6308 9.04433 36.6314 9.10096 36.6296ZM15.2734 20.4006C15.2099 20.388 14.9868 20.396 14.8444 20.3953C14.8945 20.4068 15.1342 20.3978 15.2734 20.4006ZM9.39313 31.5229C9.39362 31.5944 9.3898 31.8157 9.39362 31.834C9.39861 31.8576 9.40175 31.5381 9.39313 31.5229ZM28.611 28.0311C28.6114 28.038 28.6107 28.2098 28.6103 28.2163C28.6001 28.3698 28.6022 27.8545 28.611 28.0311ZM28.6086 32.1404C28.6101 32.2706 28.6141 32.402 28.6038 32.4458C28.6054 32.3628 28.6014 32.1251 28.6086 32.1404ZM28.1904 36.6089C28.2173 36.6224 27.8252 36.6136 27.7512 36.6124C27.7786 36.6064 28.1707 36.5992 28.1904 36.6089ZM9.37244 28.8971C9.37324 28.6574 9.35283 28.708 9.36206 28.5558C9.36363 28.531 9.40613 28.4507 9.3902 28.7142C9.38734 28.7616 9.37724 28.5761 9.37244 28.8971ZM14.1127 36.6071C14.0518 36.616 13.8612 36.6134 13.7325 36.6127C13.7613 36.606 14.0211 36.6077 14.1127 36.6071ZM13.7937 20.3875C13.6813 20.3749 13.1618 20.3843 13.2904 20.3926C13.3087 20.3937 13.7208 20.387 13.7937 20.3875ZM28.6075 21.858C28.6174 22.0717 28.6205 21.6291 28.6108 21.4894C28.6115 21.5526 28.6069 21.8436 28.6075 21.858ZM28.6162 36.4478C28.6166 36.4581 28.6157 36.6847 28.6152 36.6948C28.6048 36.8805 28.6075 36.2393 28.6162 36.4478ZM28.6249 30.7891C28.6331 30.8707 28.6265 31.4075 28.6183 31.5278C28.6064 31.412 28.6147 30.6877 28.6249 30.7891ZM9.37824 29.8834C9.37782 29.7124 9.38033 29.5502 9.38385 29.3931C9.39072 29.4261 9.38337 29.8653 9.37824 29.8834ZM28.7203 36.6171C28.7081 36.617 28.6963 36.6162 28.6847 36.6161C28.6968 36.6164 28.7087 36.6168 28.7203 36.6171ZM9.37342 33.711C9.37071 33.8543 9.38329 33.8245 9.38367 33.8157C9.38775 33.7079 9.37648 33.5487 9.37342 33.711ZM15.1097 20.382C15.06 20.3706 14.819 20.3794 14.6804 20.3767C14.7206 20.3857 14.998 20.3832 15.1097 20.382ZM17.4022 36.6169C17.5823 36.6292 16.8497 36.6435 16.6954 36.6356C16.684 36.628 17.3759 36.6153 17.4022 36.6169ZM28.6246 21.1944C28.6335 21.18 28.6227 20.8724 28.6185 20.9378C28.6159 20.9791 28.619 21.203 28.6246 21.1944ZM16.327 36.6304C16.2582 36.6331 16.0977 36.6244 16.1542 36.619C16.2267 36.6122 16.3448 36.6297 16.327 36.6304ZM10.1519 36.6376C10.182 36.6389 10.5867 36.6298 10.4195 36.6207C10.3035 36.6144 10.2851 36.6273 10.2578 36.6273C10.2273 36.6273 9.57763 36.6115 10.1519 36.6376ZM21.505 36.6247C21.3523 36.6281 21.1677 36.6241 21.0079 36.6244C21.073 36.6189 21.44 36.6174 21.505 36.6247ZM28.6269 22.3805C28.6305 22.3435 28.6327 21.3333 28.6216 21.9071C28.621 21.9406 28.6161 22.4932 28.6269 22.3805ZM9.37244 28.8971C9.37234 28.9273 9.37192 28.9622 9.37104 29.0027C9.37138 28.9625 9.37199 28.9275 9.37244 28.8971ZM9.3711 31.6195C9.36462 31.5643 9.36289 31.8423 9.36634 31.9244C9.37425 31.9496 9.372 31.6271 9.3711 31.6195ZM20.9957 36.6334C20.9037 36.6371 20.7366 36.6332 20.6226 36.6336C20.6419 36.6276 20.9559 36.6273 20.9957 36.6334ZM27.4616 36.6402C27.2787 36.6366 27.0537 36.6383 27.0503 36.6456C27.0465 36.6445 27.0376 36.6433 27.0229 36.642C27.008 36.6408 26.8121 36.6442 26.727 36.6417C26.2176 36.6268 28.6945 36.6329 27.2589 36.6537C27.3264 36.6492 27.394 36.6447 27.4616 36.6402ZM28.6423 30.0627C28.6512 29.959 28.64 29.6683 28.6365 29.7437C28.6341 29.7963 28.6332 30.1666 28.6423 30.0627ZM28.6476 34.056C28.6492 34.025 28.6429 33.7412 28.6382 33.7339C28.6332 33.897 28.6401 34.1973 28.6476 34.056ZM28.6528 29.265C28.6541 29.1999 28.6397 29.1168 28.639 29.1244C28.6338 29.1906 28.6447 29.3744 28.6528 29.265ZM9.3335 29.3936C9.32936 29.4906 9.33982 29.7995 9.34937 29.8668C9.34752 29.8793 9.34512 29.913 9.34223 29.9749C9.34223 29.9747 9.34223 29.9745 9.34223 29.9743C9.33837 30.0578 9.33416 32.5547 9.35254 30.8799C9.35313 30.8274 9.34456 30.8991 9.34607 30.6857C9.34618 30.6716 9.35318 30.6646 9.35352 30.621C9.35426 30.5208 9.35866 29.987 9.35303 29.8797C9.35433 29.8788 9.35556 29.8719 9.35669 29.8572C9.36678 29.7256 9.33669 29.3185 9.3335 29.3936ZM28.6489 34.6186C28.6515 34.5615 28.649 34.3807 28.6428 34.362C28.6398 34.4516 28.6428 34.7511 28.6489 34.6186ZM28.6523 22.3492C28.6574 22.2329 28.6479 21.938 28.6428 22.0271C28.6397 22.0818 28.6465 22.4834 28.6523 22.3492ZM28.6456 32.808C28.6383 33.4751 28.6462 32.9672 28.6552 33.0694C28.652 32.9823 28.6488 32.8951 28.6456 32.808ZM9.35688 26.306C9.35479 26.4123 9.33693 26.2873 9.34662 26.1702C9.3497 26.1334 9.35801 26.2465 9.35688 26.306ZM9.35132 21.5023C9.33548 21.5931 9.34479 21.1496 9.35566 21.3225C9.35602 21.3305 9.35192 21.4958 9.35132 21.5023ZM9.34485 24.859C9.35564 24.9312 9.35692 24.9782 9.35425 25.1816C9.35121 24.8805 9.34167 25.1598 9.34485 24.859ZM27.0522 36.6468C27.0511 36.6464 27.0501 36.646 27.0503 36.6456C27.0516 36.646 27.0521 36.6464 27.0522 36.6468ZM28.65 28.6377C28.6591 28.5542 28.6584 28.3202 28.6492 28.3899C28.6484 28.3966 28.6432 28.6035 28.65 28.6377ZM9.34937 29.8668C9.35101 29.8557 9.35206 29.8613 9.35303 29.8797C9.35181 29.8806 9.35066 29.8758 9.34937 29.8668ZM28.6574 29.8945C28.6506 29.8861 28.6479 30.2424 28.6487 30.2567C28.6606 30.4611 28.6578 30.0416 28.6574 29.8945ZM28.9938 20.3381C28.9897 20.3383 28.9924 20.3393 29 20.3407L28.6593 20C28.6545 20.0262 28.6451 20.1102 28.6504 20.1666C28.6556 20.2212 28.6641 20.0717 28.6621 20L29 20.3379C28.9979 20.338 28.9958 20.3381 28.9938 20.3381ZM9.34046 24.1682C9.34047 24.0554 9.34046 23.8966 9.34882 23.8673C9.34754 23.9429 9.34659 24.1705 9.34046 24.1682ZM9.33985 21.6759C9.34967 21.8092 9.34965 22.1138 9.34803 22.3082C9.33509 22.3118 9.34289 21.801 9.33985 21.6759ZM9.33832 29.0876C9.33779 29.0969 9.33394 29.3798 9.34259 29.3411C9.35529 29.2847 9.34303 29.0078 9.33832 29.0876ZM28.6525 20.5431C28.6585 20.6696 28.6768 20.3785 28.6627 20.245C28.6554 20.1765 28.6515 20.5218 28.6525 20.5431ZM28.6619 27.9069C28.6569 27.74 28.648 28.1537 28.657 28.2115C28.6578 28.1346 28.6637 27.9662 28.6619 27.9069ZM28.6711 33.5868C28.6972 33.0608 28.6496 33.3473 28.6537 33.4406C28.6543 33.4538 28.6705 33.5997 28.6711 33.5868ZM12.4884 20.3353C12.4139 20.339 12.6916 20.3521 12.7275 20.3434C12.7497 20.338 12.536 20.333 12.4884 20.3353ZM24.4919 36.6541C24.5141 36.654 24.5361 36.6539 24.5579 36.6539C24.5416 36.6543 24.5201 36.6544 24.4919 36.6541ZM28.6969 26.3916C28.66 26.7619 28.6884 26.723 28.6883 26.7552C28.6879 26.8247 28.6779 26.9863 28.6796 27.1173C28.6754 26.9673 28.6713 26.8172 28.6671 26.6671C28.6644 26.7856 28.6509 27.8156 28.6569 27.8372C28.6654 27.8681 28.6627 27.544 28.6634 27.5346C28.6645 27.521 28.6882 27.4703 28.6891 27.4403C28.6905 27.3908 28.691 26.5296 28.6969 26.3916ZM28.667 32.4867C28.6642 32.5713 28.6548 32.5954 28.657 32.6347C28.6578 32.648 28.6668 32.6502 28.6691 32.6959C28.6684 32.6262 28.6677 32.5565 28.667 32.4867ZM28.6638 25.7285C28.6747 25.6237 28.6705 26.0937 28.6693 26.1087C28.6619 26.1891 28.6548 25.8141 28.6638 25.7285ZM28.6653 29.7166C28.666 29.6995 28.6694 29.3386 28.6633 29.3415C28.6587 29.437 28.6574 29.9195 28.6653 29.7166ZM28.6697 32.7524C28.6686 32.8792 28.6596 33.1189 28.6731 33.0914C28.6731 33.0912 28.6731 33.091 28.6731 33.0908C28.672 32.978 28.6708 32.8652 28.6697 32.7524ZM28.681 20.9762C28.7024 20.7412 28.6753 20.8525 28.6684 21.0606C28.678 21.1236 28.6775 21.0147 28.681 20.9762ZM28.697 20.2241C28.6983 20.2019 28.6987 20.1088 28.6981 20L29 20.3019C28.7896 20.3029 28.5201 20.3073 28.5879 20.3148C28.619 20.3182 28.9053 20.3113 29 20.3097L28.6903 20C28.6906 20.0164 28.6907 20.027 28.6906 20.0296C28.6894 20.0567 28.6769 19.9331 28.6794 20.1397C28.6836 20.1277 28.6957 20.2465 28.697 20.2241ZM28.6947 20.7817C28.711 20.5481 28.6809 20.4957 28.6808 20.6713C28.6808 20.7399 28.6923 20.815 28.6947 20.7817ZM28.6921 21.7355C28.695 21.6515 28.6992 21.4277 28.6891 21.2734C28.6883 21.4799 28.6874 21.6863 28.6866 21.8927C28.6923 21.9165 28.6896 21.809 28.6921 21.7349C28.6921 21.7351 28.6921 21.7353 28.6921 21.7355ZM9.26276 20.2726C9.25422 20.4582 9.25096 20.0307 9.25305 20.0126C9.26001 19.959 9.26657 20.1897 9.26276 20.2726ZM11.0391 20.062C10.9876 20.0586 10.9539 20.0474 10.8404 20.0533C10.9545 20.0615 11.0687 20.0698 11.1828 20.0781C11.2715 20.0591 11.0955 20.0658 11.0391 20.062ZM10.6033 19.9928C10.6194 19.9924 10.5313 19.9633 10.7396 19.9827C10.8804 19.9958 10.115 20.0086 9.97687 19.9957C10.1295 19.9897 10.4645 19.9966 10.6033 19.9928ZM9.26268 19.8669C9.25386 19.8645 9.54463 19.8611 9.57828 19.8628C9.755 19.8714 9.31043 19.8793 9.26268 19.8669ZM10.1903 19.8724C10.0539 19.8668 10.356 19.8631 10.446 19.8664C10.4548 19.8718 10.2113 19.8732 10.1903 19.8724ZM8.84123 22.1515C8.82145 22.2991 8.86403 22.4311 8.85545 22.204C8.85505 22.1932 8.8422 22.1452 8.84123 22.1515ZM9.54695 19.8375C9.68331 19.8432 9.38122 19.8468 9.2912 19.8436C9.28282 19.8381 9.52619 19.8367 9.54695 19.8375ZM8.79411 22.2554C8.77988 22.4514 8.82765 22.3824 8.82957 22.3579C8.83718 22.257 8.81843 21.9111 8.81376 21.8405C8.82093 22.3582 8.80082 22.1631 8.79411 22.2554ZM8.8228 23.1593C8.82789 23.3411 8.83764 22.8765 8.82432 22.7878C8.82496 22.8782 8.82133 23.1076 8.8228 23.1593ZM8.80748 24.2628C8.80577 24.3605 8.80167 24.6513 8.80919 24.7C8.80783 24.5933 8.81521 24.304 8.80748 24.2628ZM8.78496 24.4841C8.77474 24.6369 8.8045 24.6735 8.79564 24.4974C8.79529 24.4905 8.78552 24.4785 8.78496 24.4841ZM8.77421 25.3431C8.76238 25.4433 8.7912 25.5578 8.79197 25.3953C8.79215 25.3471 8.77557 25.3325 8.77421 25.3431ZM8.74272 22.5007C8.73764 22.6443 8.75827 22.8292 8.76054 22.5227C8.76369 22.6304 8.76685 22.738 8.77 22.8457C8.78157 22.4442 8.75295 22.4737 8.75413 22.3585C8.75581 22.1974 8.77943 22.2101 8.78685 22.2424C8.77238 22.1104 8.77215 21.5493 8.76939 21.2251C8.76332 21.51 8.75279 21.9725 8.74894 22.2537C8.74783 22.334 8.75431 22.4119 8.75358 22.4804C8.75239 22.5902 8.74306 22.4927 8.74272 22.5002C8.74272 22.5004 8.74272 22.5005 8.74272 22.5007ZM8.77379 26.4722C8.76038 26.7669 8.78932 26.5806 8.78416 26.4141C8.78376 26.407 8.77411 26.4649 8.77379 26.4722ZM9.15626 19.7496C9.5499 19.7617 9.26377 19.7777 10.0872 19.7533C9.74129 19.7706 10.0681 19.7657 10.0006 19.7727C9.94641 19.7782 9.74343 19.7736 9.86142 19.7847C9.70633 19.7727 9.033 19.776 9.00298 19.774C9.00326 19.774 9.00354 19.774 9.00383 19.774C8.9858 19.7729 9.03065 19.7457 9.15626 19.7496ZM8.73179 24.2642C8.69667 24.3624 8.75241 24.401 8.72331 24.5942C8.76557 24.8514 8.72331 23.8837 8.75901 23.7665C8.75487 24.8175 8.79439 23.0722 8.74095 23.8057C8.76034 23.2014 8.73433 23.6077 8.72752 23.5144C8.72027 23.4146 8.72815 23.0728 8.71507 23.0901C8.71507 23.0903 8.71507 23.0905 8.71507 23.0907C8.71598 23.2998 8.7169 23.5089 8.71781 23.718C8.74603 23.5133 8.73757 23.9406 8.71458 24.0855C8.72032 24.1451 8.72605 24.2046 8.73179 24.2642ZM8.75828 23.0808C8.75764 23.1014 8.76159 23.5562 8.76725 23.5268C8.77087 23.4661 8.76654 22.8207 8.75828 23.0808ZM8.75212 21.0794C8.75205 21.2427 8.74654 21.4952 8.75718 21.5841C8.75725 21.4208 8.76276 21.1683 8.75212 21.0794ZM8.7501 29.4874C8.75883 29.6955 8.76142 29.0547 8.75108 29.2401C8.75059 29.2492 8.7497 29.4771 8.7501 29.4874ZM8.7371 24.7376C8.72637 24.9492 8.76053 24.8492 8.75163 24.6924C8.7511 24.6833 8.73759 24.7278 8.7371 24.7376ZM9.47525 19.7454C9.4894 19.737 10.0605 19.7429 10.1618 19.7428C10.1043 19.7506 9.45901 19.755 9.47525 19.7454ZM8.7208 20.792C8.69071 21.1169 8.72547 21.5578 8.72471 21.6062C8.72394 21.6542 8.71078 21.5788 8.71043 21.5898C8.70969 21.6148 8.71079 22.1268 8.71171 22.1515C8.71242 22.1693 8.73091 22.0766 8.73674 22.1823C8.72623 21.9762 8.7328 21.0402 8.73075 20.9916C8.72912 20.954 8.7097 21.2376 8.7208 20.7926C8.7208 20.7924 8.7208 20.7922 8.7208 20.792ZM8.72068 21.727C8.72843 21.5991 8.7294 21.9578 8.72654 22.0445C8.72014 22.2374 8.71976 21.7434 8.72068 21.727ZM8.71354 22.5896C8.7118 22.6306 8.71022 23.0003 8.71885 23.0317C8.73004 22.8567 8.71759 22.4967 8.71354 22.5896ZM8.7147 26.7032C8.71581 26.7992 8.70918 27.0632 8.71672 27.0783C8.71562 26.9822 8.72224 26.7182 8.7147 26.7032ZM11.4239 19.6796C11.2644 19.6733 11.6339 19.6707 11.7417 19.6737C11.7476 19.6788 11.4375 19.6801 11.4239 19.6796ZM8.66502 24.7734C8.66272 24.8303 8.66844 25.99 8.67197 26.1527C8.67768 25.9936 8.67811 24.8442 8.67533 24.7921C8.6745 24.7768 8.66538 24.7662 8.66502 24.7734ZM8.66154 22.2653C8.65044 22.159 8.66375 22.0896 8.66392 22.0762C8.66562 21.9447 8.66311 21.672 8.67381 21.7318C8.66949 21.9638 8.68358 22.477 8.66154 22.2653ZM8.66447 26.7856C8.66859 27.1794 8.68028 26.423 8.66868 26.5222C8.66798 26.5286 8.66403 26.7449 8.66447 26.7856ZM8.66178 24.6439C8.65281 24.557 8.66055 23.3969 8.66056 23.2107C8.67711 23.3775 8.66454 23.5119 8.66538 23.736C8.66563 23.7965 8.67251 23.7803 8.67252 23.7868C8.67284 23.8915 8.66489 23.8132 8.66477 23.8777C8.66472 23.9185 8.67442 24.7661 8.66178 24.6439ZM8.65385 22.2046C8.64748 22.1397 8.64477 21.4154 8.64646 21.3863C8.65904 21.1683 8.65606 22.1483 8.65385 22.2046ZM8.64707 24.7503C8.62784 24.6256 8.64072 24.0494 8.65031 24.4437C8.65118 24.4814 8.64284 24.6408 8.64707 24.7503ZM8.64616 26.7435C8.64559 26.7629 8.64175 27.1734 8.64787 27.1808C8.65024 27.1215 8.65238 26.523 8.64616 26.7435ZM8.62546 26.5307C8.62561 26.5406 8.63739 26.4443 8.6359 26.6368C8.63576 26.6529 8.6225 26.6828 8.62736 26.9248C8.62836 26.9738 8.63713 27.0499 8.63767 27.0444C8.65848 26.7925 8.61863 26.0336 8.62546 26.5307ZM8.6431 22.1913C8.63751 22.2304 8.6209 22.1362 8.62931 22.0513C8.63294 22.0149 8.64291 22.0828 8.6431 22.1913ZM8.64078 28.0454C8.63071 27.8068 8.62881 28.556 8.63138 28.5942C8.63766 28.5701 8.64177 28.0693 8.64078 28.0454ZM11.7974 19.6018C11.7972 19.6018 11.797 19.6018 11.7968 19.6018C11.9976 19.6041 11.8732 19.6125 11.8826 19.6128C12.3102 19.6251 12.1968 19.6061 12.2637 19.6039C12.4071 19.599 12.384 19.6221 12.6259 19.6125C12.226 19.6267 12.59 19.6207 12.6013 19.6289C12.6461 19.6625 12.069 19.6133 11.8696 19.6203C11.8418 19.6212 12.0469 19.6319 11.9758 19.635C11.7444 19.6448 11.027 19.5931 11.7974 19.6018ZM8.62784 21.9858C8.618 21.8927 8.62755 21.1862 8.63566 21.3736C8.63696 21.4037 8.64219 22.1227 8.62784 21.9858ZM26.9882 37.3867C26.8184 37.3952 27.2119 37.4052 27.2848 37.3986C27.321 37.3953 27.0627 37.3829 26.9882 37.3867ZM29.4231 36.2528C29.4214 36.051 29.3859 35.8383 29.3914 36.0893C29.392 36.116 29.4182 36.2759 29.4231 36.2528ZM16.4989 37.4049C16.7096 37.4176 16.697 37.394 16.5424 37.3943C16.4878 37.3944 16.4923 37.4045 16.4989 37.4049ZM24.5396 37.4018C24.5607 37.4026 24.8042 37.4011 24.7953 37.3957C24.7053 37.3925 24.4032 37.3962 24.5396 37.4018ZM16.432 37.4082C16.5569 37.404 16.3419 37.3869 16.1892 37.4036C16.2668 37.4022 16.4191 37.4087 16.432 37.4082ZM8.59495 25.1856C8.60463 25.2902 8.6017 25.5861 8.60337 25.7561C8.59082 25.7744 8.59722 25.307 8.59495 25.1856ZM28.8908 37.4088C29.0818 37.4 28.6726 37.3928 28.7101 37.4044C28.7153 37.4051 28.8833 37.4092 28.8908 37.4088ZM9.70195 37.4095C9.84079 37.402 9.39996 37.392 9.52129 37.4051C9.52727 37.4057 9.69434 37.4099 9.70195 37.4095ZM8.59482 35.777C8.5923 35.8823 8.59308 36.3315 8.60038 36.1567C8.6015 36.1296 8.60168 35.7849 8.59482 35.777ZM12.2755 19.5948C12.2188 19.5819 12.5482 19.585 12.5954 19.5873C12.6139 19.5882 12.3496 19.6116 12.2755 19.5948ZM17.8671 37.4069C17.9761 37.4053 18.2589 37.4083 18.3086 37.4016C18.1753 37.403 17.8313 37.3934 17.8671 37.4069ZM28.0199 37.4089C28.1862 37.4229 28.4704 37.4215 28.4002 37.4032C28.0863 37.4044 28.439 37.4197 28.0199 37.4089ZM15.7299 37.4233C15.8174 37.4244 15.8843 37.4068 15.8745 37.406C15.7798 37.3981 15.6431 37.4165 15.7299 37.4233ZM22.2895 37.4088C22.2945 37.4163 22.5747 37.4129 22.5373 37.4081C22.5251 37.4065 22.2854 37.4028 22.2895 37.4088ZM8.59067 28.8553C8.58382 28.9837 8.57712 28.5916 8.58512 28.4756C8.59665 28.4193 8.59146 28.8391 8.59067 28.8553ZM13.3059 37.4189C13.2929 37.4301 13.7309 37.4238 13.5583 37.4145C13.5151 37.4122 13.3105 37.4152 13.3059 37.4189ZM9.1131 37.4323C9.21407 37.4277 9.13462 37.4236 9 37.4208L8.58493 37.4264L8.57916 37C8.58443 36.7429 8.58476 36.2847 8.57389 36.4974C8.57302 36.5145 8.56948 36.8265 8.56812 37L8.57403 37.4376L9 37.4319C9.06205 37.4324 9.10636 37.4326 9.1131 37.4323ZM8.57602 35.0984C8.57456 35.1491 8.53711 35.1238 8.55155 34.9141C8.55342 34.8865 8.56332 35.0153 8.56559 34.9928C8.56688 34.9796 8.57214 34.5235 8.57126 34.5025C8.57027 34.4799 8.55827 34.5065 8.55692 34.4836C8.55541 34.4578 8.56596 34.177 8.56607 34.0299C8.56627 33.7529 8.55628 33.7229 8.55625 33.7002C8.55618 33.634 8.56328 33.5228 8.56327 33.3886C8.56319 32.7122 8.55472 31.6778 8.5759 31.1416C8.5674 31.6187 8.57642 32.0734 8.5792 32.5482C8.55834 32.4092 8.59527 33.2467 8.5712 32.7568C8.57642 32.9824 8.5806 34.9323 8.57602 35.0978C8.57602 35.098 8.57602 35.0982 8.57602 35.0984ZM29.4336 35.4564C29.4464 35.5804 29.4435 34.9444 29.4287 34.8904C29.4267 34.9744 29.4322 35.4411 29.4336 35.4564ZM27.6095 37.4648C27.5504 37.467 27.4944 37.492 27.1846 37.4793C27.1844 37.4793 27.1841 37.4793 27.1838 37.4793C27.0932 37.4756 27.1964 37.4695 27.1798 37.4674C27.1738 37.4665 26.8914 37.4541 27.1259 37.4521C27.4836 37.449 27.1596 37.4706 27.3503 37.4709C27.3737 37.4709 27.7346 37.4574 27.7136 37.4544C27.7115 37.4541 27.6029 37.4569 27.5849 37.4557C27.5172 37.4511 27.5501 37.4433 27.5406 37.4429C27.5094 37.4419 26.9385 37.4552 26.8555 37.4436C26.8285 37.4399 27.7655 37.4312 27.802 37.4332C27.8251 37.4344 27.8154 37.4561 27.8393 37.4582C27.8516 37.4593 28.2284 37.4512 28.2774 37.4532C28.2916 37.4537 28.3024 37.4543 28.3104 37.4549C28.2534 37.4482 28.5947 37.4486 28.5842 37.4562C28.5783 37.4592 28.3434 37.4575 28.335 37.4569C28.3313 37.4567 28.3281 37.4564 28.3251 37.4562C28.3737 37.4644 27.5784 37.464 27.7501 37.4762C27.5195 37.4828 27.7828 37.4583 27.6095 37.4648ZM26.5012 37.4782C26.525 37.4759 26.5488 37.4736 26.5726 37.4713C26.169 37.4769 25.7032 37.466 25.2383 37.466C25.1203 37.466 25.256 37.48 25.1013 37.4762C24.9775 37.4731 24.8403 37.4602 24.9077 37.4573C24.9241 37.4566 25.1764 37.465 25.3026 37.4641C25.6753 37.4616 25.5812 37.4496 25.603 37.4493C25.627 37.449 25.8616 37.4574 25.9897 37.457C26.3118 37.456 26.4589 37.4487 26.899 37.4583C26.645 37.4662 26.7841 37.4833 26.5012 37.4782ZM11.4561 37.4527C11.4407 37.4602 11.1766 37.4536 11.0807 37.4547C11.0957 37.4471 11.3601 37.4538 11.4561 37.4527ZM24.1828 19.5375C24.1016 19.5499 24.7097 19.5529 24.5494 19.5426C24.514 19.5404 24.2592 19.5376 24.1828 19.5375ZM26.9145 19.545C26.9958 19.5416 26.6683 19.5327 26.6689 19.5423C26.6693 19.5453 26.904 19.5455 26.9145 19.545ZM21.2837 37.466C21.2683 37.4664 21.0445 37.4637 21.0375 37.463C20.8893 37.4499 21.6258 37.4575 21.2837 37.466ZM29.4702 21.2353C29.4621 20.9518 29.4586 21.8052 29.4689 21.5444C29.4694 21.5314 29.4706 21.2489 29.4702 21.2353ZM29.4724 22.4215C29.472 22.3535 29.476 22.0517 29.4723 22.0477C29.4662 22.0417 29.462 22.3872 29.4724 22.4215ZM15.6709 37.4699C15.7037 37.4838 15.3057 37.4733 15.1673 37.4751C15.1345 37.4611 15.5326 37.4717 15.6709 37.4699ZM18.183 37.4802C16.5052 37.4912 16.8751 37.4614 18.283 37.4734C18.285 37.4823 18.2889 37.4795 18.183 37.4802ZM16.0345 37.4785C16.0955 37.4696 16.286 37.4723 16.4148 37.473C16.3916 37.4792 16.1274 37.4769 16.0345 37.4785ZM23.4587 19.5184C23.5639 19.5071 24.0299 19.521 23.947 19.5257C23.9278 19.5267 23.42 19.5246 23.4587 19.5184ZM21.1431 37.4779C21.1822 37.4915 20.6783 37.4859 20.6398 37.4829C20.4843 37.4709 21.1023 37.4809 21.1431 37.4779ZM13.2896 37.4818C13.2006 37.4924 12.9479 37.487 12.7854 37.4868C12.8594 37.4778 13.1517 37.4816 13.2896 37.4818ZM14.4627 37.4901C14.4525 37.4905 14.2259 37.4896 14.2157 37.4891C14.03 37.4788 14.6712 37.4814 14.4627 37.4901ZM11.519 19.5001C11.5266 19.4998 11.6982 19.5004 11.7042 19.5008C11.8574 19.511 11.3422 19.5089 11.519 19.5001Z" fill="black"/>
</svg>
