<svg width="38" height="38" viewBox="0 0 38 38" fill="none" xmlns="http://www.w3.org/2000/svg">
<path d="M7 9H31V14L27 19L29 37H9L11 19L7 14V9Z" fill="white"/>
<path d="M28.7593 16.0133C28.7205 16.0638 28.5579 16.2621 28.489 16.3491C28.5571 16.2425 28.8993 15.8308 28.7593 16.0133ZM28.3576 26.8527C28.3441 26.7615 28.3306 26.6703 28.3172 26.5792C28.3439 26.8395 28.3852 27.1889 28.4089 27.4306C28.4128 27.4702 28.3918 27.3688 28.4018 27.4623C28.4117 27.5558 28.4228 27.5363 28.4393 27.672C28.4577 27.8243 28.5262 28.5233 28.5533 28.765C28.6546 29.669 28.7634 30.58 28.8586 31.4865C28.7451 30.5523 28.84 31.4959 28.8732 31.7573C28.8807 31.8153 28.9039 31.8033 29.002 32.7423C29.0644 33.339 28.9685 32.7921 29.0965 33.7853C29.0357 33.0174 29.1176 33.77 29.1851 34.3698C29.1967 34.4732 29.2858 35.3087 29.3279 35.6774C29.3423 35.8036 29.3764 35.9945 29.3953 36.1619C29.4083 36.2771 29.4111 36.365 29.4304 36.536C29.446 36.6734 29.4614 36.8103 29.4768 36.947L29.5406 37.4745L29 37.4797C28.3389 37.4807 27.6836 37.4807 27.0182 37.4788C27.4879 37.446 26.6494 37.4648 26.6118 37.4632C26.4203 37.4543 27.2864 37.4518 26.9439 37.4462C26.4652 37.4472 25.9865 37.4482 25.5078 37.4492C25.9007 37.4533 24.9877 37.4769 24.8196 37.4662C24.8936 37.4952 22.6378 37.4409 22.2944 37.4506C22.2229 37.4526 22.6911 37.467 21.6051 37.4604C21.4875 37.4597 21.532 37.4509 21.4703 37.4517C21.4333 37.4522 21.2098 37.4801 20.9715 37.4647C20.8845 37.4591 21.4411 37.4408 20.2189 37.4481C20.7056 37.4765 18.5242 37.4635 18.1229 37.4564C18.2031 37.4602 18.2833 37.464 18.3635 37.4678C17.9667 37.4575 17.8951 37.4672 17.8058 37.4666C17.4456 37.4645 16.9504 37.4548 16.6149 37.4557C16.2223 37.4567 16.221 37.4743 15.7632 37.4675C15.8718 37.4714 15.9804 37.4753 16.089 37.4792C15.7729 37.4782 15.4568 37.4773 15.1407 37.4763C15.8727 37.453 14.9828 37.4752 14.9241 37.4757C14.8306 37.4766 14.965 37.467 14.8086 37.4682C14.7924 37.4684 14.8158 37.4774 14.5747 37.4784C14.0711 37.4805 14.1507 37.4692 13.9392 37.4693C13.9198 37.4694 13.9877 37.4775 13.6224 37.4794C12.4616 37.4855 13.6282 37.4732 13.6727 37.4721C13.7312 37.4706 13.3332 37.4368 14.3193 37.4488C13.9882 37.4449 13.9549 37.43 13.9176 37.4296C13.8846 37.4293 13.311 37.4314 13.2793 37.4319C12.9973 37.437 13.2455 37.4472 13.1905 37.4491C13.1456 37.4505 12.4544 37.4372 12.2925 37.468C11.9618 37.4396 12.4827 37.4422 13.0372 37.4378C13.1181 37.432 12.5092 37.4263 12.4772 37.4264C11.6917 37.4264 12.1266 37.4498 11.9549 37.4647C11.8647 37.4725 11.5446 37.4566 11.8401 37.4775C11.1272 37.4797 11.5595 37.4676 11.5135 37.4658C11.444 37.4631 11.1945 37.4692 11.1633 37.4683C11.1175 37.4672 11.2768 37.4599 11.0961 37.4574C11.0661 37.457 10.7749 37.4695 11.1503 37.4754C10.6487 37.4737 10.6901 37.4843 10.5199 37.4629C10.1745 37.5034 10.2692 37.4389 10.1332 37.4366C9.77145 37.4306 9.8764 37.4625 9.8573 37.464C9.77597 37.4702 9.36256 37.4683 9 37.4671L8.48267 37.4721L8.53573 36.9484C8.56124 36.7256 8.58436 36.5222 8.59308 36.4278C8.59976 36.4834 8.57186 36.722 8.54362 36.9493L8.49147 37.4641L9 37.4592C9.18198 37.4615 9.35685 37.4649 9.42577 37.4629C9.86705 37.4503 9.02878 37.4509 9 37.4336L8.51983 37.4382L8.56908 36.9521C8.56978 36.9512 8.5704 36.9512 8.57092 36.9523L8.52189 37.4364L9 37.4317C9.00418 37.4291 9.02597 37.4261 9.07126 37.4226C9.04751 37.4238 9.02375 37.425 9 37.4262L8.52799 37.4308L8.5764 36.9529C8.58454 36.8188 8.59269 36.6846 8.60083 36.5504C8.65123 36.2646 8.61388 36.6739 8.69324 35.8984C8.69142 35.7699 8.63488 36.4464 8.6374 36.3097C8.63891 36.2292 8.68725 35.7797 8.68436 35.7704C8.68068 35.7611 8.64109 36.1677 8.64103 36.1029C8.64108 35.9615 8.82038 34.4821 8.70355 35.6104C8.73823 35.2959 8.78702 35.1373 8.80773 34.8636C8.82109 34.6865 8.66834 35.6739 8.84152 34.1864C8.85958 34.1563 8.77969 34.7819 8.77899 34.7983C8.77806 34.8213 8.82346 34.7116 8.82727 34.6921C8.84031 34.6233 8.99162 33.1014 9.04379 32.7821C9.0107 32.9071 9.16802 31.6332 9.17768 31.4936C9.1802 31.4564 9.15322 31.5934 9.15639 31.5537C9.17648 31.3062 9.27135 30.6413 9.30627 30.3319C9.34537 29.9855 9.33046 30.0283 9.33263 30.0089C9.35013 29.8566 9.3434 29.9791 9.35373 29.8859C9.36934 29.7452 9.47821 28.778 9.48219 28.7293C9.48332 28.715 9.45432 28.8717 9.47558 28.6606C9.47926 28.624 9.49027 28.6487 9.55379 28.0235C9.6303 27.2706 9.47887 28.5439 9.49937 28.2298C9.5733 27.7489 9.55148 27.7624 9.56762 27.6316C9.57323 27.5863 9.62781 27.2506 9.66747 26.8838C9.641 27.1473 9.61453 27.4107 9.58806 27.6742C9.6198 27.4158 9.67191 26.913 9.69898 26.7003C9.71217 26.5965 9.71667 26.6837 9.74139 26.4578C9.74656 26.4099 9.73353 26.2159 9.68312 26.8092C9.66567 26.8552 9.70489 26.5745 9.71595 26.4435C9.71761 26.4237 9.70589 26.3436 9.73709 26.1782C9.74465 26.1385 9.75565 26.5811 9.83757 25.4518C9.8402 25.4155 9.81877 25.5406 9.82116 25.505C9.8228 25.4807 9.85771 25.194 9.86018 25.1621C9.86265 25.1296 9.83912 25.2673 9.84181 25.2285C9.85557 25.0296 9.91668 24.7733 9.86886 25.1813C9.888 25.0453 9.90715 24.9093 9.92629 24.7732C9.88577 24.9166 9.94327 24.5582 9.9635 24.3693C10.0932 23.1587 9.98734 23.9672 10.0023 23.7583C10.0263 23.4222 10.0395 23.6824 10.0822 23.1843C10.0861 23.1382 10.0018 23.7367 10.142 22.5654C10.1235 22.7385 10.1049 22.9116 10.0864 23.0847C10.121 22.9875 10.1542 22.4597 10.1584 22.4193C10.2063 21.9585 10.1802 22.2707 10.244 21.5857C10.2497 21.5245 10.2703 21.3922 10.2819 21.2613C10.3301 20.7188 10.1954 21.9746 10.182 22.0079C10.1756 22.0236 10.3267 20.6738 10.3341 20.6277C10.3658 20.432 10.2704 21.2401 10.2997 21.0873C10.3089 21.039 10.4641 19.5855 10.5363 18.9485L10.6357 19.2914C10.5744 19.2145 10.5254 19.1526 10.4936 19.1118C10.2179 18.7584 10.1169 18.5808 10.087 18.6011C10.0356 18.4802 9.947 18.4081 9.91136 18.3631C9.48095 17.8199 9.48042 17.8187 9.10649 17.3567C9.02393 17.2546 8.96308 17.1614 8.93267 17.1263C8.91494 17.1059 8.93752 17.1525 8.85208 17.0513C8.73345 16.9108 8.05245 16.0407 8.0061 15.9726C7.95976 15.9045 8.29973 16.3352 8.24645 16.2519C7.99915 15.9411 7.7592 15.6453 7.51029 15.3324C7.40693 15.2024 7.46594 15.2645 7.42123 15.2084C7.40222 15.1845 7.03897 14.7407 7.05204 14.7613C7.08271 14.8097 8.1922 16.1898 7.89093 15.8337C7.83281 15.765 7.64738 15.5063 7.66299 15.5585C7.32457 15.133 6.98615 14.7074 6.64774 14.2818L6.55046 14.1626L6.54888 14C6.55193 12.9617 6.55497 11.9234 6.55802 10.885C6.57332 11.794 6.55963 12.817 6.56107 13.769C6.56114 13.8172 6.56091 13.9077 6.56111 14L6.56265 14.1582L6.65729 14.2742C6.75613 14.3972 6.85928 14.5235 6.84324 14.493C6.7852 14.42 6.72546 14.345 6.66442 14.2685L6.57175 14.1549L6.57025 14C6.57121 13.2485 6.56768 12.3813 6.57364 11.6935C6.57387 11.6686 6.58316 11.7599 6.58463 11.6668C6.58738 11.4926 6.57239 10.9254 6.57627 10.83C6.57717 10.8137 6.58942 11.1365 6.5972 11.0383C6.61718 10.7864 6.57294 10.7224 6.57346 10.5058C6.57386 10.3496 6.59248 9.36029 6.58404 9L6.58004 8.58812L7 8.58404C7.02611 8.58343 7.04892 8.58267 7.06787 8.58176C7.16398 8.57712 7.11191 8.5746 7 8.57292L6.56882 8.57711L6.57292 9C6.5694 9.23525 6.5696 9.73492 6.56162 9.67848C6.55812 9.45263 6.55676 9.22594 6.55654 9L6.55228 8.56089L7 8.55654C7.53744 8.55603 8.07064 8.56199 8.57825 8.56095C8.59095 8.56091 8.48065 8.55168 8.64153 8.55039C8.92149 8.54814 8.99498 8.56123 9.13123 8.56333C9.27818 8.56556 9.79787 8.56368 9.86736 8.56846C9.87621 8.56908 9.77093 8.58207 9.75495 8.58243C9.52859 8.58779 9.44817 8.57093 9.42757 8.57071C9.35018 8.57007 9.27414 8.57653 9.20355 8.57615C9.0873 8.5755 9.0233 8.56953 8.86987 8.569C8.76401 8.56862 8.86617 8.58009 8.76415 8.57956C8.7267 8.57933 8.32273 8.55313 8.28506 8.57987C8.27337 8.5883 11.5769 8.59912 11.9071 8.59238C11.6239 8.58917 11.3407 8.58595 11.0574 8.58274C11.6326 8.59056 12.3235 8.5692 12.3725 8.60081C14.5054 8.60339 16.6383 8.60597 18.7712 8.60856C19.1521 8.61125 18.9433 8.63156 19.5699 8.62565C19.4079 8.61918 19.246 8.61271 19.0841 8.60624C19.4052 8.61078 20.8283 8.61964 21.0586 8.61545C21.0884 8.61491 21.1299 8.59652 21.4854 8.59495C21.801 8.59355 21.8517 8.60732 22.0203 8.60996C22.162 8.61214 22.321 8.60853 22.3631 8.60929C22.3953 8.6099 22.4081 8.61832 22.4857 8.61979C22.7307 8.62433 22.5321 8.60062 22.7753 8.62784C22.7161 8.62888 22.6569 8.62992 22.5977 8.63096C22.8934 8.6349 23.2974 8.64726 22.8618 8.65336C22.7869 8.65441 22.8512 8.64626 22.7954 8.64628C20.6083 8.64779 22.3548 8.66363 23.1212 8.65098C23.318 8.66305 24.4212 8.65568 24.4579 8.65806C24.5089 8.6615 24.3201 8.67115 24.5675 8.67948C24.6196 8.68125 26.0946 8.67449 25.5634 8.69053C25.4538 8.69384 24.7467 8.69036 24.5762 8.69084C24.9773 8.71642 25.9175 8.67976 26.0233 8.6807C26.4498 8.68469 25.2039 8.70288 26.1648 8.70585C26.9036 8.70813 26.2099 8.69105 26.4941 8.68376C26.6538 8.67966 27.4899 8.69848 27.4672 8.67411C27.7542 8.67151 27.5863 8.68441 27.6217 8.68534C27.6563 8.68616 28.2206 8.67886 28.4038 8.684C28.426 8.68464 28.3561 8.69731 28.379 8.69834C28.4237 8.70012 28.9679 8.69759 28.9898 8.69651C29.0037 8.69577 28.874 8.68467 28.9273 8.68199C28.9894 8.67888 29.5131 8.68149 29.542 8.67832C29.5828 8.67353 28.9363 8.67669 29.044 8.66428C29.342 8.66741 29.8275 8.65913 30.0242 8.64915C29.976 8.652 29.6871 8.65241 29.5868 8.65141C29.634 8.63324 30.2544 8.63349 30.0423 8.64787C30.1771 8.64014 30.0851 8.63605 30.161 8.62876C30.1809 8.62691 30.3725 8.62653 30.4094 8.62339C30.4142 8.62276 30.2165 8.61591 30.2561 8.61222C30.3278 8.60555 30.9085 8.60705 30.9561 8.6088C31.0898 8.61376 30.6163 8.61976 30.5768 8.62742C30.5712 8.62859 30.9739 8.64361 30.98 8.64494C31.0036 8.65916 30.5554 8.64891 30.6067 8.66172C30.7175 8.66443 30.8283 8.66713 30.9392 8.66984C30.5117 8.68281 29.7208 8.67614 29.5168 8.6909C30.1507 8.68651 30.814 8.68702 30.8126 8.72026C30.8122 8.73425 30.5387 8.74245 30.5493 8.74601C30.5896 8.75875 30.9692 8.74491 30.9832 8.74559C30.9947 8.74636 31 8.74712 31 8.74785C31 8.74785 31 8.74785 31 8.74785C31 8.75531 30.4589 8.76068 30.4318 8.76408C30.3863 8.77013 30.6271 8.79501 30.6267 8.80052C30.6183 8.80163 30.233 8.80752 30.363 8.81712C30.4946 8.82683 30.8319 8.82704 30.8437 8.82805C30.9081 8.83385 30.3181 8.83915 30.3005 8.84257C30.2912 8.84431 30.6081 8.85496 30.6173 8.85802C30.6252 8.86109 30.3844 8.86779 30.2895 8.87749C30.2188 8.88469 30.4248 8.89021 30.3885 8.89134C30.3627 8.89209 29.8052 8.89197 29.7778 8.89324C29.737 8.89511 29.8676 8.90372 29.8485 8.90587C29.8216 8.90897 29.6416 8.90586 29.665 8.90904C29.6826 8.91142 30.3805 8.9411 30.376 8.94902C30.368 8.96254 29.6289 8.93143 30.3166 8.98479C30.3214 8.98514 30.4888 8.98135 30.4935 8.98168C30.5968 8.9915 30.0602 9.0066 30.7163 9.00396C29.4957 9.02101 30.5644 9.02428 30.3838 9.04705C30.3141 9.0558 29.8409 9.05941 29.8387 9.06072C29.8847 9.07182 30.0354 9.06321 30.0867 9.06866C30.1149 9.0717 29.6916 9.08344 29.7868 9.09106C29.8361 9.09499 30.2855 9.09359 30.3041 9.09435C30.4819 9.10158 30.2638 9.10936 30.3029 9.1145C30.3288 9.11794 30.6 9.11821 30.6071 9.11883C30.6185 9.12012 30.2503 9.13402 30.1736 9.13891C30.1153 9.14267 30.3341 9.14856 30.2934 9.1502C30.0483 9.16001 29.5268 9.135 30.0293 9.17004C30.06 9.17219 30.2501 9.17132 30.2557 9.17175C30.3732 9.18168 30.0232 9.18254 29.9606 9.19067C29.853 9.20468 30.3561 9.19687 29.9378 9.20672C30.2516 9.21589 30.4265 9.2155 30.7938 9.21295C29.7769 9.22008 29.4179 9.25635 30.5469 9.25543C30.1878 9.25487 30.2276 9.27534 30.1205 9.2757C30.0539 9.2759 29.5332 9.25554 29.7719 9.30121C29.8019 9.30691 30.1182 9.29967 30.0191 9.31134C29.2599 9.30836 30.003 9.31877 30.0038 9.32031C29.994 9.34721 28.1389 9.32518 27.8202 9.32825C27.4503 9.33181 27.1216 9.353 27.0412 9.35303C26.7767 9.35304 26.9962 9.34228 26.937 9.33832C26.8771 9.3344 26.1249 9.35502 26.0873 9.35389C25.9416 9.34934 26.0895 9.33658 26.0744 9.33594C25.894 9.32813 24.8837 9.33811 24.6009 9.33515C24.6097 9.34342 25.1775 9.34408 24.823 9.35736C24.4102 9.37286 24.3865 9.33639 24.3757 9.33478C22.4842 9.33513 20.5928 9.33547 18.7013 9.33582C18.7249 9.35522 19.9615 9.34059 19.9896 9.34314C20.1548 9.35827 18.0658 9.35799 17.8095 9.35114C18.0042 9.35533 18.1989 9.35952 18.3936 9.36371C18.0611 9.38602 17.3255 9.35704 16.8447 9.36689C16.6893 9.37008 16.9876 9.37869 16.9814 9.37928C16.8068 9.38794 16.5267 9.38127 16.7362 9.36963C16.31 9.38078 16.3723 9.36848 16.0453 9.36756C16.0284 9.36752 16.1688 9.37652 15.9101 9.38025C15.7888 9.382 15.1422 9.38202 15.0556 9.3899C15.02 9.39321 15.348 9.42812 15.3885 9.39808C16.0918 9.41272 15.6132 9.38439 15.8865 9.38508C15.9284 9.38523 15.832 9.402 16.52 9.39411C16.389 9.42435 15.5967 9.40174 15.4608 9.4054C15.1808 9.41293 16.335 9.42855 16.5467 9.40497C16.4478 9.42857 16.6286 9.40815 16.8859 9.40912C17.1676 9.41018 17.0448 9.4172 17.1972 9.41724C17.614 9.41742 17.4412 9.40076 17.7848 9.41578C17.4498 9.36928 18.3729 9.40964 18.6419 9.42182C18.2042 9.42418 17.7666 9.42654 17.3289 9.4289C17.3539 9.43134 17.3789 9.43378 17.4039 9.43623C17.2886 9.43588 17.1734 9.43553 17.0581 9.43519C17.0765 9.43285 17.095 9.43051 17.1135 9.42817C16.519 9.44338 16.374 9.42628 16.3255 9.42609C15.7015 9.42411 14.9807 9.42426 14.3498 9.4242C14.2551 9.42419 14.3201 9.43941 13.6301 9.4275C13.4101 9.4237 13.6179 9.41186 13.3684 9.41364C13.0564 9.44581 13.0623 9.42015 12.9695 9.42011C12.7033 9.42012 12.5405 9.42808 12.5159 9.42817C12.187 9.42941 11.7053 9.42808 11.3439 9.42927C11.3372 9.42939 11.5252 9.43927 11.2905 9.43635C11.208 9.4353 10.4688 9.39311 9.82255 9.40687C9.99064 9.40971 10.1587 9.41256 10.3268 9.41541C10.1291 9.41143 8.74425 9.42206 9.08289 9.43336C9.29046 9.44026 9.79723 9.41307 9.85282 9.43922C9.48194 9.43292 7.76109 9.43927 7 9.43882L7.43882 9C7.43871 9.18464 7.4382 9.31279 7.43702 9.35148C7.43615 9.37889 7.42767 9.21025 7.42658 9.24812C7.42575 9.27743 7.42776 9.86046 7.42451 9.93787C7.42257 9.98393 7.41737 9.72631 7.41431 9.74725C7.41213 9.76559 7.4085 10.4937 7.41913 10.5353C7.41487 10.3564 7.41859 9.85392 7.42756 10.1175C7.42867 10.1514 7.42181 10.3271 7.42322 10.3682C7.43625 10.7504 7.43313 9.6084 7.43323 9.43166C7.44678 10.149 7.43081 11.2585 7.43964 12.0897C7.43079 12.4255 7.4261 11.5917 7.41877 11.9718C7.40357 12.7601 7.43101 12.1815 7.43214 12.206C7.44107 12.4018 7.39321 13.0687 7.42963 13.0691C7.42415 13.3549 7.41956 13.2624 7.42432 13.6657C7.42685 13.6126 7.42937 13.5596 7.43189 13.5065C7.43818 13.64 7.43787 13.8179 7.43422 14L7.33907 13.7287C7.60021 14.0689 7.86146 14.4388 7.8281 14.4017C7.70029 14.2593 7.40522 13.8634 7.37856 13.8307C7.36613 13.8155 7.34406 13.7939 7.30712 13.7543L7.3933 14C7.38443 13.8825 7.37422 13.6543 7.39686 13.1866C7.37206 12.907 7.38012 14.2688 7.36322 13.6492C7.36374 13.727 7.36356 13.8499 7.363 14L7.28346 13.7732C7.692 14.2878 8.42047 15.2141 8.55342 15.3661C8.573 15.3883 8.50625 15.2653 8.76214 15.6053C8.8836 15.7667 8.57921 15.3867 8.63254 15.4624C8.7677 15.6541 10.4359 17.7314 11.277 18.7784L11.3698 18.8967L11.3526 19.0392C11.3214 19.3251 11.2968 19.5508 11.2826 19.6796C11.2774 19.727 11.2717 19.7088 11.2666 19.7554C11.2509 19.8984 11.2044 20.4209 11.1724 20.6765C11.2455 20.1477 11.1321 21.1779 11.1014 21.4398C11.0549 21.8372 11.0442 21.8111 11.0223 21.9826C10.9377 22.6436 10.8555 23.6732 10.7686 24.1843C10.8013 24.1594 10.6553 25.0725 10.6086 25.4901C10.572 25.8171 10.5389 26.2939 10.5998 25.8537C10.5357 26.4182 10.4752 27.0131 10.4181 27.543C10.4087 27.6306 10.4134 27.5091 10.3976 27.6585C10.3962 27.6721 10.4027 27.6918 10.3893 27.8201C10.2791 28.8799 10.3182 28.3626 10.2908 28.5601C10.2755 28.6707 10.2649 28.7523 10.2578 28.8123C10.3247 28.1949 10.4004 27.4826 10.4213 27.2922C10.3844 27.4525 10.2729 28.6606 10.2286 29.0131C10.2271 29.0254 10.2214 28.9815 10.22 28.994C10.2199 28.9942 10.2199 28.9945 10.2199 28.9948C10.2044 29.127 10.1146 29.9701 10.1463 29.798C10.1548 29.7518 10.1979 29.3639 10.2478 28.9038C10.2363 29.0285 10.2583 28.9369 10.2564 28.9589C10.2326 29.226 10.1486 29.8775 10.1214 30.1088C10.1152 30.1617 10.1231 30.1588 10.1221 30.1674C10.097 30.3779 10.0853 30.2891 10.0833 30.5076C10.0143 30.886 10.1587 29.7924 10.1329 29.8677C10.113 29.9256 9.84962 32.361 9.87138 32.356C9.86821 32.3642 9.86171 32.3973 9.85091 32.4657C9.82696 32.6171 9.75387 33.295 9.74474 33.4124C9.7433 33.4322 9.76452 33.4266 9.76199 33.4511C9.75566 33.5124 9.64768 34.3388 9.62533 34.6495C9.64675 34.4828 9.66816 34.316 9.68957 34.1493C9.57766 35.1582 9.60104 35.0029 9.64447 34.6675C9.64639 34.6507 9.64898 34.6344 9.65085 34.6183C9.68429 34.3583 9.72573 34.0248 9.7279 34.0199C9.73615 34.0015 9.54938 35.7134 9.56709 35.3821C9.56961 35.336 9.666 34.545 9.60896 34.9356C9.59898 35.0039 9.54632 35.5129 9.54187 35.5395C9.51214 35.7171 9.62242 34.6051 9.59331 34.7393C9.57672 35.0103 9.53125 35.3554 9.50035 35.665C9.48628 35.8058 9.49264 35.8415 9.4909 35.8589C9.46475 36.1185 9.47023 35.9718 9.46087 36.0584C9.45589 36.1049 9.42187 36.6185 9.40122 36.5184C9.37971 36.7396 9.36335 36.9108 9.35141 37.039L9 36.6464C9.48058 36.6379 9.35914 36.6342 9 36.6329L9.36486 37.0405C9.39659 36.764 9.44267 36.3455 9.48554 35.9536C9.46477 36.2276 9.40778 36.7195 9.37256 37.0414L9 36.6251C9.06341 36.625 9.12024 36.6248 9.16755 36.6244C9.27122 36.6234 9.20977 36.6129 9.38489 36.6108C9.74531 36.6064 11.4661 36.6185 11.9144 36.6214C11.6391 36.6251 11.7196 36.6366 11.9321 36.6358C12.1446 36.635 11.9661 36.6197 12.0075 36.618C12.052 36.6163 13.049 36.6236 13.2149 36.6216C12.4643 36.6271 12.6336 36.6386 13.2707 36.6398C13.1786 36.6431 13.0865 36.6464 12.9944 36.6497C13.3678 36.645 14.1529 36.6625 14.3688 36.6573C14.4026 36.6565 14.281 36.6468 14.3 36.6464C14.4893 36.6423 15.1335 36.6521 15.1635 36.6488C15.1889 36.6461 14.9141 36.638 15.0161 36.634C15.0374 36.6332 15.3023 36.6462 15.5632 36.643C15.66 36.6418 15.6017 36.6327 15.6261 36.6322C15.8293 36.6278 15.7094 36.6431 16.0808 36.6407C16.3529 36.6389 16.5556 36.6239 16.9317 36.6288C15.6969 36.6097 16.7349 36.6177 17.2512 36.6119C17.3339 36.611 17.263 36.5945 17.7574 36.6025C16.7053 36.6324 18.0574 36.6183 18.334 36.6186C18.3492 36.6187 18.3543 36.6296 18.49 36.6298C18.5015 36.6298 18.485 36.6224 18.6111 36.6219C19.8068 36.6166 19.0422 36.6249 19.2694 36.6321C19.3661 36.6352 19.9475 36.6248 20.1041 36.6246C20.1402 36.6245 20.1236 36.6322 20.2629 36.6319C20.5094 36.6313 20.7302 36.6232 20.8929 36.6226C20.9119 36.6225 20.9127 36.6346 21.2211 36.6307C21.3078 36.6296 21.4052 36.6253 21.282 36.6218C20.8736 36.6104 20.0989 36.6302 19.6372 36.6188C19.2163 36.6084 20.5437 36.6074 20.6127 36.6074C20.6381 36.6073 20.3788 36.6133 20.6422 36.6145C20.8671 36.6155 21.2781 36.5946 21.6133 36.5992C21.6389 36.5995 21.9067 36.6172 21.8944 36.6182C21.8831 36.619 21.4719 36.6228 21.5316 36.6279C21.5387 36.6285 21.8001 36.6284 21.8342 36.6322C21.876 36.6368 21.9887 36.6823 22.0445 36.6835C22.1877 36.6863 22.0945 36.6759 22.1872 36.6766C22.3858 36.6782 23.075 36.6916 23.0974 36.6758C22.9835 36.6749 22.8697 36.674 22.7559 36.673C23.3893 36.6714 23.1193 36.6647 23.209 36.6617C23.3056 36.6585 23.2785 36.6724 23.492 36.6737C23.5384 36.674 24.4318 36.6711 24.4156 36.6653C23.9215 36.6745 24.1047 36.6574 24.0819 36.6571C23.9953 36.656 23.8848 36.6656 23.7687 36.6654C22.9518 36.6639 23.7756 36.6487 23.5828 36.6448C23.5164 36.6435 23.3842 36.6517 23.356 36.6513C23.2645 36.6499 23.263 36.6392 23.2019 36.6401C23.0595 36.6421 23.2258 36.6573 23.2145 36.6581C23.0872 36.6676 22.5884 36.6558 22.8989 36.6392C22.7125 36.6333 22.6907 36.6534 22.5428 36.6453C22.2489 36.6294 22.6892 36.6335 22.8085 36.6309C23.2364 36.6213 23.3634 36.629 23.9691 36.6264C24.1872 36.6255 24.4456 36.6157 24.5469 36.6152C24.6106 36.6148 25.2126 36.6488 25.2303 36.5956C25.4643 36.6008 25.8315 36.6358 26.0726 36.6342C26.289 36.6328 26.2202 36.6139 26.2404 36.6132C26.2713 36.6121 26.5331 36.6136 26.6216 36.6109C26.7253 36.6078 26.6736 36.6006 26.8382 36.5977C27.2478 36.5904 27.237 36.6096 27.2791 36.6108C27.7679 36.6253 27.5539 36.5979 27.6623 36.5958C27.7342 36.5943 28.4734 36.5992 29 36.5997L28.6021 37.0442C28.5789 36.8331 28.5587 36.6565 28.5473 36.5716C28.5645 36.6917 28.5817 36.8117 28.5989 36.9317C28.5868 36.7148 28.542 36.4885 28.5629 36.4821C28.5236 36.4422 28.4972 35.9948 28.4815 35.8612C28.4753 35.8086 28.4699 35.8134 28.4623 35.7475C28.4326 35.4901 28.3728 34.909 28.3543 34.7697C28.2744 34.1671 28.4247 35.714 28.4369 35.8357C28.4102 35.5923 28.2495 34.2161 28.3033 34.8509C28.3116 34.949 28.3463 35.1207 28.353 35.1756C28.3983 35.5471 28.352 35.2561 28.3539 35.2854C28.3573 35.3352 28.3978 35.5786 28.4034 35.6433C28.4053 35.6649 28.3774 35.5275 28.4165 35.8823C28.385 35.7092 28.2841 34.711 28.2667 34.5805C28.2605 34.5341 28.2671 34.829 28.1974 33.9729C28.1961 33.9831 28.1948 33.9933 28.1935 34.0034C28.1397 33.5284 28.0859 33.0534 28.0322 32.5784C28.0434 32.6294 28.0842 32.8949 28.0445 32.5592C28.0217 32.3659 28.0252 32.5104 28.0229 32.4928C28.0002 32.3196 27.6629 29.2468 27.5954 28.6516C27.5725 28.4491 27.4998 27.8856 27.4948 27.8426C27.4652 27.5853 27.3704 26.6731 27.3488 26.4914C27.3353 26.378 27.337 26.487 27.3262 26.3856C27.3162 26.2912 27.337 26.3878 27.3343 26.3597C27.3122 26.1274 27.1033 24.3668 27.0662 23.9473C27.0918 24.2033 27.2535 25.4773 27.2577 25.4508C27.2581 25.4452 27.2312 25.1342 27.2204 25.0706C27.2173 24.964 27.1506 24.604 27.1339 24.406C27.132 24.3836 27.1565 24.4699 27.12 24.1173C27.1075 23.9958 27.0607 23.6793 27.038 23.3581C26.9804 22.8957 26.729 20.4593 26.6946 20.294C26.6932 20.2892 26.7259 20.6326 26.6936 20.4017C26.6508 20.0947 26.7106 20.368 26.6733 20.0089C26.6688 19.9658 26.5957 19.3247 26.5633 19.0485L26.5446 18.8632L26.6569 18.7255C26.7011 18.6696 26.7303 18.6325 26.7342 18.627C26.8151 18.5139 26.7437 18.5944 26.6428 18.7142L26.5258 18.8576L26.5454 19.0505C26.5613 19.2364 26.5872 19.4913 26.5854 19.4848C26.581 19.4688 26.555 19.2532 26.5315 19.0521L26.5114 18.8533L26.6319 18.7055C26.7407 18.568 26.8431 18.4394 26.8521 18.429C26.8707 18.4077 26.5161 18.8858 26.9562 18.3225C26.903 18.3848 26.8498 18.4471 26.7966 18.5094C27.0027 18.2437 27.0344 18.2281 27.086 18.1651C27.2465 17.9693 27.3997 17.7411 27.6751 17.4421C27.748 17.363 27.6433 17.5072 27.6525 17.4975C27.7409 17.4032 27.8225 17.2579 27.9593 17.1192C27.9695 17.1088 27.6973 17.4684 28.1896 16.8531C28.1542 16.8942 28.1188 16.9354 28.0835 16.9765C28.1495 16.887 28.6459 16.2624 28.7138 16.1792C28.912 15.9362 28.752 16.1584 28.9476 15.9113C28.8065 16.0572 29.4033 15.3073 29.3816 15.3605C29.4492 15.2432 29.9702 14.6173 30.2096 14.3188C30.336 14.1612 30.567 13.8624 30.6678 13.7342L30.5745 14C30.5743 13.9681 30.5742 13.9444 30.5743 13.9318C30.5756 13.8384 30.5896 13.8668 30.5928 13.698C30.5937 13.6499 30.5834 13.1474 30.5979 12.7064C30.6007 12.6209 30.6245 12.4414 30.6304 12.6003C30.6406 12.8722 30.6214 13.3866 30.6355 13.38C30.6505 13.3723 30.6416 12.6795 30.6436 12.493C30.6526 11.632 30.6686 12.1292 30.6735 12.107C30.6852 12.0496 30.6849 11.5792 30.6859 11.5596C30.6906 11.4782 30.6999 11.8116 30.7071 11.8166C30.7164 11.8227 30.7333 11.3692 30.7365 11.4723C30.7409 11.6199 30.7269 12.0366 30.7275 12.063C30.7366 12.407 30.7582 11.9355 30.7688 11.8056C30.7721 11.7662 30.7774 11.9231 30.7784 11.8905C30.7929 11.392 30.748 11.7854 30.751 11.4538C30.7537 11.158 30.7679 11.5386 30.7687 11.5273C30.7695 11.5127 30.7703 11.159 30.7753 11.1037C30.7778 11.0764 30.8054 11.9957 30.8178 11.9573C30.8151 11.664 30.8124 11.3707 30.8096 11.0773C30.8258 11.0543 30.8139 11.4762 30.8156 11.5199C30.8189 11.6077 30.8271 11.3628 30.8322 11.3733C30.8354 11.3789 30.847 11.6664 30.8517 11.4067C30.8534 11.3174 30.8421 11.1301 30.8536 10.805C30.8684 11.9364 30.8775 11.1523 30.8832 11.119C30.8889 11.0863 30.9023 11.6265 30.9 10.9708C30.9314 10.9424 30.9099 10.985 30.9154 11.1713C30.9222 11.3995 30.9325 10.872 30.9247 11.7062C30.9394 11.6587 30.9383 10.9882 30.9395 10.9527C30.9406 10.9221 30.9478 11.0711 30.9503 11.018C30.9787 10.3894 30.9657 10.8212 30.9838 10.6391C30.9855 10.6229 30.9922 10.0289 30.9948 10.4811C30.9996 11.3051 30.9788 11.6494 31.0233 11.7879C31.0427 11.1785 31.0139 10.44 31.0134 10.2547C31.0127 9.97116 31.0218 10.2649 31.0244 10.23C31.0252 10.2178 31.0244 9.97347 31.0252 9.97019C31.0591 9.79594 31.0257 11.0581 31.0316 11.4554C31.0367 11.3489 31.0418 11.2424 31.0469 11.1359C31.0471 11.2804 31.0473 11.4249 31.0475 11.5694C31.0577 10.881 31.0514 11.5451 31.0789 11.7168C31.085 11.7553 31.0745 11.3031 31.0916 11.819C31.0956 11.4385 31.1012 11.5598 31.0935 11.2153C31.1045 11.2242 31.1169 11.9994 31.1226 12.3051C31.135 11.225 31.0945 11.8409 31.1159 10.9072C31.1023 10.734 31.1049 11.1797 31.1027 11.1434C31.0946 11.013 31.1074 10.7073 31.0791 10.3385C31.0744 10.2784 31.06 10.5325 31.0607 10.1565C31.0608 10.1149 31.0731 9.8753 31.074 9.87862C31.0836 9.91038 31.08 10.1475 31.084 10.1573C31.0878 10.1665 31.0855 9.90193 31.0866 9.90102C31.0986 9.89289 31.0912 10.1217 31.0949 10.0885C31.1031 10.0167 31.129 9.06523 31.1214 10.307C31.1078 9.27558 31.1081 10.175 31.1134 10.5766C31.1147 10.6791 31.1218 10.705 31.1243 10.851C31.1276 11.0387 31.1241 11.2584 31.1254 11.3556C31.1269 11.4601 31.1439 10.8664 31.1388 11.725C31.1557 11.288 31.1377 10.5162 31.1496 10.0869C31.1735 9.22089 31.1787 10.6908 31.181 10.8439C31.1816 10.8847 31.1913 10.7479 31.1919 10.7751C31.1928 10.8196 31.1883 11.6538 31.1964 11.736C31.2044 11.8181 31.196 11.4305 31.2044 11.4047C31.21 11.3873 31.22 12.3936 31.2238 11.8488C31.2265 11.4734 31.2038 10.7812 31.2282 10.6647C31.2302 11.2169 31.2322 11.769 31.2342 12.3212C31.2435 12.019 31.2527 11.7168 31.262 11.4145C31.2649 12.0343 31.2545 12.5701 31.2677 13.1588C31.2974 11.7443 31.2914 13.618 31.295 13.6386C31.2972 13.6455 31.3212 13.0888 31.3256 12.9992C31.33 13.2287 31.3332 13.6757 31.3385 14L31.3396 14.1154L31.2643 14.2115C31.036 14.5065 30.9112 14.6765 31.2167 14.3201C31.112 14.4402 30.8841 14.7516 30.8883 14.7484C30.9166 14.7276 31.1748 14.4027 31.3048 14.2439L31.3917 14.1331L31.3904 14C31.3914 13.9093 31.3931 13.8596 31.3968 13.9016C31.3994 13.9321 31.4008 13.965 31.4015 14L31.4028 14.1369L31.3135 14.2508C31.2238 14.3672 31.0999 14.5028 30.9775 14.6577C30.1999 15.6422 30.4684 15.4163 29.6741 16.3918C29.6917 16.3738 29.7092 16.3558 29.7267 16.3378C28.9364 17.32 28.146 18.3023 27.3556 19.2845L27.4526 18.9497C27.4641 19.0557 27.4756 19.1616 27.487 19.2676C27.5669 19.797 27.7368 21.2106 27.8117 21.9059C27.8268 22.0459 27.8923 22.7342 27.8961 22.7862C27.9031 22.8826 27.843 22.3549 27.8627 22.5942C27.8668 22.6447 27.9915 23.8085 27.9939 23.724C27.9808 23.5935 27.9296 23.1862 27.9249 23.1191C27.8924 22.648 28.2752 26.2359 28.3028 26.4127C28.2978 26.3328 28.2928 26.253 28.2877 26.1731C28.311 26.3996 28.3343 26.6262 28.3576 26.8527ZM28.2085 16.7549C28.2847 16.6409 28.5055 16.379 28.6294 16.2189C28.8004 15.9977 29.062 15.5983 28.9696 15.7864C28.7159 16.1092 28.4622 16.4321 28.2085 16.7549ZM26.9123 22.5238C26.8881 22.2495 26.9369 22.4589 26.9514 22.6844C26.9529 22.7094 26.945 22.895 26.9123 22.5238ZM26.6055 19.6538C26.6071 19.6653 26.6327 19.9018 26.6332 19.9101C26.6467 20.1233 26.5695 19.4102 26.6055 19.6538ZM28.1582 33.5103C28.1236 33.2089 28.125 33.4298 28.1552 33.6162C28.1571 33.6279 28.1604 33.5301 28.1582 33.5103ZM28.135 33.2958C28.1294 33.0593 28.0355 32.5923 28.0813 32.9668C28.0858 33.0031 28.1352 33.3067 28.135 33.2958ZM26.8139 21.5473C26.8252 21.5773 26.8528 21.8599 26.8643 21.9807C26.8567 21.9782 26.8279 21.6654 26.8139 21.5473ZM27.6113 28.7036C27.6188 28.7149 27.5094 27.7339 27.4939 27.6679C27.5145 27.8224 27.6045 28.6929 27.6113 28.7036ZM27.8995 31.2186C27.8978 31.1936 27.8585 30.8549 27.8542 30.8654C27.8654 31.0316 27.9071 31.3311 27.8995 31.2186ZM28.4548 36.2193C28.4582 36.2376 28.4647 35.9799 28.5086 36.5839C28.5151 36.6725 28.471 36.3582 28.4733 36.3897C28.4781 36.4557 28.4828 36.5077 28.4872 36.5495C28.4532 36.2697 28.4195 35.9789 28.4185 35.9505C28.4138 35.8172 28.4533 36.2112 28.4548 36.2193ZM27.1946 36.5703C27.1366 36.576 26.7657 36.573 26.6813 36.5706C26.6669 36.5702 26.73 36.5552 26.563 36.5563C26.429 36.5573 26.6292 36.5726 26.3681 36.5701C26.1042 36.5677 26.4568 36.5567 26.4337 36.556C26.4028 36.5549 25.9946 36.5618 26.0073 36.5529C26.0168 36.5463 26.4541 36.5508 26.5623 36.5494C26.7007 36.5476 26.5328 36.5366 26.7643 36.5389C26.9097 36.5404 26.8291 36.5597 26.8598 36.5607C26.8855 36.5615 27.3939 36.5504 27.1938 36.5702C27.1941 36.5703 27.1944 36.5703 27.1946 36.5703ZM28.4965 36.6251C28.4935 36.6041 28.4904 36.5794 28.4872 36.5495C28.4903 36.5749 28.4934 36.6001 28.4965 36.6251ZM27.7182 17.3814C27.6241 17.4894 27.8835 17.1529 27.9901 17.0322C27.9968 17.034 27.7332 17.3642 27.7182 17.3814ZM28.541 36.8832C28.549 36.9643 28.554 37.0181 28.5564 37.0493L29 36.5537C28.9513 36.5521 28.9574 36.5503 29 36.5486L28.5514 37.0498C28.5408 36.98 28.5192 36.8107 28.4965 36.6251C28.5131 36.7422 28.5271 36.7433 28.541 36.8832ZM27.2204 25.0706C27.2209 25.0883 27.2199 25.0997 27.2164 25.1015C27.2153 25.0549 27.217 25.0506 27.2204 25.0706ZM27.3217 26.042C27.3698 26.3736 27.2943 25.6975 27.2867 25.7027C27.2839 25.705 27.3198 26.0288 27.3217 26.042ZM28.2001 33.8971C28.1978 33.8666 28.2841 34.3357 28.1824 33.6519C28.2192 34.0188 28.1726 33.6326 28.1702 33.6387C28.1634 33.6545 28.24 34.2692 28.2514 34.4059C28.2785 34.5109 28.2076 33.998 28.2001 33.8979C28.2001 33.8976 28.2001 33.8974 28.2001 33.8971ZM22.434 36.5621C22.5179 36.5531 22.7841 36.556 22.9638 36.5565C22.8798 36.5655 22.6136 36.5626 22.434 36.5621ZM11.0625 9.43922C9.83158 9.44751 9.67211 9.41099 10.7984 9.42542C10.8205 9.42572 11.1373 9.43551 11.0625 9.43922ZM8.27379 14.9043C8.33382 15.0048 8.09203 14.7067 7.93968 14.5057C7.90519 14.4602 7.78601 14.2854 7.93894 14.4716C7.91908 14.4776 8.14601 14.7731 8.27379 14.9043ZM28.9302 36.5669C28.8083 36.5775 28.4331 36.5699 28.2354 36.5684C28.356 36.5596 28.7554 36.5636 28.9302 36.5669ZM7.01756 9.42017C7.01162 9.42012 7.00576 9.42009 7 9.4201L7.4201 9C7.42021 9.11997 7.43287 9.19876 7.43397 9.17737C7.43641 9.13109 7.43533 9.05452 7.4327 9L7 9.4327C7.0636 9.42962 7.09717 9.42442 7.01756 9.42017ZM28.4451 35.9131C28.4495 35.8954 28.5105 36.3887 28.4987 36.4248C28.4881 36.3191 28.4425 35.9258 28.4451 35.9131ZM22.7728 36.5668C22.8499 36.5701 22.4503 36.5758 22.3294 36.5726C22.3391 36.5659 22.7222 36.5647 22.7728 36.5668ZM7.42487 11.0713C7.42367 11.1875 7.4233 11.4778 7.4289 11.51C7.4359 11.5499 7.43351 11.1242 7.42487 11.0713ZM26.5472 9.41279C26.5618 9.4153 26.1123 9.43343 25.9124 9.42884C25.5329 9.42006 26.5313 9.41101 26.5472 9.41279ZM8.24575 9.41303C8.61217 9.4262 8.20535 9.41345 8.22139 9.42731C8.46795 9.42781 9.08129 9.4285 8.65961 9.41486C8.57747 9.41222 8.36069 9.41393 8.24575 9.41303ZM7.90776 9.40839C7.86847 9.41288 7.60438 9.42705 7.83269 9.42603C7.93823 9.42554 8.10836 9.40981 7.90776 9.40839ZM23.7618 9.41895C23.4334 9.40667 24.9389 9.41326 24.9822 9.41541C25.005 9.41655 25.02 9.41762 25.0285 9.41852C25.0838 9.41463 25.3682 9.41393 25.4011 9.42377C25.3158 9.42296 25.0831 9.42383 25.056 9.42274C25.0444 9.42227 25.0357 9.42184 25.0297 9.42139C24.9294 9.42994 23.8248 9.42128 23.7618 9.41895ZM21.2673 9.40632C21.6431 9.38821 21.7096 9.419 21.6772 9.41999C21.2681 9.43259 21.5349 9.40988 21.5224 9.40882C21.4938 9.40705 21.2032 9.41759 21.2685 9.40632C21.2681 9.40632 21.2677 9.40632 21.2673 9.40632ZM23.2505 9.41389C23.2659 9.41348 23.5814 9.41444 23.5944 9.41492C23.853 9.42527 22.9603 9.42262 23.2505 9.41389ZM25.2036 36.5919C24.9777 36.5888 25.1993 36.5775 25.3494 36.5815C25.3617 36.5819 25.4028 36.5946 25.2036 36.5919ZM7.72736 9.41144C7.7006 9.41035 7.33775 9.40771 7 9.40767L7.40767 9C7.40763 9.32325 7.40997 9.62352 7.41834 9.58415C7.41755 9.53971 7.41842 9.2803 7.41894 9L7 9.41894C7.43728 9.41977 7.92538 9.41978 7.72736 9.41144ZM9.99427 17.0909C9.8468 16.9063 10.0203 17.0973 10.0944 17.1995C10.1218 17.2374 10.0315 17.1374 9.99427 17.0909ZM28.3857 35.2455C28.3498 35.0027 28.3849 35.0498 28.3983 35.2623C28.3988 35.2706 28.3871 35.255 28.3857 35.2455ZM8.82254 15.6113C9.33913 16.2414 9.17865 16.1227 8.53045 15.2848C8.55294 15.3093 8.57542 15.3337 8.59791 15.3582C7.84016 14.3987 8.54849 15.2906 8.73775 15.5226C8.80967 15.6108 8.75675 15.531 8.8221 15.6107C8.82224 15.6109 8.82239 15.6111 8.82254 15.6113ZM10.7696 18.0616C11.2314 18.6969 10.3141 17.5125 10.042 17.18C10.3139 17.4958 10.6509 17.9207 10.2022 17.3352C10.8781 18.1754 10.5864 17.8339 10.6124 17.8683C10.6431 17.9089 10.7499 18.0345 10.7696 18.0616ZM9.4765 16.4456C9.44736 16.4109 9.23966 16.1394 9.16183 16.044C9.27904 16.1707 9.67024 16.6762 9.4765 16.4456ZM18.6522 9.41474C18.6805 9.40502 18.7507 9.39786 19.0204 9.40149C18.9371 9.40638 18.7648 9.41058 18.6522 9.41474ZM28.4105 16.5843C28.5271 16.4397 28.7609 16.1532 28.6821 16.2354C28.6737 16.2445 28.4064 16.5803 28.4105 16.5843ZM7.40357 12.1635C7.40238 12.2031 7.40157 13.2246 7.4123 12.8718C7.41553 12.7654 7.41416 11.8359 7.40357 12.1635ZM9.12651 9.40479C9.04102 9.40469 8.69371 9.40652 8.68633 9.40882C8.66283 9.41677 9.08915 9.4124 9.12651 9.40479ZM29.0036 15.8589C29.0196 15.8404 29.3726 15.3963 29.33 15.4421C29.2491 15.5289 28.9485 15.9222 29.0036 15.8589ZM24.3818 36.6146C24.3344 36.615 24.2716 36.6044 24.2552 36.6043C24.2167 36.6042 23.3486 36.6082 23.6802 36.5947C23.7356 36.5924 24.9845 36.5976 25.147 36.5989C25.2098 36.6134 24.6763 36.5996 24.5465 36.6011C24.5236 36.6014 24.5089 36.6135 24.3822 36.6146C24.382 36.6146 24.3819 36.6146 24.3818 36.6146ZM20.0572 9.40449C20.0955 9.39527 21.1161 9.38917 21.1042 9.40034C20.7552 9.40172 20.4062 9.4031 20.0572 9.40449ZM19.5388 9.40296C19.3211 9.39644 19.831 9.39429 19.9814 9.39716C19.983 9.40336 19.5705 9.40391 19.5388 9.40296ZM7.19089 9.37037C7.08834 9.37262 7.40371 9.38606 7.33316 9.38868C7.29058 9.39021 7.08484 9.38583 7 9.38883L7.38883 9C7.38901 9.00524 7.38923 9.01002 7.38947 9.01427C7.38973 9.01837 7.39044 9.01253 7.3914 9L7 9.3914C7.05088 9.39529 7.2121 9.40334 7.26635 9.4029C7.36237 9.40217 7.26924 9.39222 7.37403 9.39216C7.72196 9.39194 8.03042 9.39904 8.35659 9.39887C8.38604 9.39884 8.15762 9.39181 8.40886 9.39191C8.44768 9.39191 8.68094 9.40237 8.98149 9.40082C9.64524 9.36843 10.1326 9.40024 10.9749 9.38855C10.9431 9.3855 10.3132 9.37732 10.2761 9.37702C9.57203 9.37169 8.31071 9.37111 7.5733 9.37104C7.38408 9.37101 7.47597 9.37787 7.39447 9.37812C7.33006 9.3783 7.40664 9.36561 7.19089 9.37037ZM28.3543 16.6657C28.4195 16.6045 28.6073 16.357 28.7317 16.2026C28.6791 16.2499 28.4776 16.5161 28.3543 16.6657ZM14.957 9.39313C14.8575 9.39362 14.5493 9.3898 14.5239 9.39362C14.4911 9.39861 14.9359 9.40175 14.957 9.39313ZM19.4871 36.611C19.4775 36.6114 19.2383 36.6107 19.2293 36.6103C19.0156 36.6001 19.733 36.6022 19.4871 36.611ZM13.7659 36.6086C13.5845 36.6101 13.4016 36.6141 13.3406 36.6038C13.4562 36.6054 13.7872 36.6014 13.7659 36.6086ZM9.73406 33.9352C9.71653 33.9709 9.78549 33.4293 9.79808 33.327C9.79981 33.3656 9.74674 33.909 9.73406 33.9352ZM18.6129 9.37244C18.9466 9.37324 18.8761 9.35283 19.088 9.36206C19.1226 9.36363 19.2344 9.40613 18.8675 9.3902C18.8015 9.38734 19.0598 9.37724 18.6129 9.37244ZM8.423 15.1498C8.36303 15.0891 8.19937 14.8803 8.08795 14.7399C8.11823 14.7672 8.34284 15.0506 8.423 15.1498ZM29.6516 15.0652C29.7592 14.9508 30.2037 14.3803 30.0854 14.5148C30.0687 14.534 29.7153 14.9863 29.6516 15.0652ZM28.0817 36.6075C27.7841 36.6174 28.4004 36.6205 28.595 36.6108C28.5069 36.6115 28.1017 36.6069 28.0817 36.6075ZM9.51741 35.8187C9.51858 35.8045 9.55438 35.491 9.55642 35.477C9.59526 35.2212 9.49404 36.1081 9.51741 35.8187ZM15.6473 36.6249C15.5336 36.6331 14.7862 36.6265 14.6188 36.6183C14.7799 36.6064 15.7884 36.6147 15.6473 36.6249ZM17.2396 9.37824C17.4777 9.37782 17.7036 9.38033 17.9223 9.38385C17.8763 9.39072 17.2648 9.38337 17.2396 9.37824ZM9.64447 34.6675C9.64639 34.6507 9.64898 34.6344 9.65085 34.6183C9.64869 34.6351 9.64654 34.6515 9.64447 34.6675ZM11.9107 9.37342C11.7112 9.37071 11.7526 9.38329 11.7649 9.38367C11.915 9.38775 12.1366 9.37648 11.9107 9.37342ZM28.5113 16.4994C28.5634 16.4525 28.7662 16.1849 28.8889 16.0359C28.8469 16.074 28.6075 16.3772 28.5113 16.4994ZM11.2764 18.7322C11.2878 18.7481 11.2944 18.7579 11.2969 18.7625L11.3963 18.8893L11.3778 19.042C11.3766 19.0459 11.3759 19.0456 11.3756 19.0417L11.3939 18.89L11.2951 18.7639C11.2531 18.7285 10.7572 18.1242 10.647 17.9754C10.643 17.9583 11.2547 18.7025 11.2764 18.7322ZM28.6262 37.0358C28.6329 37.015 28.5749 36.5905 28.5808 36.6814C28.5845 36.739 28.6221 37.0483 28.6262 37.0358ZM10.3306 17.5717C10.2687 17.4986 10.136 17.3187 10.1893 17.3767C10.2577 17.4513 10.3467 17.5905 10.3306 17.5717ZM7.36243 10.2723C7.36107 10.3142 7.3702 10.8777 7.37928 10.6449C7.38558 10.4834 7.37272 10.4577 7.37269 10.4197C7.37273 10.3773 7.38846 9.47275 7.36243 10.2723ZM10.7462 24.6825C10.7663 24.4708 10.7986 24.2158 10.823 23.9946C10.8184 24.0853 10.7635 24.5934 10.7462 24.6825ZM27.3542 36.6269C27.4058 36.6305 28.8123 36.6327 28.0133 36.6216C27.9667 36.621 27.1974 36.6161 27.3542 36.6269ZM18.6129 9.37244C18.5708 9.37234 18.5222 9.37192 18.4659 9.37104C18.5218 9.37138 18.5705 9.37199 18.6129 9.37244ZM14.8226 9.3711C14.8994 9.36462 14.5123 9.36289 14.3981 9.36634C14.3629 9.37425 14.812 9.372 14.8226 9.3711ZM10.8159 23.9768C10.8263 23.849 10.856 23.6182 10.8731 23.4604C10.8761 23.4878 10.8281 23.9224 10.8159 23.9768ZM9.815 32.9231C9.84667 32.6705 9.87963 32.359 9.87284 32.3534C9.87457 32.3483 9.87715 32.3362 9.88063 32.3159C9.88412 32.2955 9.91084 32.0241 9.92642 31.9066C10.0196 31.2033 9.63265 34.63 9.8327 32.6412C9.8268 32.7352 9.8209 32.8292 9.815 32.9231ZM16.6585 36.6423C16.803 36.6512 17.2077 36.64 17.1026 36.6365C17.0295 36.6341 16.5139 36.6332 16.6585 36.6423ZM11.0989 36.6476C11.142 36.6492 11.5371 36.6429 11.5473 36.6382C11.3202 36.6332 10.9021 36.6401 11.0989 36.6476ZM17.7692 36.6528C17.8599 36.6541 17.9756 36.6397 17.9649 36.639C17.8728 36.6338 17.6169 36.6447 17.7692 36.6528ZM17.9215 9.3335C17.7866 9.32936 17.3565 9.33982 17.2628 9.34937C17.2454 9.34752 17.1984 9.34512 17.1123 9.34223C17.1126 9.34223 17.1128 9.34223 17.1131 9.34223C16.9968 9.33837 13.5205 9.33416 15.8523 9.35254C15.9253 9.35313 15.8255 9.34456 16.1227 9.34607C16.1423 9.34618 16.1521 9.35318 16.2127 9.35352C16.3522 9.35426 17.0954 9.35866 17.2448 9.35303C17.246 9.35433 17.2557 9.35556 17.2762 9.35669C17.4594 9.36678 18.0262 9.33669 17.9215 9.3335ZM10.3156 36.6489C10.3951 36.6515 10.6467 36.649 10.6728 36.6428C10.548 36.6398 10.131 36.6428 10.3156 36.6489ZM27.3978 36.6523C27.5598 36.6574 27.9703 36.6479 27.8463 36.6428C27.7702 36.6397 27.211 36.6465 27.3978 36.6523ZM12.8364 36.6456C11.9076 36.6383 12.6147 36.6462 12.4725 36.6552C12.5938 36.652 12.7151 36.6488 12.8364 36.6456ZM22.2204 9.35688C22.0723 9.35479 22.2463 9.33693 22.4094 9.34662C22.4606 9.3497 22.3033 9.35801 22.2204 9.35688ZM28.9084 9.35132C28.782 9.33548 29.3994 9.34479 29.1588 9.35566C29.1476 9.35602 28.9175 9.35192 28.9084 9.35132ZM24.235 9.34485C24.1345 9.35564 24.069 9.35692 23.7858 9.35425C24.2051 9.35121 23.8162 9.34167 24.235 9.34485ZM9.87138 32.356C9.872 32.3545 9.87247 32.3531 9.87284 32.3534C9.87225 32.3552 9.87178 32.3559 9.87138 32.356ZM18.6425 36.65C18.7587 36.6591 19.0846 36.6584 18.9876 36.6492C18.9782 36.6484 18.6901 36.6432 18.6425 36.65ZM17.2628 9.34937C17.2783 9.35101 17.2704 9.35206 17.2448 9.35303C17.2436 9.35181 17.2502 9.35066 17.2628 9.34937ZM16.8928 36.6574C16.9044 36.6506 16.4084 36.6479 16.3885 36.6487C16.1039 36.6606 16.688 36.6578 16.8928 36.6574ZM28.4787 35.3704C28.4752 35.3451 28.4759 35.511 28.4939 35.6107C28.5079 35.688 28.492 35.4653 28.4787 35.3704ZM25.1967 9.34046C25.3538 9.34047 25.5749 9.34046 25.6157 9.34882C25.5105 9.34754 25.1935 9.34659 25.1967 9.34046ZM28.6667 9.33985C28.4811 9.34967 28.0571 9.34965 27.7864 9.34803C27.7814 9.33509 28.4925 9.34289 28.6667 9.33985ZM18.3476 9.33832C18.3347 9.33779 17.9408 9.33394 17.9946 9.34259C18.0732 9.35529 18.4587 9.34303 18.3476 9.33832ZM28.5539 36.1316C28.5793 36.306 28.5527 35.9011 28.5181 35.718C28.5004 35.6239 28.5496 36.1022 28.5539 36.1316ZM19.66 36.6619C19.8925 36.6569 19.3164 36.648 19.236 36.657C19.343 36.6578 19.5775 36.6637 19.66 36.6619ZM11.7521 36.6711C12.4845 36.6972 12.0856 36.6496 11.9556 36.6537C11.9373 36.6543 11.7342 36.6705 11.7521 36.6711ZM30.6647 13.8568C30.6626 13.7985 30.6576 13.8952 30.6551 14L30.7307 13.7845C30.6783 13.847 30.624 13.9141 30.6133 13.9336C30.6039 13.9507 30.6742 13.868 30.738 13.7904L30.6645 14C30.6654 13.9394 30.6655 13.8817 30.6647 13.8568ZM10.2578 28.8123C10.2544 28.8431 10.2511 28.8736 10.2478 28.9038C10.2499 28.8811 10.2531 28.8513 10.2578 28.8123ZM21.7698 36.6969C21.2542 36.66 21.3083 36.6884 21.2636 36.6883C21.1667 36.6879 20.9417 36.6779 20.7593 36.6796C20.9683 36.6754 21.1772 36.6713 21.3862 36.6671C21.2211 36.6644 19.7872 36.6509 19.7571 36.6569C19.7141 36.6654 20.1653 36.6627 20.1784 36.6634C20.1974 36.6645 20.2678 36.6882 20.3097 36.6891C20.3786 36.6905 21.5776 36.691 21.7698 36.6969ZM13.2837 36.667C13.1659 36.6642 13.1324 36.6548 13.0777 36.657C13.0591 36.6578 13.0561 36.6668 12.9924 36.6691C13.0895 36.6684 13.1866 36.6677 13.2837 36.667ZM22.693 36.6638C22.8389 36.6747 22.1846 36.6705 22.1636 36.6693C22.0516 36.6619 22.5737 36.6548 22.693 36.6638ZM17.1404 36.6653C17.1643 36.666 17.6667 36.6694 17.6627 36.6633C17.5298 36.6587 16.8579 36.6574 17.1404 36.6653ZM12.9138 36.6697C12.7373 36.6686 12.4035 36.6596 12.4418 36.6731C12.4421 36.6731 12.4423 36.6731 12.4426 36.6731C12.5997 36.672 12.7568 36.6708 12.9138 36.6697ZM28.6487 36.7276C28.6339 36.4001 28.6241 36.5571 28.6492 36.8458C28.6685 36.932 28.6512 36.7813 28.6487 36.7276ZM28.549 35.6853C28.5428 35.5944 28.435 34.6626 28.4395 34.8061C28.4411 34.8571 28.5108 35.3921 28.5128 35.4168C28.5158 35.4544 28.4843 35.2848 28.5186 35.5704C28.5209 35.5532 28.5512 35.7164 28.549 35.6853ZM28.6325 36.457C28.6128 36.1321 28.5748 36.0628 28.6017 36.3058C28.6122 36.4008 28.6353 36.5034 28.6325 36.457ZM28.2523 36.6921C28.3692 36.695 28.6808 36.6992 28.8956 36.6891C28.6082 36.6883 28.3208 36.6874 28.0333 36.6866C28.0002 36.6923 28.1499 36.6896 28.253 36.6921C28.2528 36.6921 28.2525 36.6921 28.2523 36.6921ZM30.6204 9.26276C30.3621 9.25422 30.9572 9.25096 30.9824 9.25305C31.0571 9.26001 30.7359 9.26657 30.6204 9.26276ZM30.938 11.839C30.9414 11.7672 30.9526 11.7203 30.9467 11.5623C30.9385 11.7212 30.9302 11.8801 30.9219 12.0391C30.9409 12.1625 30.9342 11.9175 30.938 11.839ZM31.0072 11.2322C31.0076 11.2546 31.0367 11.132 31.0173 11.422C31.0042 11.618 30.9914 10.5524 31.0043 10.3601C31.0103 10.5726 31.0034 11.0389 31.0072 11.2322ZM31.1331 9.36573C31.1355 9.35344 31.1389 9.75827 31.1372 9.80512C31.1286 10.0512 31.1207 9.4322 31.1331 9.36573ZM31.1276 10.6572C31.1332 10.4673 31.1369 10.8879 31.1336 11.0133C31.1282 11.0254 31.1268 10.6865 31.1276 10.6572ZM28.0045 8.84123C27.799 8.82145 27.6153 8.86403 27.9314 8.85545C27.9465 8.85505 28.0132 8.8422 28.0045 8.84123ZM31.1625 9.7615C31.1568 9.95135 31.1532 9.53077 31.1564 9.40542C31.1619 9.39376 31.1633 9.73259 31.1625 9.7615ZM27.8599 8.79411C27.587 8.77988 27.6831 8.82765 27.7172 8.82957C27.8576 8.83718 28.3392 8.81843 28.4376 8.81376C27.7168 8.82093 27.9883 8.80082 27.8599 8.79411ZM26.6014 8.8228C26.3483 8.82789 26.9952 8.83764 27.1186 8.82432C26.9928 8.82496 26.6734 8.82133 26.6014 8.8228ZM25.0651 8.80748C24.929 8.80577 24.5242 8.80167 24.4563 8.80919C24.6049 8.80783 25.0076 8.81521 25.0651 8.80748ZM24.757 8.78496C24.5442 8.77474 24.4932 8.8045 24.7385 8.79564C24.748 8.79529 24.7648 8.78552 24.757 8.78496ZM23.561 8.77421C23.4214 8.76238 23.2621 8.7912 23.4883 8.79197C23.5555 8.79215 23.5758 8.77557 23.561 8.77421ZM27.5183 8.74272C27.3185 8.73764 27.061 8.75827 27.4877 8.76054C27.3378 8.76369 27.1879 8.76685 27.038 8.77C27.597 8.78157 27.5559 8.75295 27.7164 8.75413C27.9406 8.75581 27.923 8.77943 27.8779 8.78685C28.0618 8.77238 28.8429 8.77215 29.2944 8.76939C28.8976 8.76332 28.2538 8.75279 27.8622 8.74894C27.7504 8.74783 27.6419 8.75431 27.5466 8.75358C27.3938 8.75239 27.5295 8.74306 27.5191 8.74272C27.5188 8.74272 27.5186 8.74272 27.5183 8.74272ZM21.9889 8.77379C21.5787 8.76038 21.8381 8.78932 22.0699 8.78416C22.0798 8.78376 21.9991 8.77411 21.9889 8.77379ZM31.2504 9.21756C31.2383 9.76561 31.2223 9.36724 31.2467 10.5137C31.2294 10.0321 31.2343 10.4871 31.2273 10.3931C31.2218 10.3177 31.2264 10.035 31.2153 10.1993C31.2273 9.9834 31.224 9.04594 31.226 9.00415C31.226 9.00454 31.226 9.00493 31.226 9.00533C31.2271 8.98022 31.2543 9.04268 31.2504 9.21756ZM25.0631 8.73179C24.9263 8.69667 24.8726 8.75241 24.6037 8.72331C24.2456 8.76557 25.5929 8.72331 25.756 8.75901C24.2928 8.75487 26.7227 8.79439 25.7014 8.74095C26.5428 8.76034 25.9771 8.73433 26.107 8.72752C26.2459 8.72027 26.7219 8.72815 26.6977 8.71507C26.6974 8.71507 26.6972 8.71507 26.6969 8.71507C26.4058 8.71598 26.1147 8.7169 25.8236 8.71781C26.1085 8.74603 25.5137 8.73757 25.3119 8.71458C25.229 8.72032 25.146 8.72605 25.0631 8.73179ZM26.7107 8.75828C26.682 8.75764 26.0488 8.76159 26.0897 8.76725C26.1742 8.77087 27.0728 8.76654 26.7107 8.75828ZM29.4972 8.75212C29.2698 8.75205 28.9183 8.74654 28.7945 8.75718C29.0218 8.75725 29.3734 8.76276 29.4972 8.75212ZM17.7911 8.7501C17.5013 8.75883 18.3934 8.76142 18.1353 8.75108C18.1226 8.75059 17.8053 8.7497 17.7911 8.7501ZM24.404 8.7371C24.1094 8.72637 24.2486 8.76053 24.4669 8.75163C24.4795 8.7511 24.4176 8.73759 24.404 8.7371ZM31.2546 9.66167C31.263 9.68138 31.2571 10.4765 31.2572 10.6175C31.2494 10.5374 31.245 9.63906 31.2546 9.66167ZM29.8973 8.7208C29.4449 8.69071 28.8311 8.72547 28.7638 8.72471C28.6969 8.72394 28.8019 8.71078 28.7866 8.71043C28.7518 8.70969 28.039 8.71079 28.0045 8.71171C27.9798 8.71242 28.1088 8.73091 27.9616 8.73674C28.2486 8.72623 29.5518 8.7328 29.6194 8.73075C29.6718 8.72912 29.2769 8.7097 29.8965 8.7208C29.8968 8.7208 29.897 8.7208 29.8973 8.7208ZM28.5956 8.72068C28.7737 8.72843 28.2743 8.7294 28.1534 8.72654C27.8849 8.72014 28.5727 8.71976 28.5956 8.72068ZM27.3945 8.71354C27.3375 8.7118 26.8228 8.71022 26.779 8.71885C27.0227 8.73004 27.5239 8.71759 27.3945 8.71354ZM21.6674 8.7147C21.5337 8.71581 21.1662 8.70918 21.1451 8.71672C21.2789 8.71562 21.6464 8.72224 21.6674 8.7147ZM31.3204 12.3747C31.3267 12.1526 31.3293 12.6671 31.3263 12.8172C31.3212 12.8254 31.3199 12.3936 31.3204 12.3747ZM24.3541 8.66502C24.275 8.66272 22.6603 8.66844 22.4338 8.67197C22.6554 8.67768 24.2556 8.67811 24.3282 8.67533C24.3494 8.6745 24.3642 8.66538 24.3541 8.66502ZM27.8461 8.66154C27.9941 8.65044 28.0907 8.66375 28.1094 8.66392C28.2925 8.66562 28.6722 8.66311 28.5889 8.67381C28.2658 8.66949 27.5514 8.68358 27.8461 8.66154ZM21.5527 8.66447C21.0044 8.66859 22.0575 8.68028 21.9193 8.66868C21.9104 8.66798 21.6093 8.66403 21.5527 8.66447ZM24.5345 8.66178C24.6554 8.65281 26.2706 8.66055 26.5299 8.66056C26.2976 8.67711 26.1104 8.66454 25.7985 8.66538C25.7143 8.66563 25.7368 8.67251 25.7277 8.67252C25.5819 8.67284 25.691 8.66489 25.6012 8.66477C25.5444 8.66472 24.3643 8.67442 24.5345 8.66178ZM27.9306 8.65385C28.0209 8.64748 29.0294 8.64477 29.07 8.64646C29.3735 8.65904 28.009 8.65606 27.9306 8.65385ZM24.3863 8.64707C24.56 8.62784 25.3621 8.64072 24.8132 8.65031C24.7607 8.65118 24.5387 8.64284 24.3863 8.64707ZM21.6112 8.64616C21.5842 8.64559 21.0127 8.64175 21.0024 8.64787C21.085 8.65024 21.9182 8.65238 21.6112 8.64616ZM21.9076 8.62546C21.8938 8.62561 22.0278 8.63739 21.7598 8.6359C21.7374 8.63576 21.6958 8.6225 21.3589 8.62736C21.2905 8.62836 21.1846 8.63713 21.1923 8.63767C21.5431 8.65848 22.5996 8.61863 21.9076 8.62546ZM27.9491 8.6431C27.8947 8.63751 28.0258 8.6209 28.144 8.62931C28.1947 8.63294 28.1001 8.64291 27.9491 8.6431ZM19.7986 8.64078C20.1309 8.63071 19.0877 8.62881 19.0346 8.63138C19.0681 8.63766 19.7654 8.64177 19.7986 8.64078ZM31.3982 12.8947C31.3982 12.8944 31.3982 12.8941 31.3982 12.8939C31.3959 13.1734 31.3875 13.0003 31.3872 13.0134C31.3749 13.6088 31.3939 13.4508 31.3961 13.5439C31.4007 13.7335 31.3802 13.7141 31.3863 14L31.3875 14.1317L31.3016 14.2413C31.2924 14.2534 31.2827 14.2661 31.2725 14.2797C31.2828 14.2661 31.2925 14.2533 31.3016 14.2413L31.3875 14.1317L31.3862 14C31.3748 13.5645 31.3782 13.9216 31.3729 14L31.3741 14.1272L31.2912 14.2329C31.286 14.2386 31.2824 14.2421 31.281 14.2427C31.2729 14.2462 31.2742 14.24 31.2828 14.2262L31.3634 14.1235L31.3622 14C31.3489 13.8855 31.3859 13.2385 31.3797 12.9953C31.3788 12.9566 31.3681 13.2421 31.365 13.1431C31.3552 12.8209 31.4069 11.8221 31.3982 12.8947ZM28.2352 8.62784C28.3648 8.618 29.3484 8.62755 29.0877 8.63566C29.0457 8.63696 28.0446 8.64219 28.2352 8.62784ZM9.14587 32.1856C9.16351 31.9498 9.09305 32.4932 9.08842 32.5949C9.08614 32.6453 9.13811 32.2893 9.14587 32.1856ZM8.68544 35.9995C8.65614 36.2789 8.65874 36.5771 8.69186 36.2292C8.69536 36.1922 8.69389 35.9681 8.68544 35.9995ZM9.87542 18.2424C10.0487 18.4794 10.0563 18.451 9.92148 18.2831C9.8739 18.2238 9.86996 18.2349 9.87542 18.2424ZM9.50729 28.7958C9.50323 28.8249 9.46728 29.162 9.47403 29.1503C9.49111 29.0261 9.53387 28.6077 9.50729 28.7958ZM9.81461 18.1718C9.92658 18.3049 9.7529 18.0605 9.60709 17.9049C9.6756 17.9884 9.8031 18.158 9.81461 18.1718ZM23.7803 8.59495C23.6347 8.60463 23.2227 8.6017 22.986 8.60337C22.9605 8.59082 23.6112 8.59722 23.7803 8.59495ZM8.83132 34.816C8.81074 35.0812 8.88085 34.5158 8.86346 34.5665C8.86203 34.5736 8.8321 34.8055 8.83132 34.816ZM6.59049 9.64586C6.59797 9.83915 6.60804 9.22541 6.59488 9.39432C6.59435 9.40265 6.59007 9.63526 6.59049 9.64586ZM9.03415 8.59482C8.88753 8.5923 8.26215 8.59308 8.50554 8.60038C8.54334 8.6015 9.02315 8.60168 9.03415 8.59482ZM31.4052 13.5604C31.4177 13.4834 31.4151 13.9172 31.4129 14L31.4143 14.1408L31.3224 14.2579C31.321 14.2596 31.3198 14.2611 31.3187 14.2623C31.3168 14.2646 31.3179 14.2626 31.3214 14.2571L31.413 14.1404L31.4116 14C31.407 13.9504 31.3903 13.6516 31.4052 13.5604ZM10.5281 19.5622C10.513 19.7132 10.4665 20.1041 10.4655 20.1737C10.4847 19.989 10.547 19.5141 10.5281 19.5622ZM8.96515 33.6109C8.92566 33.8395 8.88334 34.2329 8.91233 34.1377C8.95937 33.7032 8.89002 34.1896 8.96515 33.6109ZM9.19224 17.4179C9.26743 17.5136 9.33941 17.5755 9.33148 17.5642C9.25525 17.4563 9.12204 17.3192 9.19224 17.4179ZM9.84627 25.6814C9.83803 25.6875 9.79834 26.0756 9.80889 26.0244C9.81239 26.0076 9.85294 25.6764 9.84627 25.6814ZM18.671 8.59067C18.4923 8.58382 19.0382 8.57712 19.1996 8.58512C19.2781 8.59665 18.6936 8.59146 18.671 8.59067ZM7.0874 14.7798C7.06736 14.7726 7.4532 15.2448 7.31033 15.0515C7.27456 15.0031 7.09429 14.7825 7.0874 14.7798ZM7.17399 8.56772C6.76497 8.58101 8.48249 8.59045 8.03117 8.57389C7.9989 8.57271 7.2096 8.5666 7.17399 8.56772ZM9.97898 8.57602C9.90841 8.57456 9.94358 8.53711 10.2356 8.55155C10.2739 8.55342 10.0946 8.56332 10.126 8.56559C10.1444 8.56688 10.7794 8.57214 10.8086 8.57126C10.8401 8.57027 10.8031 8.55827 10.835 8.55692C10.8709 8.55541 11.2618 8.56596 11.4666 8.56607C11.8523 8.56627 11.894 8.55628 11.9256 8.55625C12.0178 8.55618 12.1727 8.56328 12.3595 8.56327C13.3012 8.56319 14.7414 8.55472 15.4879 8.5759C14.8236 8.5674 14.1906 8.57642 13.5295 8.5792C13.7231 8.55834 12.557 8.59527 13.2391 8.5712C12.925 8.57642 10.2103 8.5806 9.97976 8.57602C9.9795 8.57602 9.97924 8.57602 9.97898 8.57602ZM9.14908 37.4336C8.97651 37.4464 9.86195 37.4435 9.93709 37.4287C9.8202 37.4267 9.17047 37.4322 9.14908 37.4336ZM8.97269 33.0368C8.97958 32.9548 8.96335 32.8745 9.02357 32.4473C9.02361 32.4469 9.02366 32.4465 9.0237 32.4461C9.0413 32.3212 9.03149 32.4647 9.0362 32.442C9.03801 32.4337 9.09379 32.0443 9.05972 32.369C9.00776 32.8644 9.03605 32.4136 9.00647 32.6775C9.00286 32.7098 8.96081 33.2108 8.96699 33.1821C8.96766 33.1791 8.98152 33.0285 8.9855 33.0038C9.00053 32.9106 9.00322 32.957 9.00506 32.9439C9.01081 32.9007 9.08536 32.1094 9.10967 31.9958C9.11754 31.9589 8.98206 33.2564 8.97451 33.3067C8.96974 33.3385 8.9497 33.3226 8.94391 33.3555C8.94096 33.3724 8.89109 33.8948 8.88159 33.9623C8.87883 33.9818 8.87654 33.9968 8.87481 34.0078C8.89024 33.9296 8.83728 34.4018 8.83138 34.3865C8.82933 34.378 8.86716 34.0531 8.86897 34.0415C8.86976 34.0364 8.87055 34.032 8.87122 34.0279C8.85562 34.0943 8.97827 32.9938 8.93979 33.23C8.96862 32.9103 8.95249 33.2773 8.97269 33.0368ZM9.1298 31.5017C9.1284 31.5349 9.12701 31.5681 9.12561 31.6013C9.18213 31.0422 9.26464 30.3989 9.33605 29.7554C9.35419 29.5922 9.31947 29.7785 9.34703 29.5649C9.36911 29.3938 9.40304 29.2055 9.39555 29.299C9.39374 29.3218 9.34659 29.6699 9.32804 29.8447C9.27327 30.3608 9.29963 30.2318 9.2966 30.262C9.29324 30.2953 9.24882 30.619 9.22949 30.7963C9.18093 31.2421 9.16561 31.4465 9.08842 32.0543C9.11964 31.702 9.08124 31.8926 9.1298 31.5017ZM6.54728 12.0881C6.53975 12.0667 6.54643 11.699 6.54532 11.5654C6.55286 11.5864 6.54617 11.9544 6.54728 12.0881ZM28.5347 28.6247C28.51 28.5138 28.6005 29.3556 28.586 29.1327C28.5828 29.0834 28.5464 28.7304 28.5347 28.6247ZM28.9473 32.4055C28.9632 32.5177 28.9217 32.0635 28.9123 32.0654C28.9093 32.0664 28.9452 32.3911 28.9473 32.4055ZM9.94407 24.2833C9.94605 24.262 9.98319 23.9526 9.98489 23.943C10.0207 23.7393 9.89994 24.7576 9.94407 24.2833ZM28.9487 37.4702C28.9704 37.4697 28.9873 37.4693 29 37.4689L29.5284 37.4638L29.466 36.9482C29.4598 36.905 29.4593 36.9122 29.4624 36.9486L29.5242 37.4601L29 37.4652C28.8547 37.4612 28.2441 37.4611 28.5183 37.4689C28.5364 37.4694 28.9297 37.4706 28.9487 37.4702ZM27.2972 37.4724C27.3918 37.472 27.812 37.476 27.8176 37.4723C27.826 37.4662 27.345 37.462 27.2972 37.4724ZM9.10451 17.3829C9.12213 17.4272 8.78422 16.9879 8.6625 16.8386C8.64479 16.7942 8.98284 17.2336 9.10451 17.3829ZM10.4067 19.9912C10.4548 19.5389 10.4925 19.1942 10.5204 18.9467L10.6232 19.3015C10.1832 18.7499 10.2389 18.8061 10.6322 19.2942L10.5319 18.948C10.501 19.2346 10.456 19.6364 10.3981 20.1302C10.3889 20.132 10.3911 20.1378 10.4067 19.9912ZM9.41402 17.7836C9.47401 17.8443 9.63766 18.0531 9.74907 18.1935C9.72409 18.1722 9.49604 17.8835 9.41402 17.7836ZM28.4424 27.6207C28.4698 27.765 28.5276 28.4114 28.5103 28.2972C28.5063 28.2707 28.4303 27.5679 28.4424 27.6207ZM9.95385 24.0875C9.9344 24.14 10.0173 23.4435 10.0263 23.3904C10.0622 23.1766 9.95716 24.0307 9.95385 24.0875ZM7.02402 14.8014C6.94577 14.719 6.7591 14.4797 6.61973 14.3042L6.51472 14.1755L6.51301 14C6.51309 13.9788 6.51314 13.9584 6.51316 13.9388C6.51445 13.9535 6.51548 13.9744 6.51629 14L6.51799 14.1744L6.62229 14.3022C6.72208 14.4191 6.92133 14.6727 7.02402 14.8014ZM8.03792 16.082C8.02872 16.0712 7.83234 15.8241 7.8239 15.8128C7.67045 15.6044 8.22605 16.3032 8.03792 16.082ZM31.4999 12.5071C31.5002 12.5177 31.4996 12.7566 31.4992 12.765C31.489 12.9783 31.4911 12.261 31.4999 12.5071Z" fill="black"/>
</svg>
